<?xml version="1.0" encoding="utf-8"?>
<!-- Generator: Adobe Illustrator 24.3.0, SVG Export Plug-In . SVG Version: 6.00 Build 0)  -->
<svg version="1.1" id="Layer_1" xmlns="http://www.w3.org/2000/svg" xmlns:xlink="http://www.w3.org/1999/xlink" x="0px" y="0px"
	 viewBox="0 0 285.9 219.2" style="enable-background:new 0 0 285.9 219.2;" xml:space="preserve">
<style type="text/css">
	.st0{clip-path:url(#SVGID_2_);}
	.st1{clip-path:url(#SVGID_4_);}
	.st2{clip-path:url(#SVGID_6_);}
	.st3{clip-path:url(#SVGID_8_);fill:url(#SVGID_9_);}
	.st4{clip-path:url(#SVGID_11_);}
	.st5{clip-path:url(#SVGID_13_);}
	.st6{clip-path:url(#SVGID_15_);}
	.st7{clip-path:url(#SVGID_17_);fill:url(#SVGID_18_);}
	
		.st8{clip-path:url(#SVGID_20_);fill:none;stroke:#000000;stroke-width:0.4879;stroke-linecap:round;stroke-linejoin:round;stroke-miterlimit:10;}
	.st9{clip-path:url(#SVGID_22_);}
	.st10{clip-path:url(#SVGID_24_);fill:url(#SVGID_25_);}
	
		.st11{clip-path:url(#SVGID_27_);fill:none;stroke:#000000;stroke-width:2.0467;stroke-linecap:round;stroke-linejoin:round;stroke-miterlimit:10;}
	
		.st12{clip-path:url(#SVGID_29_);fill:none;stroke:#000000;stroke-width:0.5183;stroke-linecap:round;stroke-linejoin:round;stroke-miterlimit:10;}
	
		.st13{clip-path:url(#SVGID_31_);fill:none;stroke:#000000;stroke-width:2.0467;stroke-linecap:round;stroke-linejoin:round;stroke-miterlimit:10;}
	
		.st14{clip-path:url(#SVGID_33_);fill:none;stroke:#000000;stroke-width:2.0467;stroke-linecap:round;stroke-linejoin:round;stroke-miterlimit:10;}
	
		.st15{clip-path:url(#SVGID_35_);fill:none;stroke:#000000;stroke-width:2.0467;stroke-linecap:round;stroke-linejoin:round;stroke-miterlimit:10;}
	.st16{clip-path:url(#SVGID_37_);fill-rule:evenodd;clip-rule:evenodd;fill:#959595;}
	.st17{clip-path:url(#SVGID_39_);}
	.st18{clip-path:url(#SVGID_41_);}
	.st19{clip-path:url(#SVGID_43_);}
	
		.st20{clip-path:url(#SVGID_45_);fill:none;stroke:#000000;stroke-width:2.0746;stroke-linecap:round;stroke-linejoin:round;stroke-miterlimit:10;}
</style>
<g>
	<g>
		<g>
			<defs>
				<rect id="SVGID_1_" x="40.2" y="12.9" width="205.5" height="193.5"/>
			</defs>
			<clipPath id="SVGID_2_">
				<use xlink:href="#SVGID_1_"  style="overflow:visible;"/>
			</clipPath>
			<g class="st0">
				<g>
					<g>
						<defs>
							<rect id="SVGID_3_" x="41" y="51.7" width="203.9" height="154.6"/>
						</defs>
						<clipPath id="SVGID_4_">
							<use xlink:href="#SVGID_3_"  style="overflow:visible;"/>
						</clipPath>
						<g transform="matrix(1 0 0 1 0 0)" class="st1">
							
								<image style="overflow:visible;enable-background:new    ;" width="294" height="223" xlink:href="374F0776.png"  transform="matrix(0.6935 0 0 0.6934 40.9918 51.6754)">
							</image>
						</g>
					</g>
				</g>
			</g>
		</g>
	</g>
	<g>
		<g>
			<defs>
				<rect id="SVGID_5_" x="40.2" y="12.9" width="205.5" height="193.5"/>
			</defs>
			<clipPath id="SVGID_6_">
				<use xlink:href="#SVGID_5_"  style="overflow:visible;"/>
			</clipPath>
			<g class="st2">
				<g>
					<g>
						<defs>
							<path id="SVGID_7_" d="M111.9,159.7c0,0,33.4,10.6,61.7,0.6c0,0-14.2-35.7-25.9-49.5c0,0-9.2-3.4-17.9,9.3L111.9,159.7z"/>
						</defs>
						<clipPath id="SVGID_8_">
							<use xlink:href="#SVGID_7_"  style="overflow:visible;"/>
						</clipPath>
						
							<linearGradient id="SVGID_9_" gradientUnits="userSpaceOnUse" x1="-451.1515" y1="509.7629" x2="-450.4559" y2="509.7629" gradientTransform="matrix(-2.6097 -70.0616 -70.0616 2.6097 34681.0859 -32775.6797)">
							<stop  offset="0" style="stop-color:#FFFFFF"/>
							<stop  offset="0.61" style="stop-color:#F1F0F0"/>
							<stop  offset="1" style="stop-color:#A6A5A5"/>
						</linearGradient>
						<polygon class="st3" points="112,172.6 109.5,107.3 173.5,105 176,170.2 						"/>
					</g>
				</g>
			</g>
		</g>
	</g>
	<g>
		<g>
			<defs>
				<rect id="SVGID_10_" x="40.2" y="12.9" width="205.5" height="193.5"/>
			</defs>
			<clipPath id="SVGID_11_">
				<use xlink:href="#SVGID_10_"  style="overflow:visible;"/>
			</clipPath>
			<g class="st4">
				<g>
					<g>
						<defs>
							<rect id="SVGID_12_" x="107.4" y="110.1" width="71.2" height="51.9"/>
						</defs>
						<clipPath id="SVGID_13_">
							<use xlink:href="#SVGID_12_"  style="overflow:visible;"/>
						</clipPath>
						<g class="st5">
							
								<image style="overflow:visible;enable-background:new    ;" width="105" height="75" xlink:href="374F077A.png"  transform="matrix(0.6783 0 0 0.679 107.4387 110.5619)">
							</image>
						</g>
					</g>
				</g>
			</g>
		</g>
	</g>
	<g>
		<g>
			<defs>
				<rect id="SVGID_14_" x="40.2" y="12.9" width="205.5" height="193.5"/>
			</defs>
			<clipPath id="SVGID_15_">
				<use xlink:href="#SVGID_14_"  style="overflow:visible;"/>
			</clipPath>
			<g class="st6">
				<g>
					<g>
						<defs>
							<path id="SVGID_16_" d="M52.3,52c0,0-1-24.5,57.1-31.2c0,0,93.9-12.9,118.3,20.5c0,0,5.4,13.9-13.8,35.9
								c0,0-53.8-32.2-145.7-1.2C68.1,76,56.8,65.7,52.3,52z"/>
						</defs>
						<clipPath id="SVGID_17_">
							<use xlink:href="#SVGID_16_"  style="overflow:visible;"/>
						</clipPath>
						
							<linearGradient id="SVGID_18_" gradientUnits="userSpaceOnUse" x1="-446.1076" y1="515.2313" x2="-445.412" y2="515.2313" gradientTransform="matrix(325.902 4.1063 4.1063 -325.902 143288.4531 169787.6875)">
							<stop  offset="0" style="stop-color:#625A5B"/>
							<stop  offset="0.32" style="stop-color:#CECCCC"/>
							<stop  offset="0.56" style="stop-color:#FFFFFF"/>
							<stop  offset="0.77" style="stop-color:#D2D2D1"/>
							<stop  offset="1" style="stop-color:#575757"/>
						</linearGradient>
						<polygon class="st7" points="51.4,5.6 234,7.9 233.1,79.4 50.5,77.1 						"/>
					</g>
				</g>
			</g>
		</g>
	</g>
	<g>
		<g>
			<defs>
				<rect id="SVGID_19_" x="40.2" y="12.9" width="205.5" height="193.5"/>
			</defs>
			<clipPath id="SVGID_20_">
				<use xlink:href="#SVGID_19_"  style="overflow:visible;"/>
			</clipPath>
			<path class="st8" d="M62.9,69.4c0,0,34.9-14.7,77.3-15.9c25.5-0.7,54.1,4,78.3,16.4"/>
		</g>
	</g>
	<g>
		<g>
			<defs>
				<rect id="SVGID_21_" x="40.2" y="12.9" width="205.5" height="193.5"/>
			</defs>
			<clipPath id="SVGID_22_">
				<use xlink:href="#SVGID_21_"  style="overflow:visible;"/>
			</clipPath>
			<g class="st9">
				<g>
					<g>
						<defs>
							<path id="SVGID_23_" d="M48.3,52.6c0,0-5.9-35.4,90.4-39c0,0,76.2-1.7,93.1,26.7c0,0,9.8,51.1,13.1,61.2
								c0,0-20.3,58.1-57.7,91.5c0,0-27.9-70.6-39.3-81c0,0,85.1-23.7,80.1-69.7c0,0-3.5-7.5-19.5-14.1
								c-14.3-5.8-39.6-11.1-68.6-9.7c-61.5,2.9-87,16.5-86.8,34.6c0,0,1.9,5.8,4,8.9c9.3,14,28.5,36,79.2,46.8
								c0,0,7.3,1.5,11.8,3.2c0,0-11.5-5.8-20.6,13.6c0,0-27.6,58.5-28.5,68.5c0,0-51.3-57.6-57.9-89.2C40.9,105,46.1,60,48.3,52.6z
								"/>
						</defs>
						<clipPath id="SVGID_24_">
							<use xlink:href="#SVGID_23_"  style="overflow:visible;"/>
						</clipPath>
						
							<linearGradient id="SVGID_25_" gradientUnits="userSpaceOnUse" x1="-446.4283" y1="517.8782" x2="-445.7327" y2="517.8782" gradientTransform="matrix(5.1206 236.844 236.844 -5.1206 -120228.9688 108416.8281)">
							<stop  offset="0" style="stop-color:#FFFFFF"/>
							<stop  offset="0.63" style="stop-color:#F3F3F4"/>
							<stop  offset="1" style="stop-color:#B3B4B4"/>
						</linearGradient>
						<polygon class="st10" points="244.9,7.4 248.9,194 41,198.5 37,12 						"/>
					</g>
				</g>
			</g>
		</g>
	</g>
	<g>
		<g>
			<defs>
				<rect id="SVGID_26_" x="40.2" y="12.9" width="205.5" height="193.5"/>
			</defs>
			<clipPath id="SVGID_27_">
				<use xlink:href="#SVGID_26_"  style="overflow:visible;"/>
			</clipPath>
			<path class="st11" d="M48.3,52.6c0,0-5.9-35.4,90.4-39c0,0,76.2-1.7,93.1,26.7c0,0,9.8,51.1,13.1,61.2c0,0-20.3,58.1-57.7,91.5
				c0,0-27.9-70.6-39.3-81c0,0,85.1-23.7,80.1-69.7c0,0-3.5-7.5-19.5-14.1c-14.3-5.8-39.6-11.1-68.6-9.7
				c-61.5,2.9-87,16.5-86.8,34.6c0,0,1.9,5.8,4,8.9c9.3,14,28.5,36,79.2,46.8c0,0,7.3,1.5,11.8,3.2c0,0-11.5-5.8-20.6,13.6
				c0,0-27.6,58.5-28.5,68.5c0,0-51.3-57.6-57.9-89.2C40.9,105,46.1,60,48.3,52.6z"/>
		</g>
	</g>
	<g>
		<g>
			<defs>
				<rect id="SVGID_28_" x="40.2" y="12.9" width="205.5" height="193.5"/>
			</defs>
			<clipPath id="SVGID_29_">
				<use xlink:href="#SVGID_28_"  style="overflow:visible;"/>
			</clipPath>
			<path class="st12" d="M42,95.8c0,0,14.7,39.8,53.1,79.5l26.2-57.4c0,0,4.5-8.6,8.6-9.2c-0.8-0.2-2.2-0.4-3.1-0.6
				C88,98.4,62.8,85.6,47.6,54.1L42,95.8z M157.4,111c0,0,2.1,1.5,7,9.5c4.9,7.9,12.6,22.4,26,57.7c0,0,23-16.6,52.2-84.9L233,44.5
				c-0.6,4.2-0.8,8.6-2,12.5C221.8,86.4,184.2,103.5,157.4,111z"/>
		</g>
	</g>
	<g>
		<g>
			<defs>
				<rect id="SVGID_30_" x="40.2" y="12.9" width="205.5" height="193.5"/>
			</defs>
			<clipPath id="SVGID_31_">
				<use xlink:href="#SVGID_30_"  style="overflow:visible;"/>
			</clipPath>
			<path class="st13" d="M111.9,159.7c0,0,32.3,10.6,61.7,0.6"/>
		</g>
	</g>
	<g>
		<g>
			<defs>
				<rect id="SVGID_32_" x="40.2" y="12.9" width="205.5" height="193.5"/>
			</defs>
			<clipPath id="SVGID_33_">
				<use xlink:href="#SVGID_32_"  style="overflow:visible;"/>
			</clipPath>
			<path class="st14" d="M69.2,75.3c0,0,79-30.4,143.9,1.3"/>
		</g>
	</g>
	<g>
		<g>
			<defs>
				<rect id="SVGID_34_" x="40.2" y="12.9" width="205.5" height="193.5"/>
			</defs>
			<clipPath id="SVGID_35_">
				<use xlink:href="#SVGID_34_"  style="overflow:visible;"/>
			</clipPath>
			<path class="st15" d="M48.5,52.5c-1.7-1,5.4,41.8,91.1,58.6c0,0,9.9,0.8,14.6,0.8c4.6-0.1,81.5-22.2,78.4-68.8"/>
		</g>
	</g>
	<g>
		<g>
			<defs>
				<rect id="SVGID_36_" x="40.2" y="12.9" width="205.5" height="193.5"/>
			</defs>
			<clipPath id="SVGID_37_">
				<use xlink:href="#SVGID_36_"  style="overflow:visible;"/>
			</clipPath>
			<path class="st16" d="M130.8,138c0,0-0.4,9.6,9.6,10.1c0,0,8.3,0.3,9.3-9.5c0,0-2.7,8.5-9.4,7.7c0,0-3.1,0.1-5.8-2
				C132.9,143,131.2,141.5,130.8,138z"/>
		</g>
	</g>
	<g>
		<g>
			<defs>
				<rect id="SVGID_38_" x="40.2" y="12.9" width="205.5" height="193.5"/>
			</defs>
			<clipPath id="SVGID_39_">
				<use xlink:href="#SVGID_38_"  style="overflow:visible;"/>
			</clipPath>
			<g class="st17">
				<g>
					<g>
						<defs>
							<path id="SVGID_40_" d="M140.2,129.5c4.9,0,8.8,3.8,8.8,8.5s-4,8.5-8.8,8.5c-4.9,0-8.8-3.8-8.8-8.5
								C131.4,133.4,135.3,129.5,140.2,129.5z"/>
						</defs>
						<clipPath id="SVGID_41_">
							<use xlink:href="#SVGID_40_"  style="overflow:visible;"/>
						</clipPath>
						<g class="st18">
							<g>
								<g>
									<defs>
										<rect id="SVGID_42_" x="131.4" y="129.5" width="18.1" height="17.4"/>
									</defs>
									<clipPath id="SVGID_43_">
										<use xlink:href="#SVGID_42_"  style="overflow:visible;"/>
									</clipPath>
									<g class="st19">
										
											<image style="overflow:visible;enable-background:new    ;" width="28" height="27" xlink:href="374F077A.jpg"  transform="matrix(0.6441 0 0 0.6441 131.4561 129.5596)">
										</image>
									</g>
								</g>
							</g>
						</g>
					</g>
				</g>
			</g>
		</g>
	</g>
	<g>
		<g>
			<defs>
				<rect id="SVGID_44_" x="40.2" y="12.9" width="205.5" height="193.5"/>
			</defs>
			<clipPath id="SVGID_45_">
				<use xlink:href="#SVGID_44_"  style="overflow:visible;"/>
			</clipPath>
			<path class="st20" d="M140.2,129.5c4.9,0,8.8,3.8,8.8,8.5s-4,8.5-8.8,8.5c-4.9,0-8.8-3.8-8.8-8.5
				C131.4,133.4,135.3,129.5,140.2,129.5z"/>
		</g>
	</g>
</g>
</svg>
