<?xml version="1.0" encoding="utf-8"?>
<!-- Generator: Adobe Illustrator 24.3.0, SVG Export Plug-In . SVG Version: 6.00 Build 0)  -->
<svg version="1.1" id="Layer_1" xmlns="http://www.w3.org/2000/svg" xmlns:xlink="http://www.w3.org/1999/xlink" x="0px" y="0px"
	 viewBox="0 0 180.9 242.2" style="enable-background:new 0 0 180.9 242.2;" xml:space="preserve">
<style type="text/css">
	.st0{clip-path:url(#SVGID_2_);}
	.st1{clip-path:url(#SVGID_4_);}
	.st2{clip-path:url(#SVGID_8_);}
	.st3{clip-path:url(#SVGID_10_);}
	.st4{clip-path:url(#SVGID_14_);}
	.st5{clip-path:url(#SVGID_16_);}
	
		.st6{clip-path:url(#SVGID_8_);fill:none;stroke:#000000;stroke-width:2.0814;stroke-linecap:round;stroke-linejoin:round;stroke-miterlimit:10;}
	
		.st7{clip-path:url(#SVGID_8_);fill:none;stroke:#000000;stroke-width:2.0852;stroke-linecap:round;stroke-linejoin:round;stroke-miterlimit:10;}
	
		.st8{clip-path:url(#SVGID_2_);fill:none;stroke:#000000;stroke-width:2.0814;stroke-linecap:round;stroke-linejoin:round;stroke-miterlimit:10;}
	.st9{clip-path:url(#SVGID_2_);fill-rule:evenodd;clip-rule:evenodd;fill:#959595;}
	.st10{clip-path:url(#SVGID_22_);}
	
		.st11{clip-path:url(#SVGID_2_);fill:none;stroke:#000000;stroke-width:2.0754;stroke-linecap:round;stroke-linejoin:round;stroke-miterlimit:10;}
	.st12{clip-path:url(#SVGID_2_);fill-rule:evenodd;clip-rule:evenodd;fill:#747475;}
	
		.st13{clip-path:url(#SVGID_2_);fill:none;stroke:#000000;stroke-width:2.2726;stroke-linecap:round;stroke-linejoin:round;stroke-miterlimit:10;}
</style>
<g>
	<defs>
		<rect id="SVGID_1_" width="180.9" height="242.2"/>
	</defs>
	<clipPath id="SVGID_2_">
		<use xlink:href="#SVGID_1_"  style="overflow:visible;"/>
	</clipPath>
	<g class="st0">
		<defs>
			<path id="SVGID_3_" d="M2.2,14.9c1.2-2,2-3.5,6.5-4.5c22.3-5.2,95.1-19,171.1,1.9l-0.1,211.3c0,0-87.8,41-178.7-2L1.7,22.1
				C1.7,22.1,1,16.8,2.2,14.9z"/>
		</defs>
		<clipPath id="SVGID_4_">
			<use xlink:href="#SVGID_3_"  style="overflow:visible;"/>
		</clipPath>
		<g class="st1">
			<defs>
				<rect id="SVGID_5_" x="1" y="1" width="178.8" height="240.1"/>
			</defs>
			<clipPath id="SVGID_6_">
				<use xlink:href="#SVGID_5_"  style="overflow:visible;"/>
			</clipPath>
			<g style="clip-path:url(#SVGID_6_);">
				
					<image style="overflow:visible;" width="179" height="241" xlink:href="122E15FF.jpg"  transform="matrix(0.9989 0 0 0.9965 1.0414 1.032)">
				</image>
			</g>
		</g>
	</g>
	<g class="st0">
		<defs>
			<path id="SVGID_7_" d="M2.2,14.9c1.2-2,2-3.5,6.5-4.5c22.3-5.2,95.1-19,171.1,1.9l-0.1,211.3c0,0-87.8,41-178.7-2L1.7,22.1
				C1.7,22.1,1,16.8,2.2,14.9z"/>
		</defs>
		<clipPath id="SVGID_8_">
			<use xlink:href="#SVGID_7_"  style="overflow:visible;"/>
		</clipPath>
		<g class="st2">
			<defs>
				<path id="SVGID_9_" d="M58.7,84.3L92,35c0,0,48,0.3,81.2-18.7c2.2-1.3,4.5-2.6,6.6-4.1c-27.3,14.2-56.1,22.1-86.1,23.4l-30,43.5
					L37.8,30.5c0,0-16.8-3.1-30.2-11c-2.4-1.4-4.3-2.4-5.6-6.1c-0.5-1.6,0.3-5.1,0.3-5.1l-17.9-4.9l-4.7,225L56,251l3.5-9.8
					L58.7,84.3z"/>
			</defs>
			<clipPath id="SVGID_10_">
				<use xlink:href="#SVGID_9_"  style="overflow:visible;"/>
			</clipPath>
			<g class="st3">
				<defs>
					<rect id="SVGID_11_" x="1" y="3.4" width="178.8" height="237.7"/>
				</defs>
				<clipPath id="SVGID_12_">
					<use xlink:href="#SVGID_11_"  style="overflow:visible;"/>
				</clipPath>
				<g style="clip-path:url(#SVGID_12_);">
					
						<image style="overflow:visible;" width="179" height="238" xlink:href="122E15F8.png"  transform="matrix(0.9989 0 0 0.9989 1.0414 3.443)">
					</image>
				</g>
			</g>
		</g>
		<g class="st2">
			<defs>
				<path id="SVGID_13_" d="M58.7,84.3L92,35c0,0,48,0.3,81.2-18.7c2.2-1.3,4.5-2.6,6.6-4.1c-27.3,14.2-56.1,22.1-86.1,23.4
					l-30,43.5L37.8,30.5c0,0-16.8-3.1-30.2-11c-2.4-1.4-4.3-2.4-5.6-6.1c-0.5-1.6,0.3-5.1,0.3-5.1l-17.9-4.9l-4.7,225L56,251
					l3.5-9.8L58.7,84.3z"/>
			</defs>
			<clipPath id="SVGID_14_">
				<use xlink:href="#SVGID_13_"  style="overflow:visible;"/>
			</clipPath>
			<g class="st4">
				<defs>
					<path id="SVGID_15_" d="M21.4,248.7L35.1,17.2L0.4,6c0,0-24,116.3-24.2,119c-0.2,2.7,8.6,86.1,8.9,88.1
						C-14.5,215.1,21.4,248.7,21.4,248.7z"/>
				</defs>
				<clipPath id="SVGID_16_">
					<use xlink:href="#SVGID_15_"  style="overflow:visible;"/>
				</clipPath>
				<g class="st5">
					<defs>
						<rect id="SVGID_17_" x="1" y="12.9" width="14.6" height="215.3"/>
					</defs>
					<clipPath id="SVGID_18_">
						<use xlink:href="#SVGID_17_"  style="overflow:visible;"/>
					</clipPath>
					<g style="clip-path:url(#SVGID_18_);">
						
							<image style="overflow:visible;" width="15" height="216" xlink:href="122E15F6.png"  transform="matrix(0.9727 0 0 0.9967 1.0411 12.944)">
						</image>
					</g>
				</g>
			</g>
		</g>
		<path class="st6" d="M58.7,84.3L92,35c0,0,48,0.3,81.2-18.7c2.2-1.3,4.5-2.6,6.6-4.1c-27.3,14.2-56.1,22.1-86.1,23.4l-30,43.5
			L37.8,30.5c0,0-16.8-3.1-30.2-11c-2.4-1.4-4.3-2.4-5.6-6.1c-0.5-1.6,0.3-5.1,0.3-5.1l-17.9-4.9l-4.7,225L56,251l3.5-9.8L58.7,84.3
			z"/>
		<g class="st2">
			<defs>
				<rect id="SVGID_19_" x="11" y="7" width="165.8" height="69"/>
			</defs>
			<clipPath id="SVGID_20_">
				<use xlink:href="#SVGID_19_"  style="overflow:visible;"/>
			</clipPath>
			<g transform="matrix(1 0 0 1 0 0)" style="clip-path:url(#SVGID_20_);">
				
					<image style="overflow:visible;" width="166" height="69" xlink:href="122E15F7.png"  transform="matrix(0.9989 0 0 0.9994 11.0307 7.032)">
				</image>
			</g>
		</g>
		<path class="st7" d="M4.7,14.3c0,0-0.6-1.6,4.9-2.9c0,0,40-8.7,81.2-8.6c0,0,36-1.9,87,10"/>
	</g>
	<path class="st8" d="M2.2,14.9c1.2-2,2-3.5,6.5-4.5c22.3-5.2,95.1-19,171.1,1.9l-0.1,211.3c0,0-87.8,41-178.7-2L1.7,22.1
		C1.7,22.1,1,16.8,2.2,14.9z"/>
	<path class="st9" d="M98.9,140.2c0,0-0.5,14.1,13.2,14.8c0,0,11.5,0.4,12.8-14.1c0,0-3.7,12.5-12.9,11.3c0,0-4.3,0.2-8.1-3
		C101.8,147.6,99.4,145.2,98.9,140.2z"/>
	<g class="st0">
		<defs>
			<path id="SVGID_21_" d="M111.8,127.7c7.1,0,12.9,5.6,12.9,12.5c0,6.9-5.8,12.5-12.9,12.5c-7.1,0-12.9-5.6-12.9-12.5
				C98.9,133.3,104.7,127.7,111.8,127.7z"/>
		</defs>
		<clipPath id="SVGID_22_">
			<use xlink:href="#SVGID_21_"  style="overflow:visible;"/>
		</clipPath>
		<g class="st10">
			<defs>
				<rect id="SVGID_23_" x="98.9" y="127.7" width="25.8" height="25"/>
			</defs>
			<clipPath id="SVGID_24_">
				<use xlink:href="#SVGID_23_"  style="overflow:visible;"/>
			</clipPath>
			<g transform="matrix(1 0 0 1 0 0)" style="clip-path:url(#SVGID_24_);">
				
					<image style="overflow:visible;" width="26" height="25" xlink:href="122E1607.jpg"  transform="matrix(0.9939 0 0 0.9997 98.8876 127.717)">
				</image>
			</g>
		</g>
	</g>
	<path class="st11" d="M111.8,127.7c7.1,0,12.9,5.6,12.9,12.5c0,6.9-5.8,12.5-12.9,12.5c-7.1,0-12.9-5.6-12.9-12.5
		C98.9,133.3,104.7,127.7,111.8,127.7z"/>
	<path class="st12" d="M31.8,131.1c0.1,0,0.2,0.1,0.3,0.1c2.3,0.9,5.7,3.1,9.2,5.9c3.5,2.9,6.4,5.8,8,8.1c0.2,0.2,0.3,0.5,0.5,0.8
		c-0.1,0-0.2-0.1-0.3-0.1c-2.3-0.9-5.7-3.1-9.2-5.9c-3.5-2.9-6.4-5.8-8-8.1C32.1,131.6,32,131.4,31.8,131.1z"/>
	<path class="st13" d="M31.8,131.1c0.1,0,0.2,0.1,0.3,0.1c2.3,0.9,5.7,3.1,9.2,5.9c3.5,2.9,6.4,5.8,8,8.1c0.2,0.2,0.3,0.5,0.5,0.8
		c-0.1,0-0.2-0.1-0.3-0.1c-2.3-0.9-5.7-3.1-9.2-5.9c-3.5-2.9-6.4-5.8-8-8.1C32.1,131.6,32,131.4,31.8,131.1z"/>
	<path class="st12" d="M69.8,133.9c0.1,0,0.2,0.1,0.3,0.1c2.3,0.9,5.7,3.1,9.2,5.9c3.5,2.9,6.4,5.8,8,8.1c0.2,0.2,0.3,0.5,0.5,0.8
		c-0.1,0-0.2-0.1-0.3-0.1c-2.3-0.9-5.7-3.1-9.2-5.9c-3.5-2.9-6.4-5.8-8-8.1C70.1,134.5,70,134.2,69.8,133.9z"/>
	<path class="st13" d="M69.8,133.9c0.1,0,0.2,0.1,0.3,0.1c2.3,0.9,5.7,3.1,9.2,5.9c3.5,2.9,6.4,5.8,8,8.1c0.2,0.2,0.3,0.5,0.5,0.8
		c-0.1,0-0.2-0.1-0.3-0.1c-2.3-0.9-5.7-3.1-9.2-5.9c-3.5-2.9-6.4-5.8-8-8.1C70.1,134.5,70,134.2,69.8,133.9z"/>
	<polygon class="st12" points="61.2,239.3 60.3,85.2 93.9,35 58.8,83.4 59.5,239.1 	"/>
	<polygon class="st8" points="61.2,239.3 60.3,85.2 93.9,35 58.8,83.4 59.5,239.1 	"/>
	<path class="st8" d="M4.2,12.3c0,0-2.2,2.6,8.3,7.8c10.7,5.4,26.5,9.1,26.3,8.3L63.6,76l25.2-37l3.9-5.3c0,0,44.9-1.7,85.2-21.6"/>
</g>
</svg>
