<?xml version="1.0" encoding="utf-8"?>
<!-- Generator: Adobe Illustrator 24.3.0, SVG Export Plug-In . SVG Version: 6.00 Build 0)  -->
<svg version="1.1" id="Layer_1" xmlns="http://www.w3.org/2000/svg" xmlns:xlink="http://www.w3.org/1999/xlink" x="0px" y="0px"
	 viewBox="0 0 285.9 219.2" style="enable-background:new 0 0 285.9 219.2;" xml:space="preserve">
<style type="text/css">
	.st0{clip-path:url(#SVGID_2_);}
	.st1{clip-path:url(#SVGID_4_);}
	.st2{clip-path:url(#SVGID_6_);}
	.st3{clip-path:url(#SVGID_8_);}
	.st4{clip-path:url(#SVGID_10_);}
	.st5{clip-path:url(#SVGID_12_);fill-rule:evenodd;clip-rule:evenodd;}
	
		.st6{clip-path:url(#SVGID_14_);fill:none;stroke:#000000;stroke-width:4.2673;stroke-linecap:round;stroke-linejoin:round;stroke-miterlimit:10;}
	
		.st7{clip-path:url(#SVGID_16_);fill:none;stroke:#000000;stroke-width:2.0034;stroke-linecap:round;stroke-linejoin:round;stroke-miterlimit:10;}
	.st8{clip-path:url(#SVGID_18_);}
	.st9{clip-path:url(#SVGID_20_);}
	.st10{clip-path:url(#SVGID_22_);}
	.st11{clip-path:url(#SVGID_24_);}
	
		.st12{clip-path:url(#SVGID_26_);fill:none;stroke:#000000;stroke-width:1.9996;stroke-linecap:round;stroke-linejoin:round;stroke-miterlimit:10;}
	
		.st13{clip-path:url(#SVGID_28_);fill:none;stroke:#000000;stroke-width:2.0032;stroke-linecap:round;stroke-linejoin:round;stroke-miterlimit:10;}
	.st14{clip-path:url(#SVGID_30_);}
	.st15{clip-path:url(#SVGID_32_);}
	.st16{clip-path:url(#SVGID_34_);}
	
		.st17{clip-path:url(#SVGID_36_);fill:none;stroke:#000000;stroke-width:2.0003;stroke-linecap:round;stroke-linejoin:round;stroke-miterlimit:10;}
	
		.st18{clip-path:url(#SVGID_38_);fill:none;stroke:#000000;stroke-width:2.0032;stroke-linecap:round;stroke-linejoin:round;stroke-miterlimit:10;}
</style>
<g>
	<g>
		<g>
			<defs>
				<rect id="SVGID_1_" x="50.5" y="9" width="184.8" height="201.1"/>
			</defs>
			<clipPath id="SVGID_2_">
				<use xlink:href="#SVGID_1_"  style="overflow:visible;"/>
			</clipPath>
			<g class="st0">
				<g>
					<g>
						<defs>
							<rect id="SVGID_3_" x="50.5" y="9" width="184.8" height="201.1"/>
						</defs>
						<clipPath id="SVGID_4_">
							<use xlink:href="#SVGID_3_"  style="overflow:visible;"/>
						</clipPath>
						<g class="st1">
							<g>
								<g>
									<defs>
										<path id="SVGID_5_" d="M55.2,139.6l38.5-49.5c0,0,1.5-6.3,5.3-13.7c3.9-7.4,34.7-50.2,41.1-60.8
											c27.2-15.3,90.2-2.3,94.3,64.3c0,0-46.4,55.8-58.6,67.4c-3.4,3.3-7.9,3.4-7.1,2.7c0,0-12.1,20.4-18.9,29.4
											c-5.3,7.1-15.7,24.8-15.7,24.8s-9.7,8.4-28.5,3.4c-15.3-4.2-38.9-19.5-49.4-38.5C52,161.4,48.3,154.2,55.2,139.6z"/>
									</defs>
									<clipPath id="SVGID_6_">
										<use xlink:href="#SVGID_5_"  style="overflow:visible;"/>
									</clipPath>
									<g class="st2">
										<g>
											<g>
												<defs>
													<rect id="SVGID_7_" x="51.4" y="9.9" width="183.2" height="199.6"/>
												</defs>
												<clipPath id="SVGID_8_">
													<use xlink:href="#SVGID_7_"  style="overflow:visible;"/>
												</clipPath>
												<g class="st3">
													
														<image style="overflow:visible;enable-background:new    ;" width="214" height="233" xlink:href="A970AF1B.jpg"  transform="matrix(0.8562 0 0 0.8562 51.3682 9.9409)">
													</image>
												</g>
											</g>
										</g>
									</g>
								</g>
							</g>
						</g>
					</g>
				</g>
				<g>
					<g>
						<defs>
							<rect id="SVGID_9_" x="50.5" y="9" width="184.8" height="201.1"/>
						</defs>
						<clipPath id="SVGID_10_">
							<use xlink:href="#SVGID_9_"  style="overflow:visible;"/>
						</clipPath>
						<g class="st4">
							<g>
								<g>
									<defs>
										<path id="SVGID_11_" d="M55.2,139.6l38.5-49.5c0,0,1.5-6.3,5.3-13.7c3.9-7.4,34.7-50.2,41.1-60.8
											c27.2-15.3,90.2-2.3,94.3,64.3c0,0-46.4,55.8-58.6,67.4c-3.4,3.3-7.9,3.4-7.1,2.7c0,0-12.1,20.4-18.9,29.4
											c-5.3,7.1-15.7,24.8-15.7,24.8s-9.7,8.4-28.5,3.4c-15.3-4.2-38.9-19.5-49.4-38.5C52,161.4,48.3,154.2,55.2,139.6z"/>
									</defs>
									<clipPath id="SVGID_12_">
										<use xlink:href="#SVGID_11_"  style="overflow:visible;"/>
									</clipPath>
									<path class="st5" d="M55.2,139.6c0,0,12.8-7.6,32.7,2.2c15.7,7.7,50.8,37.3,45.8,58.6c-16.7,69.3-52.6,9.9-55.2,7.6
										s-39.9-49.2-39.9-49.2L55.2,139.6z"/>
								</g>
							</g>
							<g>
								<g>
									<defs>
										<path id="SVGID_13_" d="M55.2,139.6l38.5-49.5c0,0,1.5-6.3,5.3-13.7c3.9-7.4,34.7-50.2,41.1-60.8
											c27.2-15.3,90.2-2.3,94.3,64.3c0,0-46.4,55.8-58.6,67.4c-3.4,3.3-7.9,3.4-7.1,2.7c0,0-12.1,20.4-18.9,29.4
											c-5.3,7.1-15.7,24.8-15.7,24.8s-9.7,8.4-28.5,3.4c-15.3-4.2-38.9-19.5-49.4-38.5C52,161.4,48.3,154.2,55.2,139.6z"/>
									</defs>
									<clipPath id="SVGID_14_">
										<use xlink:href="#SVGID_13_"  style="overflow:visible;"/>
									</clipPath>
									<path class="st6" d="M55.2,139.6c0,0,12.8-7.6,32.7,2.2c15.7,7.7,50.8,37.3,45.8,58.6c-16.7,69.3-52.6,9.9-55.2,7.6
										s-39.9-49.2-39.9-49.2L55.2,139.6z"/>
								</g>
							</g>
							<g>
								<g>
									<defs>
										<path id="SVGID_15_" d="M55.2,139.6l38.5-49.5c0,0,1.5-6.3,5.3-13.7c3.9-7.4,34.7-50.2,41.1-60.8
											c27.2-15.3,90.2-2.3,94.3,64.3c0,0-46.4,55.8-58.6,67.4c-3.4,3.3-7.9,3.4-7.1,2.7c0,0-12.1,20.4-18.9,29.4
											c-5.3,7.1-15.7,24.8-15.7,24.8s-9.7,8.4-28.5,3.4c-15.3-4.2-38.9-19.5-49.4-38.5C52,161.4,48.3,154.2,55.2,139.6z"/>
									</defs>
									<clipPath id="SVGID_16_">
										<use xlink:href="#SVGID_15_"  style="overflow:visible;"/>
									</clipPath>
									<path class="st7" d="M165.3,135.1c8.8-9.4,58.8-71,58.8-71l1.1-12L215.1,50l-56.5,66.8"/>
								</g>
							</g>
							<g>
								<g>
									<defs>
										<path id="SVGID_17_" d="M55.2,139.6l38.5-49.5c0,0,1.5-6.3,5.3-13.7c3.9-7.4,34.7-50.2,41.1-60.8
											c27.2-15.3,90.2-2.3,94.3,64.3c0,0-46.4,55.8-58.6,67.4c-3.4,3.3-7.9,3.4-7.1,2.7c0,0-12.1,20.4-18.9,29.4
											c-5.3,7.1-15.7,24.8-15.7,24.8s-9.7,8.4-28.5,3.4c-15.3-4.2-38.9-19.5-49.4-38.5C52,161.4,48.3,154.2,55.2,139.6z"/>
									</defs>
									<clipPath id="SVGID_18_">
										<use xlink:href="#SVGID_17_"  style="overflow:visible;"/>
									</clipPath>
									<g class="st8">
										<g>
											<g>
												<defs>
													<rect id="SVGID_19_" x="130.5" y="134.7" width="35.6" height="49.2"/>
												</defs>
												<clipPath id="SVGID_20_">
													<use xlink:href="#SVGID_19_"  style="overflow:visible;"/>
												</clipPath>
												<g transform="matrix(1 0 0 1 0 0)" class="st9">
													
														<image style="overflow:visible;enable-background:new    ;" width="44" height="61" xlink:href="A970AF19.png"  transform="matrix(0.8014 0 0 0.8012 130.6704 134.8344)">
													</image>
												</g>
											</g>
										</g>
									</g>
								</g>
							</g>
							<g>
								<g>
									<defs>
										<path id="SVGID_21_" d="M55.2,139.6l38.5-49.5c0,0,1.5-6.3,5.3-13.7c3.9-7.4,34.7-50.2,41.1-60.8
											c27.2-15.3,90.2-2.3,94.3,64.3c0,0-46.4,55.8-58.6,67.4c-3.4,3.3-7.9,3.4-7.1,2.7c0,0-12.1,20.4-18.9,29.4
											c-5.3,7.1-15.7,24.8-15.7,24.8s-9.7,8.4-28.5,3.4c-15.3-4.2-38.9-19.5-49.4-38.5C52,161.4,48.3,154.2,55.2,139.6z"/>
									</defs>
									<clipPath id="SVGID_22_">
										<use xlink:href="#SVGID_21_"  style="overflow:visible;"/>
									</clipPath>
									<g class="st10">
										<g>
											<g>
												<defs>
													<rect id="SVGID_23_" x="129.7" y="69.3" width="104.8" height="137.5"/>
												</defs>
												<clipPath id="SVGID_24_">
													<use xlink:href="#SVGID_23_"  style="overflow:visible;"/>
												</clipPath>
												<g class="st11">
													
														<image style="overflow:visible;enable-background:new    ;" width="124" height="163" xlink:href="A970AF1F.png"  transform="matrix(0.8393 0 0 0.8398 129.9977 69.5818)">
													</image>
												</g>
											</g>
										</g>
									</g>
								</g>
							</g>
						</g>
					</g>
				</g>
				<g>
					<g>
						<defs>
							<rect id="SVGID_25_" x="50.5" y="9" width="184.8" height="201.1"/>
						</defs>
						<clipPath id="SVGID_26_">
							<use xlink:href="#SVGID_25_"  style="overflow:visible;"/>
						</clipPath>
						<path class="st12" d="M55.2,139.6l38.5-49.5c0,0,1.5-6.3,5.3-13.7c3.9-7.4,34.7-50.2,41.1-60.8c27.2-15.3,90.2-2.3,94.3,64.3
							c0,0-46.4,55.8-58.6,67.4c-3.4,3.3-7.9,3.4-7.1,2.7c0,0-12.1,20.4-18.9,29.4c-5.3,7.1-15.7,24.8-15.7,24.8s-9.7,8.4-28.5,3.4
							c-15.3-4.2-38.9-19.5-49.4-38.5C52,161.4,48.3,154.2,55.2,139.6z"/>
					</g>
				</g>
				<g>
					<g>
						<defs>
							<rect id="SVGID_27_" x="50.5" y="9" width="184.8" height="201.1"/>
						</defs>
						<clipPath id="SVGID_28_">
							<use xlink:href="#SVGID_27_"  style="overflow:visible;"/>
						</clipPath>
						<path class="st13" d="M94,90.2c0,0,28.5-2.9,47.5,10.4c10.2,7.1,15.9,9.7,23.9,34.4c0,0-10.7,20.2-27.8,44.2
							c-4.1,5.8-14.2-7.8-16.9-11"/>
					</g>
				</g>
				<g>
					<g>
						<defs>
							<rect id="SVGID_29_" x="50.5" y="9" width="184.8" height="201.1"/>
						</defs>
						<clipPath id="SVGID_30_">
							<use xlink:href="#SVGID_29_"  style="overflow:visible;"/>
						</clipPath>
						<g class="st14">
							<g>
								<g>
									<defs>
										<path id="SVGID_31_" d="M148.6,141.7c1.9,2,2,5.8,0.1,8.3s-5,3.1-7,1c-2-2.1-2-5.8-0.1-8.3
											C143.5,140.1,146.7,139.7,148.6,141.7z"/>
									</defs>
									<clipPath id="SVGID_32_">
										<use xlink:href="#SVGID_31_"  style="overflow:visible;"/>
									</clipPath>
									<g class="st15">
										<g>
											<g>
												<defs>
													<rect id="SVGID_33_" x="140.3" y="140.5" width="9.8" height="11.9"/>
												</defs>
												<clipPath id="SVGID_34_">
													<use xlink:href="#SVGID_33_"  style="overflow:visible;"/>
												</clipPath>
												<g transform="matrix(1 0 0 1 0 0)" class="st16">
													
														<image style="overflow:visible;enable-background:new    ;" width="15" height="18" xlink:href="A970AF18.png"  transform="matrix(0.6188 0 0 0.6415 140.5243 140.589)">
													</image>
												</g>
											</g>
										</g>
									</g>
								</g>
							</g>
						</g>
					</g>
				</g>
				<g>
					<g>
						<defs>
							<rect id="SVGID_35_" x="50.5" y="9" width="184.8" height="201.1"/>
						</defs>
						<clipPath id="SVGID_36_">
							<use xlink:href="#SVGID_35_"  style="overflow:visible;"/>
						</clipPath>
						<path class="st17" d="M148.6,141.7c1.9,2,2,5.8,0.1,8.3s-5,3.1-7,1c-2-2.1-2-5.8-0.1-8.3C143.5,140.1,146.7,139.7,148.6,141.7
							z"/>
					</g>
				</g>
				<g>
					<g>
						<defs>
							<rect id="SVGID_37_" x="50.5" y="9" width="184.8" height="201.1"/>
						</defs>
						<clipPath id="SVGID_38_">
							<use xlink:href="#SVGID_37_"  style="overflow:visible;"/>
						</clipPath>
						<path class="st18" d="M154.5,111.6c0,0,11.7,16,14.2,38.5"/>
					</g>
				</g>
			</g>
		</g>
	</g>
</g>
</svg>
