<?xml version="1.0" encoding="utf-8"?>
<!-- Generator: Adobe Illustrator 24.3.0, SVG Export Plug-In . SVG Version: 6.00 Build 0)  -->
<svg version="1.1" id="Layer_1" xmlns="http://www.w3.org/2000/svg" xmlns:xlink="http://www.w3.org/1999/xlink" x="0px" y="0px"
	 viewBox="0 0 285.85 219.2" style="enable-background:new 0 0 285.85 219.2;" xml:space="preserve">
<style type="text/css">
	.st0{clip-path:url(#SVGID_4_);}
	.st1{fill:none;stroke:#010101;stroke-miterlimit:10;}
	.st2{fill:none;stroke:#010101;stroke-width:3;stroke-miterlimit:10;}
	.st3{clip-path:url(#SVGID_5_);}
	.st4{clip-path:url(#SVGID_6_);}
</style>
<g id="Layer_9">
	<g id="Layer_10">
		<g>
			<g>
				<defs>
					<polygon id="SVGID_2_" points="142.94,207.68 126.15,190.9 107.27,207.68 90.48,190.39 71.06,207.68 29.1,165.21 47.13,147.26 
						29.1,127.44 46.95,109.61 29.1,91.77 46.42,71.84 29.1,54.02 71.06,11.52 90.48,28.84 107.27,11.52 126.15,28.31 143.44,12.06 
						159.72,28.31 178.58,11.52 195.37,28.84 214.79,11.52 256.75,54.02 239.43,71.84 256.75,91.77 238.9,109.61 256.75,127.44 
						238.72,147.26 256.75,165.21 214.79,207.68 195.37,190.39 178.58,207.68 159.72,190.9 					"/>
				</defs>
				<clipPath id="SVGID_4_">
					<use xlink:href="#SVGID_2_"  style="overflow:visible;"/>
				</clipPath>
				<g class="st0">
					<line class="st1" x1="159.21" y1="-75.59" x2="-48.2" y2="131.85"/>
					<line class="st1" x1="168.6" y1="-66.21" x2="-38.84" y2="141.23"/>
					<line class="st1" x1="177.98" y1="-56.83" x2="-29.46" y2="150.59"/>
					<line class="st1" x1="187.33" y1="-47.47" x2="-20.08" y2="159.97"/>
					<line class="st1" x1="196.71" y1="-38.09" x2="-10.73" y2="169.35"/>
					<line class="st1" x1="206.09" y1="-28.71" x2="-1.35" y2="178.7"/>
					<line class="st1" x1="215.47" y1="-19.36" x2="8.03" y2="188.08"/>
					<line class="st1" x1="224.83" y1="-9.98" x2="17.41" y2="197.46"/>
					<line class="st1" x1="234.21" y1="-0.6" x2="26.77" y2="206.82"/>
					<line class="st1" x1="243.59" y1="8.76" x2="36.15" y2="216.2"/>
					<line class="st1" x1="252.94" y1="18.14" x2="45.53" y2="225.58"/>
					<line class="st1" x1="262.33" y1="27.52" x2="54.89" y2="234.96"/>
					<line class="st1" x1="271.71" y1="36.9" x2="64.27" y2="244.32"/>
					<line class="st1" x1="281.06" y1="46.26" x2="73.65" y2="253.7"/>
					<line class="st1" x1="290.44" y1="55.64" x2="83" y2="263.08"/>
					<line class="st1" x1="299.82" y1="65.02" x2="92.38" y2="272.43"/>
					<line class="st1" x1="309.18" y1="74.37" x2="101.76" y2="281.81"/>
					<line class="st1" x1="318.56" y1="83.75" x2="111.14" y2="291.19"/>
				</g>
			</g>
		</g>
		<polygon class="st2" points="142.94,207.68 126.15,190.9 107.27,207.68 90.48,190.39 71.06,207.68 29.1,165.21 47.13,147.26 
			29.1,127.44 46.95,109.61 29.1,91.77 46.42,71.84 29.1,54.02 71.06,11.52 90.48,28.84 107.27,11.52 126.15,28.31 143.44,12.06 
			159.72,28.31 178.58,11.52 195.37,28.84 214.79,11.52 256.75,54.02 239.43,71.84 256.75,91.77 238.9,109.61 256.75,127.44 
			238.72,147.26 256.75,165.21 214.79,207.68 195.37,190.39 178.58,207.68 159.72,190.9 		"/>
		<g>
			<g>
				<defs>
					<polygon id="SVGID_3_" points="142.94,206.68 126.15,189.9 107.27,206.68 90.48,189.39 71.06,206.68 29.1,164.21 47.13,146.26 
						29.1,126.44 46.95,108.61 29.1,90.77 46.42,70.84 29.1,53.02 71.06,10.52 90.48,27.84 107.27,10.52 126.15,27.31 143.44,11.06 
						159.72,27.31 178.58,10.52 195.37,27.84 214.79,10.52 256.75,53.02 239.43,70.84 256.75,90.77 238.9,108.61 256.75,126.44 
						238.72,146.26 256.75,164.21 214.79,206.68 195.37,189.39 178.58,206.68 159.72,189.9 					"/>
				</defs>
				<clipPath id="SVGID_5_">
					<use xlink:href="#SVGID_3_"  style="overflow:visible;"/>
				</clipPath>
				<g class="st3">
					<line class="st1" x1="159.21" y1="-76.59" x2="-48.2" y2="130.85"/>
					<line class="st1" x1="168.6" y1="-67.21" x2="-38.84" y2="140.23"/>
					<line class="st1" x1="177.98" y1="-57.83" x2="-29.46" y2="149.59"/>
					<line class="st1" x1="187.33" y1="-48.47" x2="-20.08" y2="158.97"/>
					<line class="st1" x1="196.71" y1="-39.09" x2="-10.73" y2="168.35"/>
					<line class="st1" x1="206.09" y1="-29.71" x2="-1.35" y2="177.7"/>
					<line class="st1" x1="215.47" y1="-20.36" x2="8.03" y2="187.08"/>
					<line class="st1" x1="224.83" y1="-10.98" x2="17.41" y2="196.46"/>
					<line class="st1" x1="234.21" y1="-1.6" x2="26.77" y2="205.82"/>
					<line class="st1" x1="243.59" y1="7.76" x2="36.15" y2="215.2"/>
					<line class="st1" x1="252.94" y1="17.14" x2="45.53" y2="224.58"/>
					<line class="st1" x1="262.33" y1="26.52" x2="54.89" y2="233.96"/>
					<line class="st1" x1="271.71" y1="35.9" x2="64.27" y2="243.32"/>
					<line class="st1" x1="281.06" y1="45.26" x2="73.65" y2="252.7"/>
					<line class="st1" x1="290.44" y1="54.64" x2="83" y2="262.08"/>
					<line class="st1" x1="299.82" y1="64.02" x2="92.38" y2="271.43"/>
					<line class="st1" x1="309.18" y1="73.37" x2="101.76" y2="280.81"/>
					<line class="st1" x1="318.56" y1="82.75" x2="111.14" y2="290.19"/>
				</g>
			</g>
		</g>
		<g>
			<g>
				<defs>
					<polygon id="SVGID_1_" points="142.94,205.68 126.15,188.9 107.27,205.68 90.48,188.39 71.06,205.68 29.1,163.21 47.13,145.26 
						29.1,125.44 46.95,107.61 29.1,89.77 46.42,69.84 29.1,52.02 71.06,9.52 90.48,26.84 107.27,9.52 126.15,26.31 143.44,10.06 
						159.72,26.31 178.58,9.52 195.37,26.84 214.79,9.52 256.75,52.02 239.43,69.84 256.75,89.77 238.9,107.61 256.75,125.44 
						238.72,145.26 256.75,163.21 214.79,205.68 195.37,188.39 178.58,205.68 159.72,188.9 					"/>
				</defs>
				<clipPath id="SVGID_6_">
					<use xlink:href="#SVGID_1_"  style="overflow:visible;"/>
				</clipPath>
				<g class="st4">
					<line class="st1" x1="159.21" y1="-77.59" x2="-48.2" y2="129.85"/>
					<line class="st1" x1="168.6" y1="-68.21" x2="-38.84" y2="139.23"/>
					<line class="st1" x1="177.98" y1="-58.83" x2="-29.46" y2="148.59"/>
					<line class="st1" x1="187.33" y1="-49.47" x2="-20.08" y2="157.97"/>
					<line class="st1" x1="196.71" y1="-40.09" x2="-10.73" y2="167.35"/>
					<line class="st1" x1="206.09" y1="-30.71" x2="-1.35" y2="176.7"/>
					<line class="st1" x1="215.47" y1="-21.36" x2="8.03" y2="186.08"/>
					<line class="st1" x1="224.83" y1="-11.98" x2="17.41" y2="195.46"/>
					<line class="st1" x1="234.21" y1="-2.6" x2="26.77" y2="204.82"/>
					<line class="st1" x1="243.59" y1="6.76" x2="36.15" y2="214.2"/>
					<line class="st1" x1="252.94" y1="16.14" x2="45.53" y2="223.58"/>
					<line class="st1" x1="262.33" y1="25.52" x2="54.89" y2="232.96"/>
					<line class="st1" x1="271.71" y1="34.9" x2="64.27" y2="242.32"/>
					<line class="st1" x1="281.06" y1="44.26" x2="73.65" y2="251.7"/>
					<line class="st1" x1="290.44" y1="53.64" x2="83" y2="261.08"/>
					<line class="st1" x1="299.82" y1="63.02" x2="92.38" y2="270.43"/>
					<line class="st1" x1="309.18" y1="72.37" x2="101.76" y2="279.81"/>
					<line class="st1" x1="318.56" y1="81.75" x2="111.14" y2="289.19"/>
				</g>
			</g>
		</g>
	</g>
</g>
</svg>
