<?xml version="1.0" encoding="utf-8"?>
<!-- Generator: Adobe Illustrator 24.3.0, SVG Export Plug-In . SVG Version: 6.00 Build 0)  -->
<svg version="1.1" id="Layer_1" xmlns="http://www.w3.org/2000/svg" xmlns:xlink="http://www.w3.org/1999/xlink" x="0px" y="0px"
	 viewBox="0 0 253 280.6" style="enable-background:new 0 0 253 280.6;" xml:space="preserve">
<style type="text/css">
	.st0{clip-path:url(#SVGID_2_);}
	.st1{clip-path:url(#SVGID_4_);}
	.st2{clip-path:url(#SVGID_6_);fill:url(#SVGID_7_);}
	.st3{clip-path:url(#SVGID_9_);}
	.st4{clip-path:url(#SVGID_11_);}
	.st5{clip-path:url(#SVGID_13_);}
	.st6{clip-path:url(#SVGID_15_);fill-rule:evenodd;clip-rule:evenodd;fill:#8F8F8F;}
	.st7{clip-path:url(#SVGID_17_);}
	.st8{clip-path:url(#SVGID_19_);}
	.st9{clip-path:url(#SVGID_21_);}
	.st10{clip-path:url(#SVGID_23_);fill-rule:evenodd;clip-rule:evenodd;fill:#8F8F8F;}
	.st11{clip-path:url(#SVGID_25_);}
	.st12{clip-path:url(#SVGID_27_);}
	.st13{clip-path:url(#SVGID_29_);}
	.st14{clip-path:url(#SVGID_31_);}
	.st15{clip-path:url(#SVGID_33_);}
	.st16{clip-path:url(#SVGID_35_);}
	.st17{clip-path:url(#SVGID_37_);}
	.st18{clip-path:url(#SVGID_39_);}
	.st19{clip-path:url(#SVGID_41_);}
	.st20{clip-path:url(#SVGID_43_);}
	
		.st21{clip-path:url(#SVGID_45_);fill:none;stroke:#000000;stroke-width:2.0826;stroke-linecap:round;stroke-linejoin:round;stroke-miterlimit:10;}
	
		.st22{clip-path:url(#SVGID_47_);fill:none;stroke:#000000;stroke-width:2;stroke-linecap:round;stroke-linejoin:round;stroke-miterlimit:10;}
	.st23{clip-path:url(#SVGID_49_);fill-rule:evenodd;clip-rule:evenodd;fill:#959595;}
	
		.st24{clip-path:url(#SVGID_51_);fill:none;stroke:#000000;stroke-width:0.6098;stroke-linecap:round;stroke-linejoin:round;stroke-miterlimit:10;}
	.st25{clip-path:url(#SVGID_53_);}
	.st26{clip-path:url(#SVGID_55_);}
	.st27{clip-path:url(#SVGID_57_);}
	
		.st28{clip-path:url(#SVGID_59_);fill:none;stroke:#000000;stroke-width:0.6097;stroke-linecap:round;stroke-linejoin:round;stroke-miterlimit:10;}
	.st29{clip-path:url(#SVGID_61_);fill-rule:evenodd;clip-rule:evenodd;fill:#959595;}
	
		.st30{clip-path:url(#SVGID_63_);fill:none;stroke:#000000;stroke-width:0.6098;stroke-linecap:round;stroke-linejoin:round;stroke-miterlimit:10;}
	.st31{clip-path:url(#SVGID_65_);}
	.st32{clip-path:url(#SVGID_67_);}
	.st33{clip-path:url(#SVGID_69_);}
	
		.st34{clip-path:url(#SVGID_71_);fill:none;stroke:#000000;stroke-width:0.6097;stroke-linecap:round;stroke-linejoin:round;stroke-miterlimit:10;}
	.st35{clip-path:url(#SVGID_73_);fill-rule:evenodd;clip-rule:evenodd;fill:#959595;}
	
		.st36{clip-path:url(#SVGID_75_);fill:none;stroke:#000000;stroke-width:0.6098;stroke-linecap:round;stroke-linejoin:round;stroke-miterlimit:10;}
	.st37{clip-path:url(#SVGID_77_);}
	.st38{clip-path:url(#SVGID_79_);}
	.st39{clip-path:url(#SVGID_81_);}
	
		.st40{clip-path:url(#SVGID_83_);fill:none;stroke:#000000;stroke-width:0.6097;stroke-linecap:round;stroke-linejoin:round;stroke-miterlimit:10;}
	.st41{clip-path:url(#SVGID_85_);fill-rule:evenodd;clip-rule:evenodd;fill:#959595;}
	
		.st42{clip-path:url(#SVGID_87_);fill:none;stroke:#000000;stroke-width:0.6098;stroke-linecap:round;stroke-linejoin:round;stroke-miterlimit:10;}
	.st43{clip-path:url(#SVGID_89_);}
	.st44{clip-path:url(#SVGID_91_);}
	.st45{clip-path:url(#SVGID_93_);}
	
		.st46{clip-path:url(#SVGID_95_);fill:none;stroke:#000000;stroke-width:0.6097;stroke-linecap:round;stroke-linejoin:round;stroke-miterlimit:10;}
	
		.st47{clip-path:url(#SVGID_97_);fill:none;stroke:#000000;stroke-width:2;stroke-linecap:round;stroke-linejoin:round;stroke-miterlimit:10;}
	.st48{clip-path:url(#SVGID_99_);fill-rule:evenodd;clip-rule:evenodd;}
	
		.st49{clip-path:url(#SVGID_101_);fill:none;stroke:#000000;stroke-width:2;stroke-linecap:round;stroke-linejoin:round;stroke-miterlimit:10;}
	
		.st50{clip-path:url(#SVGID_103_);fill:none;stroke:#000000;stroke-width:2.0812;stroke-linecap:round;stroke-linejoin:round;stroke-miterlimit:10;}
	
		.st51{clip-path:url(#SVGID_105_);fill:none;stroke:#000000;stroke-width:2.0812;stroke-linecap:round;stroke-linejoin:round;stroke-miterlimit:10;}
	.st52{clip-path:url(#SVGID_107_);fill-rule:evenodd;clip-rule:evenodd;fill:#FFFFFF;}
	.st53{clip-path:url(#SVGID_109_);}
	.st54{clip-path:url(#SVGID_111_);}
	.st55{clip-path:url(#SVGID_113_);}
	.st56{clip-path:url(#SVGID_115_);}
	
		.st57{clip-path:url(#SVGID_117_);fill:none;stroke:#000000;stroke-width:2.0826;stroke-linecap:round;stroke-linejoin:round;stroke-miterlimit:10;}
	
		.st58{clip-path:url(#SVGID_119_);fill:none;stroke:#000000;stroke-width:2.0826;stroke-linecap:round;stroke-linejoin:round;stroke-miterlimit:10;}
	
		.st59{clip-path:url(#SVGID_121_);fill:none;stroke:#000000;stroke-width:2.0826;stroke-linecap:round;stroke-linejoin:round;stroke-miterlimit:10;}
	
		.st60{clip-path:url(#SVGID_123_);fill:none;stroke:#000000;stroke-width:2.0812;stroke-linecap:round;stroke-linejoin:round;stroke-miterlimit:10;}
	
		.st61{clip-path:url(#SVGID_125_);fill:none;stroke:#000000;stroke-width:2.0826;stroke-linecap:round;stroke-linejoin:round;stroke-miterlimit:10;}
	
		.st62{clip-path:url(#SVGID_127_);fill:none;stroke:#000000;stroke-width:2.0832;stroke-linecap:round;stroke-linejoin:round;stroke-miterlimit:10;}
	
		.st63{clip-path:url(#SVGID_129_);fill:none;stroke:#000000;stroke-width:2.0832;stroke-linecap:round;stroke-linejoin:round;stroke-miterlimit:10;}
</style>
<g>
	<g>
		<defs>
			<rect id="SVGID_1_" x="-66" y="1.8" width="385" height="427"/>
		</defs>
		<clipPath id="SVGID_2_">
			<use xlink:href="#SVGID_1_"  style="overflow:visible;"/>
		</clipPath>
		<g class="st0">
			<g>
				<defs>
					<rect id="SVGID_3_" x="-66" y="1.8" width="385" height="427"/>
				</defs>
				<clipPath id="SVGID_4_">
					<use xlink:href="#SVGID_3_"  style="overflow:visible;"/>
				</clipPath>
				<g class="st1">
					<g>
						<defs>
							<path id="SVGID_5_" d="M73.9,30.9c0,0-63,30.2-65.8,33.7c0,0-11.6,10.6-34.9,99.4c-9.2,35-13.3,67.4-16.4,77
								c-9.9,30.8-19.4,108.8-20.7,125.1c-0.2,2,2.4,3.3,2.4,3.3l-3,20.3c0,0,14.3,13.2,34.8,5.3l2.2-21.8c0,0,2.1,1.2,2.8-1.3
								c3-10.6,12.5-41.4,19.4-70.9c4.1-17.6,5.4-40.7,7.5-47.7c4-13.3,8.4-24.4,12.2-38.5c3.9-14.6,9.4-32.7,11.1-42.9
								c0,0,3,51.1,5.7,84c1.9,23.1-9.1,54.6-12.1,77c-4.6,34.1-9.9,56.1-9.5,61.7c0,0,27.6,7.8,45.3,19.2c0,0,20,14.4,71.7,13.5
								c0,0,33.8,1.3,62.8-9.4c0,0,36.6-19.3,53.6-21.9c3.3-0.5,0.2-22.2-6.8-54.9c-5.4-25.3-17-49.8-13-88.1
								c2.4-23.1,4.3-56,5.3-84.2c0,0,10,34.2,14,46.4c4.4,13.4,6.6,23,8.9,34.7c2.5,12.9,5.2,38.3,6.2,42.7
								c10.9,47.9,20.4,87.6,20.4,87.6l3.5,2.8l1.6,14.6c3.9,2.7,9.7,3.7,16,2.9c5.6-0.8,11.7-3,17.2-6.9l-1.8-15.6l2.7-3.3
								c0,0-7.4-87-20.1-135.8c-3-11.6-7.1-39.4-16.5-80.5c-13-56.8-24.7-75.9-33.8-90.6l-1.5-2.7l-66-34.1l-24.2-0.7L73.9,30.9z"/>
						</defs>
						<clipPath id="SVGID_6_">
							<use xlink:href="#SVGID_5_"  style="overflow:visible;"/>
						</clipPath>
						
							<linearGradient id="SVGID_7_" gradientUnits="userSpaceOnUse" x1="-1024.0334" y1="-92.5119" x2="-1022.5118" y2="-92.5119" gradientTransform="matrix(-367.285 1.2352 -1.2352 -367.285 -375837.625 -32483.6953)">
							<stop  offset="0" style="stop-color:#B3B4B4"/>
							<stop  offset="0.2" style="stop-color:#F2F1F1"/>
							<stop  offset="0.48" style="stop-color:#FFFFFF"/>
							<stop  offset="1" style="stop-color:#B3B4B4"/>
						</linearGradient>
						<polygon class="st2" points="318.8,429.6 -64.4,430.9 -65.7,31.5 317.4,30.2 						"/>
					</g>
				</g>
			</g>
			<g>
				<defs>
					<rect id="SVGID_8_" x="-66" y="1.8" width="385" height="427"/>
				</defs>
				<clipPath id="SVGID_9_">
					<use xlink:href="#SVGID_8_"  style="overflow:visible;"/>
				</clipPath>
				<g class="st3">
					<g>
						<defs>
							<path id="SVGID_10_" d="M73.9,30.9c0,0-63,30.2-65.8,33.7c0,0-11.6,10.6-34.9,99.4c-9.2,35-13.3,67.4-16.4,77
								c-9.9,30.8-19.4,108.8-20.7,125.1c-0.2,2,2.4,3.3,2.4,3.3l-3,20.3c0,0,14.3,13.2,34.8,5.3l2.2-21.8c0,0,2.1,1.2,2.8-1.3
								c3-10.6,12.5-41.4,19.4-70.9c4.1-17.6,5.4-40.7,7.5-47.7c4-13.3,8.4-24.4,12.2-38.5c3.9-14.6,9.4-32.7,11.1-42.9
								c0,0,3,51.1,5.7,84c1.9,23.1-9.1,54.6-12.1,77c-4.6,34.1-9.9,56.1-9.5,61.7c0,0,27.6,7.8,45.3,19.2c0,0,20,14.4,71.7,13.5
								c0,0,33.8,1.3,62.8-9.4c0,0,36.6-19.3,53.6-21.9c3.3-0.5,0.2-22.2-6.8-54.9c-5.4-25.3-17-49.8-13-88.1
								c2.4-23.1,4.3-56,5.3-84.2c0,0,10,34.2,14,46.4c4.4,13.4,6.6,23,8.9,34.7c2.5,12.9,5.2,38.3,6.2,42.7
								c10.9,47.9,20.4,87.6,20.4,87.6l3.5,2.8l1.6,14.6c3.9,2.7,9.7,3.7,16,2.9c5.6-0.8,11.7-3,17.2-6.9l-1.8-15.6l2.7-3.3
								c0,0-7.4-87-20.1-135.8c-3-11.6-7.1-39.4-16.5-80.5c-13-56.8-24.7-75.9-33.8-90.6l-1.5-2.7l-66-34.1l-24.2-0.7L73.9,30.9z"/>
						</defs>
						<clipPath id="SVGID_11_">
							<use xlink:href="#SVGID_10_"  style="overflow:visible;"/>
						</clipPath>
						<g class="st4">
							<g>
								<defs>
									<rect id="SVGID_12_" x="9.4" y="393.1" width="235.9" height="35"/>
								</defs>
								<clipPath id="SVGID_13_">
									<use xlink:href="#SVGID_12_"  style="overflow:visible;"/>
								</clipPath>
								<g class="st5">
									
										<image style="overflow:visible;enable-background:new    ;" width="156" height="24" xlink:href="A53BCFF2.png"  transform="matrix(1.4583 0 0 1.4583 13.5872 393.0839)">
									</image>
								</g>
							</g>
						</g>
					</g>
					<g>
						<defs>
							<path id="SVGID_14_" d="M73.9,30.9c0,0-63,30.2-65.8,33.7c0,0-11.6,10.6-34.9,99.4c-9.2,35-13.3,67.4-16.4,77
								c-9.9,30.8-19.4,108.8-20.7,125.1c-0.2,2,2.4,3.3,2.4,3.3l-3,20.3c0,0,14.3,13.2,34.8,5.3l2.2-21.8c0,0,2.1,1.2,2.8-1.3
								c3-10.6,12.5-41.4,19.4-70.9c4.1-17.6,5.4-40.7,7.5-47.7c4-13.3,8.4-24.4,12.2-38.5c3.9-14.6,9.4-32.7,11.1-42.9
								c0,0,3,51.1,5.7,84c1.9,23.1-9.1,54.6-12.1,77c-4.6,34.1-9.9,56.1-9.5,61.7c0,0,27.6,7.8,45.3,19.2c0,0,20,14.4,71.7,13.5
								c0,0,33.8,1.3,62.8-9.4c0,0,36.6-19.3,53.6-21.9c3.3-0.5,0.2-22.2-6.8-54.9c-5.4-25.3-17-49.8-13-88.1
								c2.4-23.1,4.3-56,5.3-84.2c0,0,10,34.2,14,46.4c4.4,13.4,6.6,23,8.9,34.7c2.5,12.9,5.2,38.3,6.2,42.7
								c10.9,47.9,20.4,87.6,20.4,87.6l3.5,2.8l1.6,14.6c3.9,2.7,9.7,3.7,16,2.9c5.6-0.8,11.7-3,17.2-6.9l-1.8-15.6l2.7-3.3
								c0,0-7.4-87-20.1-135.8c-3-11.6-7.1-39.4-16.5-80.5c-13-56.8-24.7-75.9-33.8-90.6l-1.5-2.7l-66-34.1l-24.2-0.7L73.9,30.9z"/>
						</defs>
						<clipPath id="SVGID_15_">
							<use xlink:href="#SVGID_14_"  style="overflow:visible;"/>
						</clipPath>
						<path class="st6" d="M-66.1,395.4c0.3-0.5-3.1-5.6,3.3-7.4c6.1-1.7,17.3-2.4,29,1.8c1.1,0.4,9.2,8.7,4.8,10.2
							c0,0,2.1,11.5-10.2,10.5C-51.5,409.6-64.6,401.3-66.1,395.4z"/>
					</g>
					<g>
						<defs>
							<path id="SVGID_16_" d="M73.9,30.9c0,0-63,30.2-65.8,33.7c0,0-11.6,10.6-34.9,99.4c-9.2,35-13.3,67.4-16.4,77
								c-9.9,30.8-19.4,108.8-20.7,125.1c-0.2,2,2.4,3.3,2.4,3.3l-3,20.3c0,0,14.3,13.2,34.8,5.3l2.2-21.8c0,0,2.1,1.2,2.8-1.3
								c3-10.6,12.5-41.4,19.4-70.9c4.1-17.6,5.4-40.7,7.5-47.7c4-13.3,8.4-24.4,12.2-38.5c3.9-14.6,9.4-32.7,11.1-42.9
								c0,0,3,51.1,5.7,84c1.9,23.1-9.1,54.6-12.1,77c-4.6,34.1-9.9,56.1-9.5,61.7c0,0,27.6,7.8,45.3,19.2c0,0,20,14.4,71.7,13.5
								c0,0,33.8,1.3,62.8-9.4c0,0,36.6-19.3,53.6-21.9c3.3-0.5,0.2-22.2-6.8-54.9c-5.4-25.3-17-49.8-13-88.1
								c2.4-23.1,4.3-56,5.3-84.2c0,0,10,34.2,14,46.4c4.4,13.4,6.6,23,8.9,34.7c2.5,12.9,5.2,38.3,6.2,42.7
								c10.9,47.9,20.4,87.6,20.4,87.6l3.5,2.8l1.6,14.6c3.9,2.7,9.7,3.7,16,2.9c5.6-0.8,11.7-3,17.2-6.9l-1.8-15.6l2.7-3.3
								c0,0-7.4-87-20.1-135.8c-3-11.6-7.1-39.4-16.5-80.5c-13-56.8-24.7-75.9-33.8-90.6l-1.5-2.7l-66-34.1l-24.2-0.7L73.9,30.9z"/>
						</defs>
						<clipPath id="SVGID_17_">
							<use xlink:href="#SVGID_16_"  style="overflow:visible;"/>
						</clipPath>
						<g class="st7">
							<g>
								<defs>
									<path id="SVGID_18_" d="M280.5,382.4c0,0,14.8-16.4,36.2-3.2l3.5,14.8c0,0-12.8-10.4-43,4.3L280.5,382.4z"/>
								</defs>
								<clipPath id="SVGID_19_">
									<use xlink:href="#SVGID_18_"  style="overflow:visible;"/>
								</clipPath>
								<g class="st8">
									<g>
										<defs>
											<rect id="SVGID_20_" x="278.8" y="374" width="39.6" height="24.3"/>
										</defs>
										<clipPath id="SVGID_21_">
											<use xlink:href="#SVGID_20_"  style="overflow:visible;"/>
										</clipPath>
										<g class="st9">
											
												<image style="overflow:visible;enable-background:new    ;" width="27" height="17" xlink:href="A53BCFF6.png"  transform="matrix(1.4322 0 0 1.4322 279.2763 374.0464)">
											</image>
										</g>
									</g>
								</g>
							</g>
						</g>
					</g>
					<g>
						<defs>
							<path id="SVGID_22_" d="M73.9,30.9c0,0-63,30.2-65.8,33.7c0,0-11.6,10.6-34.9,99.4c-9.2,35-13.3,67.4-16.4,77
								c-9.9,30.8-19.4,108.8-20.7,125.1c-0.2,2,2.4,3.3,2.4,3.3l-3,20.3c0,0,14.3,13.2,34.8,5.3l2.2-21.8c0,0,2.1,1.2,2.8-1.3
								c3-10.6,12.5-41.4,19.4-70.9c4.1-17.6,5.4-40.7,7.5-47.7c4-13.3,8.4-24.4,12.2-38.5c3.9-14.6,9.4-32.7,11.1-42.9
								c0,0,3,51.1,5.7,84c1.9,23.1-9.1,54.6-12.1,77c-4.6,34.1-9.9,56.1-9.5,61.7c0,0,27.6,7.8,45.3,19.2c0,0,20,14.4,71.7,13.5
								c0,0,33.8,1.3,62.8-9.4c0,0,36.6-19.3,53.6-21.9c3.3-0.5,0.2-22.2-6.8-54.9c-5.4-25.3-17-49.8-13-88.1
								c2.4-23.1,4.3-56,5.3-84.2c0,0,10,34.2,14,46.4c4.4,13.4,6.6,23,8.9,34.7c2.5,12.9,5.2,38.3,6.2,42.7
								c10.9,47.9,20.4,87.6,20.4,87.6l3.5,2.8l1.6,14.6c3.9,2.7,9.7,3.7,16,2.9c5.6-0.8,11.7-3,17.2-6.9l-1.8-15.6l2.7-3.3
								c0,0-7.4-87-20.1-135.8c-3-11.6-7.1-39.4-16.5-80.5c-13-56.8-24.7-75.9-33.8-90.6l-1.5-2.7l-66-34.1l-24.2-0.7L73.9,30.9z"/>
						</defs>
						<clipPath id="SVGID_23_">
							<use xlink:href="#SVGID_22_"  style="overflow:visible;"/>
						</clipPath>
						<path class="st10" d="M282.9,407.5c0.2-0.6-3.8-9.6,2.1-12.5c5.6-2.8,16.5-5.7,28.8-3.8c1.2,0.2,11.5,2.4,7.4,4.6
							c0,0,3.2,19.9-9,21.4C299.9,418.6,285.5,412.9,282.9,407.5z"/>
					</g>
					<g>
						<defs>
							<path id="SVGID_24_" d="M73.9,30.9c0,0-63,30.2-65.8,33.7c0,0-11.6,10.6-34.9,99.4c-9.2,35-13.3,67.4-16.4,77
								c-9.9,30.8-19.4,108.8-20.7,125.1c-0.2,2,2.4,3.3,2.4,3.3l-3,20.3c0,0,14.3,13.2,34.8,5.3l2.2-21.8c0,0,2.1,1.2,2.8-1.3
								c3-10.6,12.5-41.4,19.4-70.9c4.1-17.6,5.4-40.7,7.5-47.7c4-13.3,8.4-24.4,12.2-38.5c3.9-14.6,9.4-32.7,11.1-42.9
								c0,0,3,51.1,5.7,84c1.9,23.1-9.1,54.6-12.1,77c-4.6,34.1-9.9,56.1-9.5,61.7c0,0,27.6,7.8,45.3,19.2c0,0,20,14.4,71.7,13.5
								c0,0,33.8,1.3,62.8-9.4c0,0,36.6-19.3,53.6-21.9c3.3-0.5,0.2-22.2-6.8-54.9c-5.4-25.3-17-49.8-13-88.1
								c2.4-23.1,4.3-56,5.3-84.2c0,0,10,34.2,14,46.4c4.4,13.4,6.6,23,8.9,34.7c2.5,12.9,5.2,38.3,6.2,42.7
								c10.9,47.9,20.4,87.6,20.4,87.6l3.5,2.8l1.6,14.6c3.9,2.7,9.7,3.7,16,2.9c5.6-0.8,11.7-3,17.2-6.9l-1.8-15.6l2.7-3.3
								c0,0-7.4-87-20.1-135.8c-3-11.6-7.1-39.4-16.5-80.5c-13-56.8-24.7-75.9-33.8-90.6l-1.5-2.7l-66-34.1l-24.2-0.7L73.9,30.9z"/>
						</defs>
						<clipPath id="SVGID_25_">
							<use xlink:href="#SVGID_24_"  style="overflow:visible;"/>
						</clipPath>
						<g class="st11">
							<g>
								<defs>
									<path id="SVGID_26_" d="M21.2,104.7c0,0-1.2,51.8-3.2,59c-1.4,5.1-9.7,35.4-16.5,56c-0.5,1.4-1.7,2.7-1.5,4
										c1.5,9.2-2.6,12.1-6.4,13.5c0,0,4.1,2.7,0.1,4.3c-1.7,0.7-19.6,0.3-22.3,2.7c-1.7,1.6,29.3,0,9.1,4.4c2.8,1.8,7.5,2,13,1.5
										c0,0-16.9,12.1-5.7,13.1c0,0-5.8,12.2-7.3,15.2c-4.9,9.5-17.8,80.7-19.1,86.3c-0.2,1.1-2.5,2.2-2.8,3.4
										c-1.4,6.8-0.7,15.4-0.7,15.4l13.4,14.7c0,0,5.9-12.2,7.1-13.1c1.2-0.9,30.6-102.4,30.6-102.4l9-75.6l7.6-41.5l-1-27.2
										L21.2,104.7z"/>
								</defs>
								<clipPath id="SVGID_27_">
									<use xlink:href="#SVGID_26_"  style="overflow:visible;"/>
								</clipPath>
								<g class="st12">
									<g>
										<defs>
											<rect id="SVGID_28_" x="-42.2" y="104.7" width="68.5" height="293.7"/>
										</defs>
										<clipPath id="SVGID_29_">
											<use xlink:href="#SVGID_28_"  style="overflow:visible;"/>
										</clipPath>
										<g class="st13">
											
												<image style="overflow:visible;enable-background:new    ;" width="46" height="194" xlink:href="A53BCFF1.png"  transform="matrix(1.4886 0 0 1.4886 -42.1791 107.1162)">
											</image>
										</g>
									</g>
								</g>
							</g>
						</g>
					</g>
					<g>
						<defs>
							<path id="SVGID_30_" d="M73.9,30.9c0,0-63,30.2-65.8,33.7c0,0-11.6,10.6-34.9,99.4c-9.2,35-13.3,67.4-16.4,77
								c-9.9,30.8-19.4,108.8-20.7,125.1c-0.2,2,2.4,3.3,2.4,3.3l-3,20.3c0,0,14.3,13.2,34.8,5.3l2.2-21.8c0,0,2.1,1.2,2.8-1.3
								c3-10.6,12.5-41.4,19.4-70.9c4.1-17.6,5.4-40.7,7.5-47.7c4-13.3,8.4-24.4,12.2-38.5c3.9-14.6,9.4-32.7,11.1-42.9
								c0,0,3,51.1,5.7,84c1.9,23.1-9.1,54.6-12.1,77c-4.6,34.1-9.9,56.1-9.5,61.7c0,0,27.6,7.8,45.3,19.2c0,0,20,14.4,71.7,13.5
								c0,0,33.8,1.3,62.8-9.4c0,0,36.6-19.3,53.6-21.9c3.3-0.5,0.2-22.2-6.8-54.9c-5.4-25.3-17-49.8-13-88.1
								c2.4-23.1,4.3-56,5.3-84.2c0,0,10,34.2,14,46.4c4.4,13.4,6.6,23,8.9,34.7c2.5,12.9,5.2,38.3,6.2,42.7
								c10.9,47.9,20.4,87.6,20.4,87.6l3.5,2.8l1.6,14.6c3.9,2.7,9.7,3.7,16,2.9c5.6-0.8,11.7-3,17.2-6.9l-1.8-15.6l2.7-3.3
								c0,0-7.4-87-20.1-135.8c-3-11.6-7.1-39.4-16.5-80.5c-13-56.8-24.7-75.9-33.8-90.6l-1.5-2.7l-66-34.1l-24.2-0.7L73.9,30.9z"/>
						</defs>
						<clipPath id="SVGID_31_">
							<use xlink:href="#SVGID_30_"  style="overflow:visible;"/>
						</clipPath>
						<g class="st14">
							<g>
								<defs>
									<path id="SVGID_32_" d="M234,104.7c0,0,1.2,51.8,3.2,59c1.4,5.1,9.7,35.4,16.5,56c0.5,1.4,1.7,2.7,1.5,4
										c-1.5,9.2,2.6,12.1,6.4,13.5c0,0-4.1,2.7-0.1,4.3c1.7,0.7,19.6,0.3,22.3,2.7c1.7,1.6-29.3,0-9.1,4.4c-2.8,1.8-7.5,2-13,1.5
										c0,0,16.9,12.1,5.7,13.1c0,0,5.8,12.2,7.3,15.2c4.9,9.5,17.8,80.7,19.1,86.3c0.2,1.1,2.5,2.2,2.8,3.4
										c1.4,6.8,0.7,15.4,0.7,15.4l-13.4,14.7c0,0-5.9-12.2-7.1-13.1s-30.6-102.4-30.6-102.4l-9-75.6l-8.4-40.4l1.7-28.3
										L234,104.7z"/>
								</defs>
								<clipPath id="SVGID_33_">
									<use xlink:href="#SVGID_32_"  style="overflow:visible;"/>
								</clipPath>
								<g class="st15">
									<g>
										<defs>
											<rect id="SVGID_34_" x="228.7" y="104.7" width="70" height="293.7"/>
										</defs>
										<clipPath id="SVGID_35_">
											<use xlink:href="#SVGID_34_"  style="overflow:visible;"/>
										</clipPath>
										<g class="st16">
											
												<image style="overflow:visible;enable-background:new    ;" width="47" height="194" xlink:href="A53BCFF3.png"  transform="matrix(1.4893 0 0 1.4893 228.7169 107.0479)">
											</image>
										</g>
									</g>
								</g>
							</g>
						</g>
					</g>
					<g>
						<defs>
							<path id="SVGID_36_" d="M73.9,30.9c0,0-63,30.2-65.8,33.7c0,0-11.6,10.6-34.9,99.4c-9.2,35-13.3,67.4-16.4,77
								c-9.9,30.8-19.4,108.8-20.7,125.1c-0.2,2,2.4,3.3,2.4,3.3l-3,20.3c0,0,14.3,13.2,34.8,5.3l2.2-21.8c0,0,2.1,1.2,2.8-1.3
								c3-10.6,12.5-41.4,19.4-70.9c4.1-17.6,5.4-40.7,7.5-47.7c4-13.3,8.4-24.4,12.2-38.5c3.9-14.6,9.4-32.7,11.1-42.9
								c0,0,3,51.1,5.7,84c1.9,23.1-9.1,54.6-12.1,77c-4.6,34.1-9.9,56.1-9.5,61.7c0,0,27.6,7.8,45.3,19.2c0,0,20,14.4,71.7,13.5
								c0,0,33.8,1.3,62.8-9.4c0,0,36.6-19.3,53.6-21.9c3.3-0.5,0.2-22.2-6.8-54.9c-5.4-25.3-17-49.8-13-88.1
								c2.4-23.1,4.3-56,5.3-84.2c0,0,10,34.2,14,46.4c4.4,13.4,6.6,23,8.9,34.7c2.5,12.9,5.2,38.3,6.2,42.7
								c10.9,47.9,20.4,87.6,20.4,87.6l3.5,2.8l1.6,14.6c3.9,2.7,9.7,3.7,16,2.9c5.6-0.8,11.7-3,17.2-6.9l-1.8-15.6l2.7-3.3
								c0,0-7.4-87-20.1-135.8c-3-11.6-7.1-39.4-16.5-80.5c-13-56.8-24.7-75.9-33.8-90.6l-1.5-2.7l-66-34.1l-24.2-0.7L73.9,30.9z"/>
						</defs>
						<clipPath id="SVGID_37_">
							<use xlink:href="#SVGID_36_"  style="overflow:visible;"/>
						</clipPath>
						<g class="st17">
							<g>
								<defs>
									<rect id="SVGID_38_" x="8.4" y="144.8" width="30" height="256"/>
								</defs>
								<clipPath id="SVGID_39_">
									<use xlink:href="#SVGID_38_"  style="overflow:visible;"/>
								</clipPath>
								<g transform="matrix(1 0 0 1 0 0)" class="st18">
									
										<image style="overflow:visible;enable-background:new    ;" width="21" height="171" xlink:href="A53BCFF0.png"  transform="matrix(1.4307 0 0 1.4426 8.3854 149.4001)">
									</image>
								</g>
							</g>
						</g>
					</g>
					<g>
						<defs>
							<path id="SVGID_40_" d="M73.9,30.9c0,0-63,30.2-65.8,33.7c0,0-11.6,10.6-34.9,99.4c-9.2,35-13.3,67.4-16.4,77
								c-9.9,30.8-19.4,108.8-20.7,125.1c-0.2,2,2.4,3.3,2.4,3.3l-3,20.3c0,0,14.3,13.2,34.8,5.3l2.2-21.8c0,0,2.1,1.2,2.8-1.3
								c3-10.6,12.5-41.4,19.4-70.9c4.1-17.6,5.4-40.7,7.5-47.7c4-13.3,8.4-24.4,12.2-38.5c3.9-14.6,9.4-32.7,11.1-42.9
								c0,0,3,51.1,5.7,84c1.9,23.1-9.1,54.6-12.1,77c-4.6,34.1-9.9,56.1-9.5,61.7c0,0,27.6,7.8,45.3,19.2c0,0,20,14.4,71.7,13.5
								c0,0,33.8,1.3,62.8-9.4c0,0,36.6-19.3,53.6-21.9c3.3-0.5,0.2-22.2-6.8-54.9c-5.4-25.3-17-49.8-13-88.1
								c2.4-23.1,4.3-56,5.3-84.2c0,0,10,34.2,14,46.4c4.4,13.4,6.6,23,8.9,34.7c2.5,12.9,5.2,38.3,6.2,42.7
								c10.9,47.9,20.4,87.6,20.4,87.6l3.5,2.8l1.6,14.6c3.9,2.7,9.7,3.7,16,2.9c5.6-0.8,11.7-3,17.2-6.9l-1.8-15.6l2.7-3.3
								c0,0-7.4-87-20.1-135.8c-3-11.6-7.1-39.4-16.5-80.5c-13-56.8-24.7-75.9-33.8-90.6l-1.5-2.7l-66-34.1l-24.2-0.7L73.9,30.9z"/>
						</defs>
						<clipPath id="SVGID_41_">
							<use xlink:href="#SVGID_40_"  style="overflow:visible;"/>
						</clipPath>
						<g class="st19">
							<g>
								<defs>
									<rect id="SVGID_42_" x="215.8" y="146.3" width="28.5" height="254.5"/>
								</defs>
								<clipPath id="SVGID_43_">
									<use xlink:href="#SVGID_42_"  style="overflow:visible;"/>
								</clipPath>
								<g class="st20">
									
										<image style="overflow:visible;enable-background:new    ;" width="19" height="170" xlink:href="A53BCFFE.png"  transform="matrix(1.4845 0 0 1.4969 216.0053 146.2619)">
									</image>
								</g>
							</g>
						</g>
					</g>
				</g>
			</g>
			<g>
				<defs>
					<rect id="SVGID_44_" x="-66" y="1.8" width="385" height="427"/>
				</defs>
				<clipPath id="SVGID_45_">
					<use xlink:href="#SVGID_44_"  style="overflow:visible;"/>
				</clipPath>
				<path class="st21" d="M73.9,30.9c0,0-63,30.2-65.8,33.7c0,0-11.6,10.6-34.9,99.4c-9.2,35-13.3,67.4-16.4,77
					c-9.9,30.8-19.4,108.8-20.7,125.1c-0.2,2,2.4,3.3,2.4,3.3l-3,20.3c0,0,14.3,13.2,34.8,5.3l2.2-21.8c0,0,2.1,1.2,2.8-1.3
					c3-10.6,12.5-41.4,19.4-70.9c4.1-17.6,5.4-40.7,7.5-47.7c4-13.3,8.4-24.4,12.2-38.5c3.9-14.6,9.4-32.7,11.1-42.9
					c0,0,3,51.1,5.7,84c1.9,23.1-9.1,54.6-12.1,77c-4.6,34.1-9.9,56.1-9.5,61.7c0,0,27.6,7.8,45.3,19.2c0,0,20,14.4,71.7,13.5
					c0,0,33.8,1.3,62.8-9.4c0,0,36.6-19.3,53.6-21.9c3.3-0.5,0.2-22.2-6.8-54.9c-5.4-25.3-17-49.8-13-88.1c2.4-23.1,4.3-56,5.3-84.2
					c0,0,10,34.2,14,46.4c4.4,13.4,6.6,23,8.9,34.7c2.5,12.9,5.2,38.3,6.2,42.7c10.9,47.9,20.4,87.6,20.4,87.6l3.5,2.8l1.6,14.6
					c3.9,2.7,9.7,3.7,16,2.9c5.6-0.8,11.7-3,17.2-6.9l-1.8-15.6l2.7-3.3c0,0-7.4-87-20.1-135.8c-3-11.6-7.1-39.4-16.5-80.5
					c-13-56.8-24.7-75.9-33.8-90.6l-1.5-2.7l-66-34.1l-24.2-0.7L73.9,30.9z"/>
			</g>
			<g>
				<defs>
					<rect id="SVGID_46_" x="-66" y="1.8" width="385" height="427"/>
				</defs>
				<clipPath id="SVGID_47_">
					<use xlink:href="#SVGID_46_"  style="overflow:visible;"/>
				</clipPath>
				<path class="st22" d="M133.5,413.3c0,0,5.5-114.5,3.3-152.1c-2.2-37.6-2.9-135.8-1.6-160.7c0,0,3.6-34,6.9-41.9"/>
			</g>
			<g>
				<defs>
					<rect id="SVGID_48_" x="-66" y="1.8" width="385" height="427"/>
				</defs>
				<clipPath id="SVGID_49_">
					<use xlink:href="#SVGID_48_"  style="overflow:visible;"/>
				</clipPath>
				<path class="st23" d="M127.3,176.1c0,0-0.1,3.6,3.7,3.7c0,0,3.1,0,3.4-3.6c0,0-0.9,3.2-3.5,2.9c0,0-1.2,0.1-2.2-0.7
					C128.1,177.9,127.4,177.3,127.3,176.1z"/>
			</g>
			<g>
				<defs>
					<rect id="SVGID_50_" x="-66" y="1.8" width="385" height="427"/>
				</defs>
				<clipPath id="SVGID_51_">
					<use xlink:href="#SVGID_50_"  style="overflow:visible;"/>
				</clipPath>
				<path class="st24" d="M127.3,176.1c0,0-0.1,3.6,3.7,3.7c0,0,3.1,0,3.4-3.6c0,0-0.9,3.2-3.5,2.9c0,0-1.2,0.1-2.2-0.7
					C128.1,177.9,127.4,177.3,127.3,176.1z"/>
			</g>
			<g>
				<defs>
					<rect id="SVGID_52_" x="-66" y="1.8" width="385" height="427"/>
				</defs>
				<clipPath id="SVGID_53_">
					<use xlink:href="#SVGID_52_"  style="overflow:visible;"/>
				</clipPath>
				<g class="st25">
					<g>
						<defs>
							<path id="SVGID_54_" d="M130.7,172.8c1.8,0,3.3,1.4,3.4,3.1c0,1.7-1.4,3.2-3.2,3.2c-1.8,0-3.3-1.3-3.4-3.1
								C127.5,174.3,128.9,172.9,130.7,172.8z"/>
						</defs>
						<clipPath id="SVGID_55_">
							<use xlink:href="#SVGID_54_"  style="overflow:visible;"/>
						</clipPath>
						<g class="st26">
							<g>
								<defs>
									<rect id="SVGID_56_" x="127.5" y="172.8" width="7.6" height="7.6"/>
								</defs>
								<clipPath id="SVGID_57_">
									<use xlink:href="#SVGID_56_"  style="overflow:visible;"/>
								</clipPath>
								<g class="st27">
									
										<image style="overflow:visible;enable-background:new    ;" width="6" height="6" xlink:href="A53BCFFE.jpg"  transform="matrix(1.2681 0 0 1.2681 127.495 172.8335)">
									</image>
								</g>
							</g>
						</g>
					</g>
				</g>
			</g>
			<g>
				<defs>
					<rect id="SVGID_58_" x="-66" y="1.8" width="385" height="427"/>
				</defs>
				<clipPath id="SVGID_59_">
					<use xlink:href="#SVGID_58_"  style="overflow:visible;"/>
				</clipPath>
				<path class="st28" d="M130.7,172.8c1.8,0,3.3,1.4,3.4,3.1c0,1.7-1.4,3.2-3.2,3.2c-1.8,0-3.3-1.3-3.4-3.1
					C127.5,174.3,128.9,172.9,130.7,172.8z"/>
			</g>
			<g>
				<defs>
					<rect id="SVGID_60_" x="-66" y="1.8" width="385" height="427"/>
				</defs>
				<clipPath id="SVGID_61_">
					<use xlink:href="#SVGID_60_"  style="overflow:visible;"/>
				</clipPath>
				<path class="st29" d="M127.7,235.3c0,0-0.1,3.6,3.7,3.7c0,0,3.1,0,3.4-3.6c0,0-0.9,3.2-3.5,2.9c0,0-1.2,0.1-2.2-0.7
					C128.5,237.2,127.9,236.6,127.7,235.3z"/>
			</g>
			<g>
				<defs>
					<rect id="SVGID_62_" x="-66" y="1.8" width="385" height="427"/>
				</defs>
				<clipPath id="SVGID_63_">
					<use xlink:href="#SVGID_62_"  style="overflow:visible;"/>
				</clipPath>
				<path class="st30" d="M127.7,235.3c0,0-0.1,3.6,3.7,3.7c0,0,3.1,0,3.4-3.6c0,0-0.9,3.2-3.5,2.9c0,0-1.2,0.1-2.2-0.7
					C128.5,237.2,127.9,236.6,127.7,235.3z"/>
			</g>
			<g>
				<defs>
					<rect id="SVGID_64_" x="-66" y="1.8" width="385" height="427"/>
				</defs>
				<clipPath id="SVGID_65_">
					<use xlink:href="#SVGID_64_"  style="overflow:visible;"/>
				</clipPath>
				<g class="st31">
					<g>
						<defs>
							<path id="SVGID_66_" d="M131.2,232.1c1.8,0,3.3,1.4,3.3,3.1c0,1.7-1.4,3.2-3.2,3.2c-1.8,0-3.3-1.4-3.4-3.1
								C127.9,233.6,129.4,232.1,131.2,232.1z"/>
						</defs>
						<clipPath id="SVGID_67_">
							<use xlink:href="#SVGID_66_"  style="overflow:visible;"/>
						</clipPath>
						<g class="st32">
							<g>
								<defs>
									<rect id="SVGID_68_" x="128" y="232.1" width="7.6" height="7.6"/>
								</defs>
								<clipPath id="SVGID_69_">
									<use xlink:href="#SVGID_68_"  style="overflow:visible;"/>
								</clipPath>
								<g class="st33">
									
										<image style="overflow:visible;enable-background:new    ;" width="6" height="6" xlink:href="A53BCFF2.jpg"  transform="matrix(1.2681 0 0 1.2681 127.956 232.0952)">
									</image>
								</g>
							</g>
						</g>
					</g>
				</g>
			</g>
			<g>
				<defs>
					<rect id="SVGID_70_" x="-66" y="1.8" width="385" height="427"/>
				</defs>
				<clipPath id="SVGID_71_">
					<use xlink:href="#SVGID_70_"  style="overflow:visible;"/>
				</clipPath>
				<path class="st34" d="M131.2,232.1c1.8,0,3.3,1.4,3.3,3.1c0,1.7-1.4,3.2-3.2,3.2c-1.8,0-3.3-1.4-3.4-3.1
					C127.9,233.6,129.4,232.1,131.2,232.1z"/>
			</g>
			<g>
				<defs>
					<rect id="SVGID_72_" x="-66" y="1.8" width="385" height="427"/>
				</defs>
				<clipPath id="SVGID_73_">
					<use xlink:href="#SVGID_72_"  style="overflow:visible;"/>
				</clipPath>
				<path class="st35" d="M127.7,288.9c0,0-0.1,3.6,3.7,3.7c0,0,3.1,0,3.4-3.6c0,0-0.9,3.2-3.5,2.9c0,0-1.2,0.1-2.2-0.7
					C128.5,290.7,127.9,290.1,127.7,288.9z"/>
			</g>
			<g>
				<defs>
					<rect id="SVGID_74_" x="-66" y="1.8" width="385" height="427"/>
				</defs>
				<clipPath id="SVGID_75_">
					<use xlink:href="#SVGID_74_"  style="overflow:visible;"/>
				</clipPath>
				<path class="st36" d="M127.7,288.9c0,0-0.1,3.6,3.7,3.7c0,0,3.1,0,3.4-3.6c0,0-0.9,3.2-3.5,2.9c0,0-1.2,0.1-2.2-0.7
					C128.5,290.7,127.9,290.1,127.7,288.9z"/>
			</g>
			<g>
				<defs>
					<rect id="SVGID_76_" x="-66" y="1.8" width="385" height="427"/>
				</defs>
				<clipPath id="SVGID_77_">
					<use xlink:href="#SVGID_76_"  style="overflow:visible;"/>
				</clipPath>
				<g class="st37">
					<g>
						<defs>
							<path id="SVGID_78_" d="M131.2,285.6c1.8,0,3.3,1.4,3.3,3.1c0,1.7-1.4,3.2-3.2,3.2c-1.8,0-3.3-1.4-3.4-3.1
								C127.9,287.1,129.4,285.7,131.2,285.6z"/>
						</defs>
						<clipPath id="SVGID_79_">
							<use xlink:href="#SVGID_78_"  style="overflow:visible;"/>
						</clipPath>
						<g class="st38">
							<g>
								<defs>
									<rect id="SVGID_80_" x="128" y="285.6" width="7.6" height="7.6"/>
								</defs>
								<clipPath id="SVGID_81_">
									<use xlink:href="#SVGID_80_"  style="overflow:visible;"/>
								</clipPath>
								<g class="st39">
									
										<image style="overflow:visible;enable-background:new    ;" width="6" height="6" xlink:href="A53BCFF1.jpg"  transform="matrix(1.2681 0 0 1.2681 127.956 285.6171)">
									</image>
								</g>
							</g>
						</g>
					</g>
				</g>
			</g>
			<g>
				<defs>
					<rect id="SVGID_82_" x="-66" y="1.8" width="385" height="427"/>
				</defs>
				<clipPath id="SVGID_83_">
					<use xlink:href="#SVGID_82_"  style="overflow:visible;"/>
				</clipPath>
				<path class="st40" d="M131.2,285.6c1.8,0,3.3,1.4,3.3,3.1c0,1.7-1.4,3.2-3.2,3.2c-1.8,0-3.3-1.4-3.4-3.1
					C127.9,287.1,129.4,285.7,131.2,285.6z"/>
			</g>
			<g>
				<defs>
					<rect id="SVGID_84_" x="-66" y="1.8" width="385" height="427"/>
				</defs>
				<clipPath id="SVGID_85_">
					<use xlink:href="#SVGID_84_"  style="overflow:visible;"/>
				</clipPath>
				<path class="st41" d="M127.7,343.1c0,0-0.1,3.6,3.7,3.7c0,0,3.1,0,3.4-3.6c0,0-0.9,3.2-3.5,2.9c0,0-1.2,0.1-2.2-0.7
					C128.5,345,127.9,344.4,127.7,343.1z"/>
			</g>
			<g>
				<defs>
					<rect id="SVGID_86_" x="-66" y="1.8" width="385" height="427"/>
				</defs>
				<clipPath id="SVGID_87_">
					<use xlink:href="#SVGID_86_"  style="overflow:visible;"/>
				</clipPath>
				<path class="st42" d="M127.7,343.1c0,0-0.1,3.6,3.7,3.7c0,0,3.1,0,3.4-3.6c0,0-0.9,3.2-3.5,2.9c0,0-1.2,0.1-2.2-0.7
					C128.5,345,127.9,344.4,127.7,343.1z"/>
			</g>
			<g>
				<defs>
					<rect id="SVGID_88_" x="-66" y="1.8" width="385" height="427"/>
				</defs>
				<clipPath id="SVGID_89_">
					<use xlink:href="#SVGID_88_"  style="overflow:visible;"/>
				</clipPath>
				<g class="st43">
					<g>
						<defs>
							<path id="SVGID_90_" d="M131.2,339.9c1.8,0,3.3,1.4,3.3,3.1c0,1.7-1.4,3.2-3.2,3.2c-1.8,0-3.3-1.4-3.4-3.1
								C127.9,341.4,129.4,339.9,131.2,339.9z"/>
						</defs>
						<clipPath id="SVGID_91_">
							<use xlink:href="#SVGID_90_"  style="overflow:visible;"/>
						</clipPath>
						<g class="st44">
							<g>
								<defs>
									<rect id="SVGID_92_" x="128" y="339.9" width="7.6" height="7.6"/>
								</defs>
								<clipPath id="SVGID_93_">
									<use xlink:href="#SVGID_92_"  style="overflow:visible;"/>
								</clipPath>
								<g class="st45">
									
										<image style="overflow:visible;enable-background:new    ;" width="6" height="6" xlink:href="E1A50E45.jpg"  transform="matrix(1.2681 0 0 1.2681 127.956 339.8885)">
									</image>
								</g>
							</g>
						</g>
					</g>
				</g>
			</g>
			<g>
				<defs>
					<rect id="SVGID_94_" x="-66" y="1.8" width="385" height="427"/>
				</defs>
				<clipPath id="SVGID_95_">
					<use xlink:href="#SVGID_94_"  style="overflow:visible;"/>
				</clipPath>
				<path class="st46" d="M131.2,339.9c1.8,0,3.3,1.4,3.3,3.1c0,1.7-1.4,3.2-3.2,3.2c-1.8,0-3.3-1.4-3.4-3.1
					C127.9,341.4,129.4,339.9,131.2,339.9z"/>
			</g>
			<g>
				<defs>
					<rect id="SVGID_96_" x="-66" y="1.8" width="385" height="427"/>
				</defs>
				<clipPath id="SVGID_97_">
					<use xlink:href="#SVGID_96_"  style="overflow:visible;"/>
				</clipPath>
				<path class="st47" d="M109.6,62.4c0,0,12.4,25.9,16,41.8c0,0,0.6-8.4,1.1-9.1c0.5-0.7,0.6-5,0-6.6c-0.6-1.7-3.2-8.8-3.8-10.2
					c-0.6-1.3-2-2.4-2.9-5.7c-1-3.2-1.2-1.6-1.2-3.9c0-2.3,1.2-3.6,1.2-4.6c0-1-2.5-5.7-2.9-6.4c-0.4-0.7-1.8-1.7-2.3-2
					C114.2,55.3,109.6,62.4,109.6,62.4z"/>
			</g>
			<g>
				<defs>
					<rect id="SVGID_98_" x="-66" y="1.8" width="385" height="427"/>
				</defs>
				<clipPath id="SVGID_99_">
					<use xlink:href="#SVGID_98_"  style="overflow:visible;"/>
				</clipPath>
				<path class="st48" d="M109.6,64.5c0.1,0.4,14.4,53.5,18.1,69.3c0,0-1.5-35.9-1-36.6c0.5-0.7,0.6-5,0-6.6
					c-0.6-1.7-3.2-8.8-3.8-10.2c-0.6-1.3-2-2.4-2.9-5.7c-1-3.2-1.2-1.6-1.2-3.9c0-2.3,1.2-3.6,1.2-4.6c0-1-2.5-5.7-2.9-6.4
					c-0.4-0.7-1.8-1.7-2.3-2C114.2,57.4,109.7,64.3,109.6,64.5L109.6,64.5z"/>
			</g>
			<g>
				<defs>
					<rect id="SVGID_100_" x="-66" y="1.8" width="385" height="427"/>
				</defs>
				<clipPath id="SVGID_101_">
					<use xlink:href="#SVGID_100_"  style="overflow:visible;"/>
				</clipPath>
				<path class="st49" d="M129.9,85.2c0,0-1.7,14.6-1.9,28.7c-0.3,34.6-3.8,84.9-3.2,145.8c0.7,77.7-3.5,153.6-3.5,153.6"/>
			</g>
			<g>
				<defs>
					<rect id="SVGID_102_" x="-66" y="1.8" width="385" height="427"/>
				</defs>
				<clipPath id="SVGID_103_">
					<use xlink:href="#SVGID_102_"  style="overflow:visible;"/>
				</clipPath>
				<path class="st50" d="M-64.4,389.3c0,0,5.7-5.2,19.4-2.3c11.4,2.4,14.9,6.3,15.8,8.4"/>
			</g>
			<g>
				<defs>
					<rect id="SVGID_104_" x="-66" y="1.8" width="385" height="427"/>
				</defs>
				<clipPath id="SVGID_105_">
					<use xlink:href="#SVGID_104_"  style="overflow:visible;"/>
				</clipPath>
				<path class="st51" d="M283.5,397.1c0,0,2.6-5.6,16.6-6.8c11.7-1,15.3,0.5,16.5,2.5"/>
			</g>
			<g>
				<defs>
					<rect id="SVGID_106_" x="-66" y="1.8" width="385" height="427"/>
				</defs>
				<clipPath id="SVGID_107_">
					<use xlink:href="#SVGID_106_"  style="overflow:visible;"/>
				</clipPath>
				<path class="st52" d="M90.9,6.2c0,0-0.1-2.8,16.8-2.3L154,3.4c0,0,6.4,0.6,8.9,2.4s4,2.8,7.2,9.4c3.2,6.6,6,13.4,9.5,14.1
					c0,0-11,34.5-25.7,48.9c0,0-8.7-18.2-12.2-22.1c0,0-1.5-2.8-4.6-2.5c0,0-0.4,0.9-1.7,3.5c0,0-0.4,2-1,4.9
					c-0.4,1.7,1.8,4.1,1.3,6.2c-1.6,6.9-5.3,16.2-8.4,26.7c-0.2,0.7,0-2.5-0.9-7.5c-0.6-3-2.1-6.2-4.1-9.5c-1.6-2.6-2.3-5.9-3.7-8.7
					c-0.6-1.2,1.8-5.5,1.2-6.6c-1.9-4.2-3.7-7.5-5.2-7.7c0,0-3.4,0.5-15,23.8c0,0-22.2-25.2-25.5-50.1c0,0,4.4-1.9,7.8-9.5
					C85.1,11.5,87.4,7.3,90.9,6.2z"/>
			</g>
			<g>
				<defs>
					<rect id="SVGID_108_" x="-66" y="1.8" width="385" height="427"/>
				</defs>
				<clipPath id="SVGID_109_">
					<use xlink:href="#SVGID_108_"  style="overflow:visible;"/>
				</clipPath>
				<g class="st53">
					<g>
						<defs>
							<path id="SVGID_110_" d="M90.9,6.2c0,0-0.1-2.8,16.8-2.3L154,3.4c0,0,6.4,0.6,8.9,2.4s4,2.8,7.2,9.4c3.2,6.6,6,13.4,9.5,14.1
								c0,0-11,34.5-25.7,48.9c0,0-8.7-18.2-12.2-22.1c0,0-1.5-2.8-4.6-2.5c0,0-0.4,0.9-1.7,3.5c0,0-0.4,2-1,4.9
								c-0.4,1.7,1.8,4.1,1.3,6.2c-1.6,6.9-5.3,16.2-8.4,26.7c-0.2,0.7,0-2.5-0.9-7.5c-0.6-3-2.1-6.2-4.1-9.5
								c-1.6-2.6-2.3-5.9-3.7-8.7c-0.6-1.2,1.8-5.5,1.2-6.6c-1.9-4.2-3.7-7.5-5.2-7.7c0,0-3.4,0.5-15,23.8c0,0-22.2-25.2-25.5-50.1
								c0,0,4.4-1.9,7.8-9.5C85.1,11.5,87.4,7.3,90.9,6.2z"/>
						</defs>
						<clipPath id="SVGID_111_">
							<use xlink:href="#SVGID_110_"  style="overflow:visible;"/>
						</clipPath>
						<g class="st54">
							<g>
								<defs>
									<path id="SVGID_112_" d="M117,56.3c0,0-25.9-24.3-26.2-50.1c0,0,17.3-22.8,32.6-19.1s35,8.4,37,10c2,1.6,2.1,9,2.1,9
										s0.8,8.3-4.2,19.4c-2,4.5-3,10-8.5,14.9c0,0-10.3,14.6-14.9,17.1c0,0-1.3,3.4-1.3,4.1c0.1,2.2,1.6,4,1.4,6.2
										c-1.1,12-7.4,23.5-7.4,23.5c-0.8,8.7-4.3-14.1-9.3-21.9c-0.9-1.4,1.4-3.9,1.2-5.8c0-0.4-3.7-1.8-1.7-4.4
										C118.5,58.5,117,56.3,117,56.3z"/>
								</defs>
								<clipPath id="SVGID_113_">
									<use xlink:href="#SVGID_112_"  style="overflow:visible;"/>
								</clipPath>
								<g class="st55">
									<g>
										<g>
											<defs>
												<rect id="SVGID_114_" x="90.9" y="-16.6" width="72.4" height="116.7"/>
											</defs>
											<clipPath id="SVGID_115_">
												<use xlink:href="#SVGID_114_"  style="overflow:visible;"/>
											</clipPath>
											<g class="st56">
												
													<image style="overflow:visible;enable-background:new    ;" width="200" height="325" xlink:href="E1A50E5B.jpg"  transform="matrix(0.3607 0 0 0.3607 91.0473 -16.8829)">
												</image>
											</g>
										</g>
									</g>
								</g>
							</g>
						</g>
					</g>
				</g>
			</g>
			<g>
				<defs>
					<rect id="SVGID_116_" x="-66" y="1.8" width="385" height="427"/>
				</defs>
				<clipPath id="SVGID_117_">
					<use xlink:href="#SVGID_116_"  style="overflow:visible;"/>
				</clipPath>
				<path class="st57" d="M90.9,6.2c0,0-0.1-2.8,16.8-2.3L154,3.4c0,0,6.4,0.6,8.9,2.4s4,2.8,7.2,9.4c3.2,6.6,6,13.4,9.5,14.1
					c0,0-11,34.5-25.7,48.9c0,0-8.7-18.2-12.2-22.1c0,0-1.5-2.8-4.6-2.5c0,0-0.4,0.9-1.7,3.5c0,0-0.4,2-1,4.9
					c-0.4,1.7,1.8,4.1,1.3,6.2c-1.6,6.9-5.3,16.2-8.4,26.7c-0.2,0.7,0-2.5-0.9-7.5c-0.6-3-2.1-6.2-4.1-9.5c-1.6-2.6-2.3-5.9-3.7-8.7
					c-0.6-1.2,1.8-5.5,1.2-6.6c-1.9-4.2-3.7-7.5-5.2-7.7c0,0-3.4,0.5-15,23.8c0,0-22.2-25.2-25.5-50.1c0,0,4.4-1.9,7.8-9.5
					C85.1,11.5,87.4,7.3,90.9,6.2z"/>
			</g>
			<g>
				<defs>
					<rect id="SVGID_118_" x="-66" y="1.8" width="385" height="427"/>
				</defs>
				<clipPath id="SVGID_119_">
					<use xlink:href="#SVGID_118_"  style="overflow:visible;"/>
				</clipPath>
				<path class="st58" d="M115,53.8c0,0-23.9-21.5-24.1-47.6"/>
			</g>
			<g>
				<defs>
					<rect id="SVGID_120_" x="-66" y="1.8" width="385" height="427"/>
				</defs>
				<clipPath id="SVGID_121_">
					<use xlink:href="#SVGID_120_"  style="overflow:visible;"/>
				</clipPath>
				<path class="st59" d="M137,53.8c0,0,28.1-26,25.5-47.6"/>
			</g>
			<g>
				<defs>
					<rect id="SVGID_122_" x="-66" y="1.8" width="385" height="427"/>
				</defs>
				<clipPath id="SVGID_123_">
					<use xlink:href="#SVGID_122_"  style="overflow:visible;"/>
				</clipPath>
				<path class="st60" d="M25.9,174c0,0,3.6-48.7-16-111.4"/>
			</g>
			<g>
				<defs>
					<rect id="SVGID_124_" x="-66" y="1.8" width="385" height="427"/>
				</defs>
				<clipPath id="SVGID_125_">
					<use xlink:href="#SVGID_124_"  style="overflow:visible;"/>
				</clipPath>
				<path class="st61" d="M228.5,168c0,0-2.4-44.2,17.1-102.5"/>
			</g>
			<g>
				<defs>
					<rect id="SVGID_126_" x="-66" y="1.8" width="385" height="427"/>
				</defs>
				<clipPath id="SVGID_127_">
					<use xlink:href="#SVGID_126_"  style="overflow:visible;"/>
				</clipPath>
				<path class="st62" d="M-27.4,373c-7.7-6.6-29.6-7.7-34.3-3.1"/>
			</g>
			<g>
				<defs>
					<rect id="SVGID_128_" x="-66" y="1.8" width="385" height="427"/>
				</defs>
				<clipPath id="SVGID_129_">
					<use xlink:href="#SVGID_128_"  style="overflow:visible;"/>
				</clipPath>
				<path class="st63" d="M280.6,382.2c4.5-4.4,10.3-8,21.6-7.7c4.5,0.1,10.5,1.3,12,3.7"/>
			</g>
		</g>
	</g>
</g>
</svg>
