<?xml version="1.0" encoding="UTF-8" standalone="no" ?>
<!DOCTYPE svg PUBLIC "-//W3C//DTD SVG 1.1//EN" "http://www.w3.org/Graphics/SVG/1.1/DTD/svg11.dtd">
<svg xmlns="http://www.w3.org/2000/svg" xmlns:xlink="http://www.w3.org/1999/xlink" version="1.1" width="1080" height="1080" viewBox="0 0 1080 1080" xml:space="preserve">
<desc>Created with Fabric.js 5.2.4</desc>
<defs>
</defs>
<g transform="matrix(1 0 0 1 540 540)" id="730d3607-043b-475c-8a78-a149677ec4ca"  >
</g>
<g transform="matrix(1 0 0 1 540 540)" id="b650a253-bd37-4e4f-9e13-b331081cdb0e"  >
<rect style="stroke: none; stroke-width: 1; stroke-dasharray: none; stroke-linecap: butt; stroke-dashoffset: 0; stroke-linejoin: miter; stroke-miterlimit: 4; fill: rgb(255,255,255); fill-rule: nonzero; opacity: 1; visibility: hidden;" vector-effect="non-scaling-stroke"  x="-540" y="-540" rx="0" ry="0" width="1080" height="1080" />
</g>
<g transform="matrix(2.04 0 0 2.04 540 557.22)"  >
<path style="stroke: rgb(0,0,0); stroke-width: 0; stroke-dasharray: none; stroke-linecap: butt; stroke-dashoffset: 0; stroke-linejoin: miter; stroke-miterlimit: 4; fill: rgb(0,0,0); fill-rule: nonzero; opacity: 1;" vector-effect="non-scaling-stroke"  transform=" translate(-126.44, -140.34)" d="M 244.8 85.3 C 241 73.8 234.8 64.4 223.9 58.199999999999996 C 199.1 43.699999999999996 174.4 29.599999999999994 149.60000000000002 15.099999999999994 C 142.8 11.299999999999994 135.70000000000002 9.199999999999994 128.10000000000002 8.899999999999995 C 119.50000000000003 8.599999999999994 111.60000000000002 10.099999999999994 104.20000000000002 14.499999999999995 C 79.1 28.9 54 43.1 29.3 57.8 C 14.5 66.7 6.5 80 6.5 97.4 C 6.2 126 6.5 154.9 6.5 183.5 C 6.5 187.9 7.1 192.3 8.6 196.5 C 12.399999999999999 207.7 18.9 216.8 29.200000000000003 222.7 C 53.7 236.89999999999998 78.5 251 102.9 265.2 C 109.4 269 116.2 271.09999999999997 123.5 271.7 C 132.6 272.3 141.2 270.8 149.2 266.09999999999997 C 174 251.59999999999997 198.7 237.19999999999996 223.5 222.99999999999997 C 230.6 219.19999999999996 235.9 213.59999999999997 239.7 206.79999999999998 C 243.5 200.29999999999998 246.5 193.2 246.5 185.6 C 246.5 170.6 246.5 155.2 246.5 140.2 C 246.5 126.29999999999998 246.5 111.89999999999999 246.5 97.39999999999999 C 246.6 93.2 246 89.1 244.8 85.3 z M 174.1 144.8 L 131 144.8 L 131 187.9 C 131 190.3 128.9 192.3 126.6 192.3 C 124.19999999999999 192.3 122.19999999999999 190.20000000000002 122.19999999999999 187.9 L 122.19999999999999 144.8 L 79.1 144.8 C 76.69999999999999 144.8 74.69999999999999 142.70000000000002 74.69999999999999 140.4 C 74.69999999999999 138.1 76.79999999999998 136 79.1 136 L 122.19999999999999 136 L 122.19999999999999 92.9 C 122.19999999999999 90.5 124.29999999999998 88.5 126.6 88.5 C 129 88.5 131 90.6 131 92.9 L 131 136 L 174.1 136 C 176.5 136 178.5 138.1 178.5 140.4 C 178.5 142.70000000000002 176.4 144.8 174.1 144.8 z" stroke-linecap="round" />
</g>
<g transform="matrix(0 2.04 -2.04 0 540 473.13)" id="2b1f9a52-d9e5-46e4-aa62-fb84a0acf61e"  >
<polygon style="stroke: rgb(0,0,0); stroke-width: 0; stroke-dasharray: none; stroke-linecap: butt; stroke-dashoffset: 0; stroke-linejoin: miter; stroke-miterlimit: 4; fill: rgb(0,0,0); fill-rule: nonzero; opacity: 1;" vector-effect="non-scaling-stroke"  points="-37.21,0 -20.49,15.74 -3.76,31.48 -3.76,12.14 37.21,12.14 37.21,-13.21 -3.76,-13.21 -3.76,-31.48 -20.49,-15.74 " />
</g>
<g transform="matrix(2.04 0 0 2.04 540 641.29)" id="445c5d4e-d684-4931-9353-eeb21ac00149"  >
<polygon style="stroke: rgb(0,0,0); stroke-width: 0; stroke-dasharray: none; stroke-linecap: butt; stroke-dashoffset: 0; stroke-linejoin: miter; stroke-miterlimit: 4; fill: rgb(0,0,0); fill-rule: nonzero; opacity: 1;" vector-effect="non-scaling-stroke"  points="0,36.77 15.28,20.24 30.55,3.71 11.79,3.71 11.79,-36.77 -12.82,-36.77 -12.82,3.71 -30.55,3.71 -15.28,20.24 " />
</g>
</svg>