<?xml version="1.0" encoding="utf-8"?>
<!-- Generator: Adobe Illustrator 24.3.0, SVG Export Plug-In . SVG Version: 6.00 Build 0)  -->
<svg version="1.1" id="Layer_1" xmlns="http://www.w3.org/2000/svg" xmlns:xlink="http://www.w3.org/1999/xlink" x="0px" y="0px"
	 viewBox="0 0 285.9 219.2" style="enable-background:new 0 0 285.9 219.2;" xml:space="preserve">
<style type="text/css">
	.st0{clip-path:url(#SVGID_2_);}
	.st1{clip-path:url(#SVGID_4_);}
	.st2{clip-path:url(#SVGID_6_);fill:url(#SVGID_7_);}
	.st3{clip-path:url(#SVGID_9_);}
	.st4{clip-path:url(#SVGID_11_);}
	.st5{clip-path:url(#SVGID_13_);}
	.st6{clip-path:url(#SVGID_15_);fill-rule:evenodd;clip-rule:evenodd;fill:#8F8F8F;}
	.st7{clip-path:url(#SVGID_17_);}
	.st8{clip-path:url(#SVGID_19_);}
	.st9{clip-path:url(#SVGID_21_);}
	.st10{clip-path:url(#SVGID_23_);fill-rule:evenodd;clip-rule:evenodd;fill:#8F8F8F;}
	.st11{clip-path:url(#SVGID_25_);}
	.st12{clip-path:url(#SVGID_27_);}
	.st13{clip-path:url(#SVGID_29_);}
	.st14{clip-path:url(#SVGID_31_);}
	.st15{clip-path:url(#SVGID_33_);}
	.st16{clip-path:url(#SVGID_35_);}
	.st17{clip-path:url(#SVGID_37_);}
	.st18{clip-path:url(#SVGID_39_);}
	.st19{clip-path:url(#SVGID_41_);}
	.st20{clip-path:url(#SVGID_43_);}
	
		.st21{clip-path:url(#SVGID_45_);fill:none;stroke:#000000;stroke-width:2.0826;stroke-linecap:round;stroke-linejoin:round;stroke-miterlimit:10;}
	
		.st22{clip-path:url(#SVGID_47_);fill:none;stroke:#000000;stroke-width:2.0812;stroke-linecap:round;stroke-linejoin:round;stroke-miterlimit:10;}
	
		.st23{clip-path:url(#SVGID_49_);fill:none;stroke:#000000;stroke-width:2.0812;stroke-linecap:round;stroke-linejoin:round;stroke-miterlimit:10;}
	.st24{clip-path:url(#SVGID_51_);fill-rule:evenodd;clip-rule:evenodd;fill:#FFFFFF;}
	.st25{clip-path:url(#SVGID_53_);}
	.st26{clip-path:url(#SVGID_55_);}
	.st27{clip-path:url(#SVGID_57_);}
	.st28{clip-path:url(#SVGID_59_);}
	
		.st29{clip-path:url(#SVGID_61_);fill:none;stroke:#000000;stroke-width:2.0826;stroke-linecap:round;stroke-linejoin:round;stroke-miterlimit:10;}
	
		.st30{clip-path:url(#SVGID_63_);fill:none;stroke:#000000;stroke-width:2.0826;stroke-linecap:round;stroke-linejoin:round;stroke-miterlimit:10;}
	
		.st31{clip-path:url(#SVGID_65_);fill:none;stroke:#000000;stroke-width:2.0826;stroke-linecap:round;stroke-linejoin:round;stroke-miterlimit:10;}
	
		.st32{clip-path:url(#SVGID_67_);fill-rule:evenodd;clip-rule:evenodd;fill:#9D9D9D;stroke:#000000;stroke-width:0.3582;stroke-linecap:round;stroke-linejoin:round;stroke-miterlimit:10;}
	
		.st33{clip-path:url(#SVGID_69_);fill:none;stroke:#000000;stroke-width:2.0826;stroke-linecap:round;stroke-linejoin:round;stroke-miterlimit:10;}
	.st34{clip-path:url(#SVGID_71_);fill-rule:evenodd;clip-rule:evenodd;fill:#959595;}
	
		.st35{clip-path:url(#SVGID_73_);fill:none;stroke:#000000;stroke-width:0.6098;stroke-linecap:round;stroke-linejoin:round;stroke-miterlimit:10;}
	.st36{clip-path:url(#SVGID_75_);}
	.st37{clip-path:url(#SVGID_77_);}
	.st38{clip-path:url(#SVGID_79_);}
	
		.st39{clip-path:url(#SVGID_81_);fill:none;stroke:#000000;stroke-width:0.6097;stroke-linecap:round;stroke-linejoin:round;stroke-miterlimit:10;}
	.st40{clip-path:url(#SVGID_83_);fill-rule:evenodd;clip-rule:evenodd;fill:#959595;}
	
		.st41{clip-path:url(#SVGID_85_);fill:none;stroke:#000000;stroke-width:0.6098;stroke-linecap:round;stroke-linejoin:round;stroke-miterlimit:10;}
	.st42{clip-path:url(#SVGID_87_);}
	.st43{clip-path:url(#SVGID_89_);}
	.st44{clip-path:url(#SVGID_91_);}
	
		.st45{clip-path:url(#SVGID_93_);fill:none;stroke:#000000;stroke-width:0.6097;stroke-linecap:round;stroke-linejoin:round;stroke-miterlimit:10;}
	.st46{clip-path:url(#SVGID_95_);fill-rule:evenodd;clip-rule:evenodd;fill:#959595;}
	
		.st47{clip-path:url(#SVGID_97_);fill:none;stroke:#000000;stroke-width:0.6098;stroke-linecap:round;stroke-linejoin:round;stroke-miterlimit:10;}
	.st48{clip-path:url(#SVGID_99_);}
	.st49{clip-path:url(#SVGID_101_);}
	.st50{clip-path:url(#SVGID_103_);}
	
		.st51{clip-path:url(#SVGID_105_);fill:none;stroke:#000000;stroke-width:0.6097;stroke-linecap:round;stroke-linejoin:round;stroke-miterlimit:10;}
	.st52{clip-path:url(#SVGID_107_);fill-rule:evenodd;clip-rule:evenodd;fill:#959595;}
	
		.st53{clip-path:url(#SVGID_109_);fill:none;stroke:#000000;stroke-width:0.6098;stroke-linecap:round;stroke-linejoin:round;stroke-miterlimit:10;}
	.st54{clip-path:url(#SVGID_111_);}
	.st55{clip-path:url(#SVGID_113_);}
	.st56{clip-path:url(#SVGID_115_);}
	
		.st57{clip-path:url(#SVGID_117_);fill:none;stroke:#000000;stroke-width:0.6097;stroke-linecap:round;stroke-linejoin:round;stroke-miterlimit:10;}
	.st58{clip-path:url(#SVGID_119_);fill-rule:evenodd;clip-rule:evenodd;fill:#959595;}
	
		.st59{clip-path:url(#SVGID_121_);fill:none;stroke:#000000;stroke-width:0.6098;stroke-linecap:round;stroke-linejoin:round;stroke-miterlimit:10;}
	.st60{clip-path:url(#SVGID_123_);}
	.st61{clip-path:url(#SVGID_125_);}
	.st62{clip-path:url(#SVGID_127_);}
	
		.st63{clip-path:url(#SVGID_129_);fill:none;stroke:#000000;stroke-width:0.6097;stroke-linecap:round;stroke-linejoin:round;stroke-miterlimit:10;}
	
		.st64{clip-path:url(#SVGID_131_);fill:none;stroke:#000000;stroke-width:2.0812;stroke-linecap:round;stroke-linejoin:round;stroke-miterlimit:10;}
	
		.st65{clip-path:url(#SVGID_133_);fill:none;stroke:#000000;stroke-width:2.0826;stroke-linecap:round;stroke-linejoin:round;stroke-miterlimit:10;}
	
		.st66{clip-path:url(#SVGID_135_);fill:none;stroke:#000000;stroke-width:2.0832;stroke-linecap:round;stroke-linejoin:round;stroke-miterlimit:10;}
	
		.st67{clip-path:url(#SVGID_137_);fill:none;stroke:#000000;stroke-width:2.0832;stroke-linecap:round;stroke-linejoin:round;stroke-miterlimit:10;}
</style>
<g>
	<g>
		<g>
			<defs>
				<rect id="SVGID_1_" x="16" y="4" width="253" height="280.6"/>
			</defs>
			<clipPath id="SVGID_2_">
				<use xlink:href="#SVGID_1_"  style="overflow:visible;"/>
			</clipPath>
			<g class="st0">
				<g>
					<g>
						<defs>
							<rect id="SVGID_3_" x="16" y="4" width="253" height="280.6"/>
						</defs>
						<clipPath id="SVGID_4_">
							<use xlink:href="#SVGID_3_"  style="overflow:visible;"/>
						</clipPath>
						<g class="st1">
							<g>
								<g>
									<defs>
										<path id="SVGID_5_" d="M107.9,23.1c0,0-41.4,19.9-43.2,22.1c0,0-7.6,7-22.9,65.3c-6,23-8.7,44.3-10.8,50.6
											c-6.5,20.2-12.7,71.5-13.6,82.2c-0.1,1.3,1.6,2.2,1.6,2.2l-1.9,13.3c0,0,9.4,8.7,22.9,3.5l1.4-14.3c0,0,1.4,0.8,1.9-0.9
											c2-7,8.2-27.2,12.7-46.6c2.7-11.6,3.6-26.7,5-31.3c2.6-8.7,5.5-16.1,8-25.3c2.6-9.6,6.2-21.5,7.3-28.2
											c0,0,2,33.6,3.8,55.2c1.2,15.2-6,35.9-8,50.6c-3,22.4-6.5,36.9-6.3,40.5c0,0,18.1,5.1,29.7,12.6c0,0,13.2,9.5,47.2,8.9
											c0,0,22.2,0.8,41.3-6.2c0,0,24.1-12.7,35.2-14.4c2.1-0.3,0.1-14.6-4.5-36.1c-3.6-16.6-11.2-32.7-8.6-57.9
											c1.6-15.2,2.8-36.8,3.5-55.3c0,0,6.6,22.5,9.2,30.5c2.9,8.8,4.4,15.1,5.9,22.8c1.7,8.5,3.4,25.2,4.1,28.1
											c7.1,31.4,13.4,57.6,13.4,57.6l2.3,1.8l1,9.6c2.6,1.8,6.4,2.5,10.5,1.9c3.7-0.5,7.7-2,11.3-4.5l-1.2-10.3l1.8-2.2
											c0,0-4.9-57.2-13.2-89.2c-2-7.6-4.7-25.9-10.8-52.9c-8.6-37.3-16.2-49.9-22.2-59.5l-1-1.8l-43.4-22.4l-15.9-0.4
											L107.9,23.1z"/>
									</defs>
									<clipPath id="SVGID_6_">
										<use xlink:href="#SVGID_5_"  style="overflow:visible;"/>
									</clipPath>
									
										<linearGradient id="SVGID_7_" gradientUnits="userSpaceOnUse" x1="-1820.3728" y1="513.7277" x2="-1819.3728" y2="513.7277" gradientTransform="matrix(-367.285 1.2352 1.2352 367.285 -668915.3125 -186282.9844)">
										<stop  offset="0" style="stop-color:#B3B4B4"/>
										<stop  offset="0.2" style="stop-color:#F2F1F1"/>
										<stop  offset="0.48" style="stop-color:#FFFFFF"/>
										<stop  offset="1" style="stop-color:#B3B4B4"/>
									</linearGradient>
									<polygon class="st2" points="268.9,284.4 17.1,285.2 16.2,22.7 268,21.9 									"/>
								</g>
							</g>
						</g>
					</g>
				</g>
				<g>
					<g>
						<defs>
							<rect id="SVGID_8_" x="16" y="4" width="253" height="280.6"/>
						</defs>
						<clipPath id="SVGID_9_">
							<use xlink:href="#SVGID_8_"  style="overflow:visible;"/>
						</clipPath>
						<g class="st3">
							<g>
								<g>
									<defs>
										<path id="SVGID_10_" d="M107.9,23.1c0,0-41.4,19.9-43.2,22.1c0,0-7.6,7-22.9,65.3c-6,23-8.7,44.3-10.8,50.6
											c-6.5,20.2-12.7,71.5-13.6,82.2c-0.1,1.3,1.6,2.2,1.6,2.2l-1.9,13.3c0,0,9.4,8.7,22.9,3.5l1.4-14.3c0,0,1.4,0.8,1.9-0.9
											c2-7,8.2-27.2,12.7-46.6c2.7-11.6,3.6-26.7,5-31.3c2.6-8.7,5.5-16.1,8-25.3c2.6-9.6,6.2-21.5,7.3-28.2
											c0,0,2,33.6,3.8,55.2c1.2,15.2-6,35.9-8,50.6c-3,22.4-6.5,36.9-6.3,40.5c0,0,18.1,5.1,29.7,12.6c0,0,13.2,9.5,47.2,8.9
											c0,0,22.2,0.8,41.3-6.2c0,0,24.1-12.7,35.2-14.4c2.1-0.3,0.1-14.6-4.5-36.1c-3.6-16.6-11.2-32.7-8.6-57.9
											c1.6-15.2,2.8-36.8,3.5-55.3c0,0,6.6,22.5,9.2,30.5c2.9,8.8,4.4,15.1,5.9,22.8c1.7,8.5,3.4,25.2,4.1,28.1
											c7.1,31.4,13.4,57.6,13.4,57.6l2.3,1.8l1,9.6c2.6,1.8,6.4,2.5,10.5,1.9c3.7-0.5,7.7-2,11.3-4.5l-1.2-10.3l1.8-2.2
											c0,0-4.9-57.2-13.2-89.2c-2-7.6-4.7-25.9-10.8-52.9c-8.6-37.3-16.2-49.9-22.2-59.5l-1-1.8l-43.4-22.4l-15.9-0.4
											L107.9,23.1z"/>
									</defs>
									<clipPath id="SVGID_11_">
										<use xlink:href="#SVGID_10_"  style="overflow:visible;"/>
									</clipPath>
									<g class="st4">
										<g>
											<g>
												<defs>
													<rect id="SVGID_12_" x="65.6" y="261.1" width="155" height="23"/>
												</defs>
												<clipPath id="SVGID_13_">
													<use xlink:href="#SVGID_12_"  style="overflow:visible;"/>
												</clipPath>
												<g class="st5">
													
														<image style="overflow:visible;enable-background:new    ;" width="156" height="25" xlink:href="A0168DA1.png"  transform="matrix(0.92 0 0 0.92 71.2987 261.1154)">
													</image>
												</g>
											</g>
										</g>
									</g>
								</g>
							</g>
							<g>
								<g>
									<defs>
										<path id="SVGID_14_" d="M107.9,23.1c0,0-41.4,19.9-43.2,22.1c0,0-7.6,7-22.9,65.3c-6,23-8.7,44.3-10.8,50.6
											c-6.5,20.2-12.7,71.5-13.6,82.2c-0.1,1.3,1.6,2.2,1.6,2.2l-1.9,13.3c0,0,9.4,8.7,22.9,3.5l1.4-14.3c0,0,1.4,0.8,1.9-0.9
											c2-7,8.2-27.2,12.7-46.6c2.7-11.6,3.6-26.7,5-31.3c2.6-8.7,5.5-16.1,8-25.3c2.6-9.6,6.2-21.5,7.3-28.2
											c0,0,2,33.6,3.8,55.2c1.2,15.2-6,35.9-8,50.6c-3,22.4-6.5,36.9-6.3,40.5c0,0,18.1,5.1,29.7,12.6c0,0,13.2,9.5,47.2,8.9
											c0,0,22.2,0.8,41.3-6.2c0,0,24.1-12.7,35.2-14.4c2.1-0.3,0.1-14.6-4.5-36.1c-3.6-16.6-11.2-32.7-8.6-57.9
											c1.6-15.2,2.8-36.8,3.5-55.3c0,0,6.6,22.5,9.2,30.5c2.9,8.8,4.4,15.1,5.9,22.8c1.7,8.5,3.4,25.2,4.1,28.1
											c7.1,31.4,13.4,57.6,13.4,57.6l2.3,1.8l1,9.6c2.6,1.8,6.4,2.5,10.5,1.9c3.7-0.5,7.7-2,11.3-4.5l-1.2-10.3l1.8-2.2
											c0,0-4.9-57.2-13.2-89.2c-2-7.6-4.7-25.9-10.8-52.9c-8.6-37.3-16.2-49.9-22.2-59.5l-1-1.8l-43.4-22.4l-15.9-0.4
											L107.9,23.1z"/>
									</defs>
									<clipPath id="SVGID_15_">
										<use xlink:href="#SVGID_14_"  style="overflow:visible;"/>
									</clipPath>
									<path class="st6" d="M15.9,262.7c0.2-0.4-2-3.7,2.1-4.8c4-1.1,11.4-1.6,19,1.2c0.7,0.3,6,5.7,3.1,6.7c0,0,1.4,7.5-6.7,6.9
										C25.5,272,17,266.5,15.9,262.7z"/>
								</g>
							</g>
							<g>
								<g>
									<defs>
										<path id="SVGID_16_" d="M107.9,23.1c0,0-41.4,19.9-43.2,22.1c0,0-7.6,7-22.9,65.3c-6,23-8.7,44.3-10.8,50.6
											c-6.5,20.2-12.7,71.5-13.6,82.2c-0.1,1.3,1.6,2.2,1.6,2.2l-1.9,13.3c0,0,9.4,8.7,22.9,3.5l1.4-14.3c0,0,1.4,0.8,1.9-0.9
											c2-7,8.2-27.2,12.7-46.6c2.7-11.6,3.6-26.7,5-31.3c2.6-8.7,5.5-16.1,8-25.3c2.6-9.6,6.2-21.5,7.3-28.2
											c0,0,2,33.6,3.8,55.2c1.2,15.2-6,35.9-8,50.6c-3,22.4-6.5,36.9-6.3,40.5c0,0,18.1,5.1,29.7,12.6c0,0,13.2,9.5,47.2,8.9
											c0,0,22.2,0.8,41.3-6.2c0,0,24.1-12.7,35.2-14.4c2.1-0.3,0.1-14.6-4.5-36.1c-3.6-16.6-11.2-32.7-8.6-57.9
											c1.6-15.2,2.8-36.8,3.5-55.3c0,0,6.6,22.5,9.2,30.5c2.9,8.8,4.4,15.1,5.9,22.8c1.7,8.5,3.4,25.2,4.1,28.1
											c7.1,31.4,13.4,57.6,13.4,57.6l2.3,1.8l1,9.6c2.6,1.8,6.4,2.5,10.5,1.9c3.7-0.5,7.7-2,11.3-4.5l-1.2-10.3l1.8-2.2
											c0,0-4.9-57.2-13.2-89.2c-2-7.6-4.7-25.9-10.8-52.9c-8.6-37.3-16.2-49.9-22.2-59.5l-1-1.8l-43.4-22.4l-15.9-0.4
											L107.9,23.1z"/>
									</defs>
									<clipPath id="SVGID_17_">
										<use xlink:href="#SVGID_16_"  style="overflow:visible;"/>
									</clipPath>
									<g class="st7">
										<g>
											<g>
												<defs>
													<path id="SVGID_18_" d="M243.7,254.1c0,0,9.7-10.8,23.8-2.1l2.3,9.7c0,0-8.4-6.8-28.2,2.8L243.7,254.1z"/>
												</defs>
												<clipPath id="SVGID_19_">
													<use xlink:href="#SVGID_18_"  style="overflow:visible;"/>
												</clipPath>
												<g class="st8">
													<g>
														<g>
															<defs>
																<rect id="SVGID_20_" x="242.6" y="248.6" width="26" height="16"/>
															</defs>
															<clipPath id="SVGID_21_">
																<use xlink:href="#SVGID_20_"  style="overflow:visible;"/>
															</clipPath>
															<g class="st9">
																
																	<image style="overflow:visible;enable-background:new    ;" width="29" height="18" xlink:href="A0168DA3.png"  transform="matrix(0.8763 0 0 0.8763 242.9116 248.7181)">
																</image>
															</g>
														</g>
													</g>
												</g>
											</g>
										</g>
									</g>
								</g>
							</g>
							<g>
								<g>
									<defs>
										<path id="SVGID_22_" d="M107.9,23.1c0,0-41.4,19.9-43.2,22.1c0,0-7.6,7-22.9,65.3c-6,23-8.7,44.3-10.8,50.6
											c-6.5,20.2-12.7,71.5-13.6,82.2c-0.1,1.3,1.6,2.2,1.6,2.2l-1.9,13.3c0,0,9.4,8.7,22.9,3.5l1.4-14.3c0,0,1.4,0.8,1.9-0.9
											c2-7,8.2-27.2,12.7-46.6c2.7-11.6,3.6-26.7,5-31.3c2.6-8.7,5.5-16.1,8-25.3c2.6-9.6,6.2-21.5,7.3-28.2
											c0,0,2,33.6,3.8,55.2c1.2,15.2-6,35.9-8,50.6c-3,22.4-6.5,36.9-6.3,40.5c0,0,18.1,5.1,29.7,12.6c0,0,13.2,9.5,47.2,8.9
											c0,0,22.2,0.8,41.3-6.2c0,0,24.1-12.7,35.2-14.4c2.1-0.3,0.1-14.6-4.5-36.1c-3.6-16.6-11.2-32.7-8.6-57.9
											c1.6-15.2,2.8-36.8,3.5-55.3c0,0,6.6,22.5,9.2,30.5c2.9,8.8,4.4,15.1,5.9,22.8c1.7,8.5,3.4,25.2,4.1,28.1
											c7.1,31.4,13.4,57.6,13.4,57.6l2.3,1.8l1,9.6c2.6,1.8,6.4,2.5,10.5,1.9c3.7-0.5,7.7-2,11.3-4.5l-1.2-10.3l1.8-2.2
											c0,0-4.9-57.2-13.2-89.2c-2-7.6-4.7-25.9-10.8-52.9c-8.6-37.3-16.2-49.9-22.2-59.5l-1-1.8l-43.4-22.4l-15.9-0.4
											L107.9,23.1z"/>
									</defs>
									<clipPath id="SVGID_23_">
										<use xlink:href="#SVGID_22_"  style="overflow:visible;"/>
									</clipPath>
									<path class="st10" d="M245.3,270.6c0.1-0.4-2.5-6.3,1.4-8.2c3.7-1.9,10.9-3.7,18.9-2.5c0.8,0.1,7.5,1.6,4.9,3
										c0,0,2.1,13.1-5.9,14C256.5,277.9,247,274.1,245.3,270.6z"/>
								</g>
							</g>
							<g>
								<g>
									<defs>
										<path id="SVGID_24_" d="M107.9,23.1c0,0-41.4,19.9-43.2,22.1c0,0-7.6,7-22.9,65.3c-6,23-8.7,44.3-10.8,50.6
											c-6.5,20.2-12.7,71.5-13.6,82.2c-0.1,1.3,1.6,2.2,1.6,2.2l-1.9,13.3c0,0,9.4,8.7,22.9,3.5l1.4-14.3c0,0,1.4,0.8,1.9-0.9
											c2-7,8.2-27.2,12.7-46.6c2.7-11.6,3.6-26.7,5-31.3c2.6-8.7,5.5-16.1,8-25.3c2.6-9.6,6.2-21.5,7.3-28.2
											c0,0,2,33.6,3.8,55.2c1.2,15.2-6,35.9-8,50.6c-3,22.4-6.5,36.9-6.3,40.5c0,0,18.1,5.1,29.7,12.6c0,0,13.2,9.5,47.2,8.9
											c0,0,22.2,0.8,41.3-6.2c0,0,24.1-12.7,35.2-14.4c2.1-0.3,0.1-14.6-4.5-36.1c-3.6-16.6-11.2-32.7-8.6-57.9
											c1.6-15.2,2.8-36.8,3.5-55.3c0,0,6.6,22.5,9.2,30.5c2.9,8.8,4.4,15.1,5.9,22.8c1.7,8.5,3.4,25.2,4.1,28.1
											c7.1,31.4,13.4,57.6,13.4,57.6l2.3,1.8l1,9.6c2.6,1.8,6.4,2.5,10.5,1.9c3.7-0.5,7.7-2,11.3-4.5l-1.2-10.3l1.8-2.2
											c0,0-4.9-57.2-13.2-89.2c-2-7.6-4.7-25.9-10.8-52.9c-8.6-37.3-16.2-49.9-22.2-59.5l-1-1.8l-43.4-22.4l-15.9-0.4
											L107.9,23.1z"/>
									</defs>
									<clipPath id="SVGID_25_">
										<use xlink:href="#SVGID_24_"  style="overflow:visible;"/>
									</clipPath>
									<g class="st11">
										<g>
											<g>
												<defs>
													<path id="SVGID_26_" d="M73.3,71.6c0,0-0.8,34-2.1,38.8c-0.9,3.3-6.3,23.3-10.9,36.8c-0.3,0.9-1.1,1.8-1,2.6
														c1,6-1.7,7.9-4.2,8.9c0,0,2.7,1.8,0.1,2.9c-1.2,0.5-12.9,0.2-14.7,1.8c-1.1,1.1,19.2,0,6,2.9c1.9,1.2,4.9,1.3,8.5,1
														c0,0-11.1,7.9-3.7,8.6c0,0-3.8,8-4.8,10c-3.2,6.2-11.7,53-12.5,56.7c-0.2,0.7-1.7,1.4-1.8,2.3
														c-0.9,4.5-0.4,10.1-0.4,10.1l8.8,9.7c0,0,3.9-8,4.7-8.6c0.8-0.6,20.1-67.3,20.1-67.3l5.9-49.6l5-27.3l-0.7-17.9
														L73.3,71.6z"/>
												</defs>
												<clipPath id="SVGID_27_">
													<use xlink:href="#SVGID_26_"  style="overflow:visible;"/>
												</clipPath>
												<g class="st12">
													<g>
														<g>
															<defs>
																<rect id="SVGID_28_" x="31.7" y="71.6" width="45" height="193"/>
															</defs>
															<clipPath id="SVGID_29_">
																<use xlink:href="#SVGID_28_"  style="overflow:visible;"/>
															</clipPath>
															<g class="st13">
																
																	<image style="overflow:visible;enable-background:new    ;" width="47" height="196" xlink:href="A0168DA6.png"  transform="matrix(0.9575 0 0 0.9575 31.6609 74.2477)">
																</image>
															</g>
														</g>
													</g>
												</g>
											</g>
										</g>
									</g>
								</g>
							</g>
							<g>
								<g>
									<defs>
										<path id="SVGID_30_" d="M107.9,23.1c0,0-41.4,19.9-43.2,22.1c0,0-7.6,7-22.9,65.3c-6,23-8.7,44.3-10.8,50.6
											c-6.5,20.2-12.7,71.5-13.6,82.2c-0.1,1.3,1.6,2.2,1.6,2.2l-1.9,13.3c0,0,9.4,8.7,22.9,3.5l1.4-14.3c0,0,1.4,0.8,1.9-0.9
											c2-7,8.2-27.2,12.7-46.6c2.7-11.6,3.6-26.7,5-31.3c2.6-8.7,5.5-16.1,8-25.3c2.6-9.6,6.2-21.5,7.3-28.2
											c0,0,2,33.6,3.8,55.2c1.2,15.2-6,35.9-8,50.6c-3,22.4-6.5,36.9-6.3,40.5c0,0,18.1,5.1,29.7,12.6c0,0,13.2,9.5,47.2,8.9
											c0,0,22.2,0.8,41.3-6.2c0,0,24.1-12.7,35.2-14.4c2.1-0.3,0.1-14.6-4.5-36.1c-3.6-16.6-11.2-32.7-8.6-57.9
											c1.6-15.2,2.8-36.8,3.5-55.3c0,0,6.6,22.5,9.2,30.5c2.9,8.8,4.4,15.1,5.9,22.8c1.7,8.5,3.4,25.2,4.1,28.1
											c7.1,31.4,13.4,57.6,13.4,57.6l2.3,1.8l1,9.6c2.6,1.8,6.4,2.5,10.5,1.9c3.7-0.5,7.7-2,11.3-4.5l-1.2-10.3l1.8-2.2
											c0,0-4.9-57.2-13.2-89.2c-2-7.6-4.7-25.9-10.8-52.9c-8.6-37.3-16.2-49.9-22.2-59.5l-1-1.8l-43.4-22.4l-15.9-0.4
											L107.9,23.1z"/>
									</defs>
									<clipPath id="SVGID_31_">
										<use xlink:href="#SVGID_30_"  style="overflow:visible;"/>
									</clipPath>
									<g class="st14">
										<g>
											<g>
												<defs>
													<path id="SVGID_32_" d="M213.2,71.6c0,0,0.8,34,2.1,38.8c0.9,3.3,6.4,23.3,10.9,36.8c0.3,0.9,1.1,1.8,1,2.6
														c-1,6,1.7,7.9,4.2,8.9c0,0-2.7,1.8-0.1,2.9c1.1,0.5,12.9,0.2,14.6,1.8c1.1,1.1-19.2,0-6,2.9c-1.9,1.2-4.9,1.3-8.5,1
														c0,0,11.1,7.9,3.7,8.6c0,0,3.8,8,4.8,10c3.2,6.2,11.7,53,12.5,56.7c0.2,0.7,1.7,1.4,1.8,2.3c0.9,4.5,0.4,10.1,0.4,10.1
														l-8.8,9.7c0,0-3.9-8-4.7-8.6c-0.8-0.6-20.1-67.3-20.1-67.3l-5.9-49.6l-5.5-26.5l1.1-18.6L213.2,71.6z"/>
												</defs>
												<clipPath id="SVGID_33_">
													<use xlink:href="#SVGID_32_"  style="overflow:visible;"/>
												</clipPath>
												<g class="st15">
													<g>
														<g>
															<defs>
																<rect id="SVGID_34_" x="209.7" y="71.6" width="46" height="193"/>
															</defs>
															<clipPath id="SVGID_35_">
																<use xlink:href="#SVGID_34_"  style="overflow:visible;"/>
															</clipPath>
															<g class="st16">
																
																	<image style="overflow:visible;enable-background:new    ;" width="48" height="196" xlink:href="A0168DA7.png"  transform="matrix(0.9583 0 0 0.9583 209.6855 74.1607)">
																</image>
															</g>
														</g>
													</g>
												</g>
											</g>
										</g>
									</g>
								</g>
							</g>
							<g>
								<g>
									<defs>
										<path id="SVGID_36_" d="M107.9,23.1c0,0-41.4,19.9-43.2,22.1c0,0-7.6,7-22.9,65.3c-6,23-8.7,44.3-10.8,50.6
											c-6.5,20.2-12.7,71.5-13.6,82.2c-0.1,1.3,1.6,2.2,1.6,2.2l-1.9,13.3c0,0,9.4,8.7,22.9,3.5l1.4-14.3c0,0,1.4,0.8,1.9-0.9
											c2-7,8.2-27.2,12.7-46.6c2.7-11.6,3.6-26.7,5-31.3c2.6-8.7,5.5-16.1,8-25.3c2.6-9.6,6.2-21.5,7.3-28.2
											c0,0,2,33.6,3.8,55.2c1.2,15.2-6,35.9-8,50.6c-3,22.4-6.5,36.9-6.3,40.5c0,0,18.1,5.1,29.7,12.6c0,0,13.2,9.5,47.2,8.9
											c0,0,22.2,0.8,41.3-6.2c0,0,24.1-12.7,35.2-14.4c2.1-0.3,0.1-14.6-4.5-36.1c-3.6-16.6-11.2-32.7-8.6-57.9
											c1.6-15.2,2.8-36.8,3.5-55.3c0,0,6.6,22.5,9.2,30.5c2.9,8.8,4.4,15.1,5.9,22.8c1.7,8.5,3.4,25.2,4.1,28.1
											c7.1,31.4,13.4,57.6,13.4,57.6l2.3,1.8l1,9.6c2.6,1.8,6.4,2.5,10.5,1.9c3.7-0.5,7.7-2,11.3-4.5l-1.2-10.3l1.8-2.2
											c0,0-4.9-57.2-13.2-89.2c-2-7.6-4.7-25.9-10.8-52.9c-8.6-37.3-16.2-49.9-22.2-59.5l-1-1.8l-43.4-22.4l-15.9-0.4
											L107.9,23.1z"/>
									</defs>
									<clipPath id="SVGID_37_">
										<use xlink:href="#SVGID_36_"  style="overflow:visible;"/>
									</clipPath>
									<g class="st17">
										<g>
											<g>
												<defs>
													<rect id="SVGID_38_" x="64.9" y="97.9" width="19.7" height="168.2"/>
												</defs>
												<clipPath id="SVGID_39_">
													<use xlink:href="#SVGID_38_"  style="overflow:visible;"/>
												</clipPath>
												<g transform="matrix(1 0 0 1 0 0)" class="st18">
													
														<image style="overflow:visible;enable-background:new    ;" width="22" height="174" xlink:href="A0168DA2.png"  transform="matrix(0.8975 0 0 0.9049 64.8893 103.2838)">
													</image>
												</g>
											</g>
										</g>
									</g>
								</g>
							</g>
							<g>
								<g>
									<defs>
										<path id="SVGID_40_" d="M107.9,23.1c0,0-41.4,19.9-43.2,22.1c0,0-7.6,7-22.9,65.3c-6,23-8.7,44.3-10.8,50.6
											c-6.5,20.2-12.7,71.5-13.6,82.2c-0.1,1.3,1.6,2.2,1.6,2.2l-1.9,13.3c0,0,9.4,8.7,22.9,3.5l1.4-14.3c0,0,1.4,0.8,1.9-0.9
											c2-7,8.2-27.2,12.7-46.6c2.7-11.6,3.6-26.7,5-31.3c2.6-8.7,5.5-16.1,8-25.3c2.6-9.6,6.2-21.5,7.3-28.2
											c0,0,2,33.6,3.8,55.2c1.2,15.2-6,35.9-8,50.6c-3,22.4-6.5,36.9-6.3,40.5c0,0,18.1,5.1,29.7,12.6c0,0,13.2,9.5,47.2,8.9
											c0,0,22.2,0.8,41.3-6.2c0,0,24.1-12.7,35.2-14.4c2.1-0.3,0.1-14.6-4.5-36.1c-3.6-16.6-11.2-32.7-8.6-57.9
											c1.6-15.2,2.8-36.8,3.5-55.3c0,0,6.6,22.5,9.2,30.5c2.9,8.8,4.4,15.1,5.9,22.8c1.7,8.5,3.4,25.2,4.1,28.1
											c7.1,31.4,13.4,57.6,13.4,57.6l2.3,1.8l1,9.6c2.6,1.8,6.4,2.5,10.5,1.9c3.7-0.5,7.7-2,11.3-4.5l-1.2-10.3l1.8-2.2
											c0,0-4.9-57.2-13.2-89.2c-2-7.6-4.7-25.9-10.8-52.9c-8.6-37.3-16.2-49.9-22.2-59.5l-1-1.8l-43.4-22.4l-15.9-0.4
											L107.9,23.1z"/>
									</defs>
									<clipPath id="SVGID_41_">
										<use xlink:href="#SVGID_40_"  style="overflow:visible;"/>
									</clipPath>
									<g class="st19">
										<g>
											<g>
												<defs>
													<rect id="SVGID_42_" x="201.2" y="98.9" width="18.8" height="167.2"/>
												</defs>
												<clipPath id="SVGID_43_">
													<use xlink:href="#SVGID_42_"  style="overflow:visible;"/>
												</clipPath>
												<g class="st20">
													
														<image style="overflow:visible;enable-background:new    ;" width="20" height="173" xlink:href="A0168DAD.png"  transform="matrix(0.9215 0 0 0.9292 201.3821 102.1297)">
													</image>
												</g>
											</g>
										</g>
									</g>
								</g>
							</g>
						</g>
					</g>
				</g>
				<g>
					<g>
						<defs>
							<rect id="SVGID_44_" x="16" y="4" width="253" height="280.6"/>
						</defs>
						<clipPath id="SVGID_45_">
							<use xlink:href="#SVGID_44_"  style="overflow:visible;"/>
						</clipPath>
						<path class="st21" d="M107.9,23.1c0,0-41.4,19.9-43.2,22.1c0,0-7.6,7-22.9,65.3c-6,23-8.7,44.3-10.8,50.6
							c-6.5,20.2-12.7,71.5-13.6,82.2c-0.1,1.3,1.6,2.2,1.6,2.2l-1.9,13.3c0,0,9.4,8.7,22.9,3.5l1.4-14.3c0,0,1.4,0.8,1.9-0.9
							c2-7,8.2-27.2,12.7-46.6c2.7-11.6,3.6-26.7,5-31.3c2.6-8.7,5.5-16.1,8-25.3c2.6-9.6,6.2-21.5,7.3-28.2c0,0,2,33.6,3.8,55.2
							c1.2,15.2-6,35.9-8,50.6c-3,22.4-6.5,36.9-6.3,40.5c0,0,18.1,5.1,29.7,12.6c0,0,13.2,9.5,47.2,8.9c0,0,22.2,0.8,41.3-6.2
							c0,0,24.1-12.7,35.2-14.4c2.1-0.3,0.1-14.6-4.5-36.1c-3.6-16.6-11.2-32.7-8.6-57.9c1.6-15.2,2.8-36.8,3.5-55.3
							c0,0,6.6,22.5,9.2,30.5c2.9,8.8,4.4,15.1,5.9,22.8c1.7,8.5,3.4,25.2,4.1,28.1c7.1,31.4,13.4,57.6,13.4,57.6l2.3,1.8l1,9.6
							c2.6,1.8,6.4,2.5,10.5,1.9c3.7-0.5,7.7-2,11.3-4.5l-1.2-10.3l1.8-2.2c0,0-4.9-57.2-13.2-89.2c-2-7.6-4.7-25.9-10.8-52.9
							c-8.6-37.3-16.2-49.9-22.2-59.5l-1-1.8l-43.4-22.4l-15.9-0.4L107.9,23.1z"/>
					</g>
				</g>
				<g>
					<g>
						<defs>
							<rect id="SVGID_46_" x="16" y="4" width="253" height="280.6"/>
						</defs>
						<clipPath id="SVGID_47_">
							<use xlink:href="#SVGID_46_"  style="overflow:visible;"/>
						</clipPath>
						<path class="st22" d="M17,258.7c0,0,3.7-3.4,12.8-1.5c7.5,1.6,9.8,4.1,10.4,5.5"/>
					</g>
				</g>
				<g>
					<g>
						<defs>
							<rect id="SVGID_48_" x="16" y="4" width="253" height="280.6"/>
						</defs>
						<clipPath id="SVGID_49_">
							<use xlink:href="#SVGID_48_"  style="overflow:visible;"/>
						</clipPath>
						<path class="st23" d="M245.7,263.8c0,0,1.7-3.7,10.9-4.5c7.7-0.7,10.1,0.3,10.9,1.6"/>
					</g>
				</g>
				<g>
					<g>
						<defs>
							<rect id="SVGID_50_" x="16" y="4" width="253" height="280.6"/>
						</defs>
						<clipPath id="SVGID_51_">
							<use xlink:href="#SVGID_50_"  style="overflow:visible;"/>
						</clipPath>
						<path class="st24" d="M119.1,6.8c0,0-0.1-1.8,11.1-1.5L160.6,5c0,0,4.2,0.4,5.9,1.6s2.6,1.9,4.7,6.2c2.1,4.3,3.9,8.8,6.2,9.3
							c0,0-7.2,22.6-16.9,32.1c0,0-6.8-12.8-9.1-15.4c0,0-2.2-4-4.2-3.8c0,0-1.2,0.4-2.1,2.1c0,0-2.9,0.5-4.3,0.1
							c-1.4-0.4,0.1-2-2.7-2.4c0,0-5.6,4.4-13.3,19.7c0,0-14.6-16.6-16.8-32.9c0,0,2.9-1.3,5.1-6.3C115.3,10.4,116.8,7.6,119.1,6.8z
							"/>
					</g>
				</g>
				<g>
					<g>
						<defs>
							<rect id="SVGID_52_" x="16" y="4" width="253" height="280.6"/>
						</defs>
						<clipPath id="SVGID_53_">
							<use xlink:href="#SVGID_52_"  style="overflow:visible;"/>
						</clipPath>
						<g class="st25">
							<g>
								<g>
									<defs>
										<path id="SVGID_54_" d="M119.1,6.8c0,0-0.1-1.8,11.1-1.5L160.6,5c0,0,4.2,0.4,5.9,1.6s2.6,1.9,4.7,6.2
											c2.1,4.3,3.9,8.8,6.2,9.3c0,0-7.2,22.6-16.9,32.1c0,0-6.8-12.8-9.1-15.4c0,0-2.2-4-4.2-3.8c0,0-1.2,0.4-2.1,2.1
											c0,0-2.9,0.5-4.3,0.1c-1.4-0.4,0.1-2-2.7-2.4c0,0-5.6,4.4-13.3,19.7c0,0-14.6-16.6-16.8-32.9c0,0,2.9-1.3,5.1-6.3
											C115.3,10.4,116.8,7.6,119.1,6.8z"/>
									</defs>
									<clipPath id="SVGID_55_">
										<use xlink:href="#SVGID_54_"  style="overflow:visible;"/>
									</clipPath>
									<g class="st26">
										<g>
											<g>
												<defs>
													<path id="SVGID_56_" d="M138,34.8c0,0-18.7-11-18.9-28c0,0,11.4-15,21.4-12.6s23,5.5,24.3,6.6c1.3,1,1.4,5.9,1.4,5.9
														s1.8,10.5-10.8,21.6c0,0-5.6,5.3-8.6,7c0,0-1.2,1.4-1.6,1.8c-0.3,0.3-4.2,0.5-4.4,0.5c-0.2,0-0.9-1.4-1.3-1.8
														C139,35.4,138,34.8,138,34.8z"/>
												</defs>
												<clipPath id="SVGID_57_">
													<use xlink:href="#SVGID_56_"  style="overflow:visible;"/>
												</clipPath>
												<g class="st27">
													<g>
														<g>
															<g>
																<defs>
																	<rect id="SVGID_58_" x="119.1" y="-8.1" width="48.8" height="45.7"/>
																</defs>
																<clipPath id="SVGID_59_">
																	<use xlink:href="#SVGID_58_"  style="overflow:visible;"/>
																</clipPath>
																<g class="st28">
																	
																		<image style="overflow:visible;enable-background:new    ;" width="213" height="200" xlink:href="A0168DA1.jpg"  transform="matrix(0.2296 0 0 0.2296 119.1136 -8.2142)">
																	</image>
																</g>
															</g>
														</g>
													</g>
												</g>
											</g>
										</g>
									</g>
								</g>
							</g>
						</g>
					</g>
				</g>
				<g>
					<g>
						<defs>
							<rect id="SVGID_60_" x="16" y="4" width="253" height="280.6"/>
						</defs>
						<clipPath id="SVGID_61_">
							<use xlink:href="#SVGID_60_"  style="overflow:visible;"/>
						</clipPath>
						<path class="st29" d="M119.1,6.8c0,0-0.1-1.8,11.1-1.5L160.6,5c0,0,4.2,0.4,5.9,1.6s2.6,1.9,4.7,6.2c2.1,4.3,3.9,8.8,6.2,9.3
							c0,0-7.2,22.6-16.9,32.1c0,0-6.8-12.8-9.1-15.4c0,0-2.2-4-4.2-3.8c0,0-1.2,0.4-2.1,2.1c0,0-2.9,0.5-4.3,0.1
							c-1.4-0.4,0.1-2-2.7-2.4c0,0-5.6,4.4-13.3,19.7c0,0-14.6-16.6-16.8-32.9c0,0,2.9-1.3,5.1-6.3C115.3,10.4,116.8,7.6,119.1,6.8z
							"/>
					</g>
				</g>
				<g>
					<g>
						<defs>
							<rect id="SVGID_62_" x="16" y="4" width="253" height="280.6"/>
						</defs>
						<clipPath id="SVGID_63_">
							<use xlink:href="#SVGID_62_"  style="overflow:visible;"/>
						</clipPath>
						<path class="st30" d="M138,34.9c0,0-18.7-10.9-18.9-28"/>
					</g>
				</g>
				<g>
					<g>
						<defs>
							<rect id="SVGID_64_" x="16" y="4" width="253" height="280.6"/>
						</defs>
						<clipPath id="SVGID_65_">
							<use xlink:href="#SVGID_64_"  style="overflow:visible;"/>
						</clipPath>
						<path class="st31" d="M147.5,34.9c0,0,20.4-13.8,18.6-28"/>
					</g>
				</g>
				<g>
					<g>
						<defs>
							<rect id="SVGID_66_" x="16" y="4" width="253" height="280.6"/>
						</defs>
						<clipPath id="SVGID_67_">
							<use xlink:href="#SVGID_66_"  style="overflow:visible;"/>
						</clipPath>
						<path class="st32" d="M143.1,37.8c0,0-4.9,2.4-6.5,8.5l-0.4,228.4l13.9,0.1l-0.7-227.2l-0.1-11.8c0,0-2.1-2.3-4.1,1.6
							L143.1,37.8z"/>
					</g>
				</g>
				<g>
					<g>
						<defs>
							<rect id="SVGID_68_" x="16" y="4" width="253" height="280.6"/>
						</defs>
						<clipPath id="SVGID_69_">
							<use xlink:href="#SVGID_68_"  style="overflow:visible;"/>
						</clipPath>
						<path class="st33" d="M143.1,37.8c0,0-4.9,2.4-6.5,8.5l-0.4,228.4l13.9,0.1l-0.7-227.2l-0.1-11.8c0,0-2.1-2.3-4.1,1.6
							L143.1,37.8z"/>
					</g>
				</g>
				<g>
					<g>
						<defs>
							<rect id="SVGID_70_" x="16" y="4" width="253" height="280.6"/>
						</defs>
						<clipPath id="SVGID_71_">
							<use xlink:href="#SVGID_70_"  style="overflow:visible;"/>
						</clipPath>
						<path class="st34" d="M138.9,65.4c0,0-0.1,2.9,3,3c0,0,2.5,0,2.7-2.9c0,0-0.8,2.6-2.8,2.4c0,0-0.9,0.1-1.8-0.6
							C139.6,66.9,139,66.4,138.9,65.4z"/>
					</g>
				</g>
				<g>
					<g>
						<defs>
							<rect id="SVGID_72_" x="16" y="4" width="253" height="280.6"/>
						</defs>
						<clipPath id="SVGID_73_">
							<use xlink:href="#SVGID_72_"  style="overflow:visible;"/>
						</clipPath>
						<path class="st35" d="M138.9,65.4c0,0-0.1,2.9,3,3c0,0,2.5,0,2.7-2.9c0,0-0.8,2.6-2.8,2.4c0,0-0.9,0.1-1.8-0.6
							C139.6,66.9,139,66.4,138.9,65.4z"/>
					</g>
				</g>
				<g>
					<g>
						<defs>
							<rect id="SVGID_74_" x="16" y="4" width="253" height="280.6"/>
						</defs>
						<clipPath id="SVGID_75_">
							<use xlink:href="#SVGID_74_"  style="overflow:visible;"/>
						</clipPath>
						<g class="st36">
							<g>
								<g>
									<defs>
										<path id="SVGID_76_" d="M141.7,62.8c1.5,0,2.7,1.1,2.7,2.5c0,1.4-1.1,2.6-2.6,2.6s-2.7-1.1-2.7-2.5
											C139.1,64,140.3,62.8,141.7,62.8z"/>
									</defs>
									<clipPath id="SVGID_77_">
										<use xlink:href="#SVGID_76_"  style="overflow:visible;"/>
									</clipPath>
									<g class="st37">
										<g>
											<g>
												<defs>
													<rect id="SVGID_78_" x="139.1" y="62.8" width="6" height="6"/>
												</defs>
												<clipPath id="SVGID_79_">
													<use xlink:href="#SVGID_78_"  style="overflow:visible;"/>
												</clipPath>
												<g class="st38">
													
														<image style="overflow:visible;enable-background:new    ;" width="8" height="8" xlink:href="A0168DAF.jpg"  transform="matrix(0.75 0 0 0.75 139.1165 62.7466)">
													</image>
												</g>
											</g>
										</g>
									</g>
								</g>
							</g>
						</g>
					</g>
				</g>
				<g>
					<g>
						<defs>
							<rect id="SVGID_80_" x="16" y="4" width="253" height="280.6"/>
						</defs>
						<clipPath id="SVGID_81_">
							<use xlink:href="#SVGID_80_"  style="overflow:visible;"/>
						</clipPath>
						<path class="st39" d="M141.7,62.8c1.5,0,2.7,1.1,2.7,2.5c0,1.4-1.1,2.6-2.6,2.6s-2.7-1.1-2.7-2.5
							C139.1,64,140.3,62.8,141.7,62.8z"/>
					</g>
				</g>
				<g>
					<g>
						<defs>
							<rect id="SVGID_82_" x="16" y="4" width="253" height="280.6"/>
						</defs>
						<clipPath id="SVGID_83_">
							<use xlink:href="#SVGID_82_"  style="overflow:visible;"/>
						</clipPath>
						<path class="st40" d="M140,111.7c0,0-0.1,2.9,3,3c0,0,2.5,0,2.7-2.9c0,0-0.8,2.6-2.8,2.4c0,0-0.9,0.1-1.8-0.6
							C140.7,113.2,140.2,112.8,140,111.7z"/>
					</g>
				</g>
				<g>
					<g>
						<defs>
							<rect id="SVGID_84_" x="16" y="4" width="253" height="280.6"/>
						</defs>
						<clipPath id="SVGID_85_">
							<use xlink:href="#SVGID_84_"  style="overflow:visible;"/>
						</clipPath>
						<path class="st41" d="M140,111.7c0,0-0.1,2.9,3,3c0,0,2.5,0,2.7-2.9c0,0-0.8,2.6-2.8,2.4c0,0-0.9,0.1-1.8-0.6
							C140.7,113.2,140.2,112.8,140,111.7z"/>
					</g>
				</g>
				<g>
					<g>
						<defs>
							<rect id="SVGID_86_" x="16" y="4" width="253" height="280.6"/>
						</defs>
						<clipPath id="SVGID_87_">
							<use xlink:href="#SVGID_86_"  style="overflow:visible;"/>
						</clipPath>
						<g class="st42">
							<g>
								<g>
									<defs>
										<path id="SVGID_88_" d="M142.8,109.1c1.5,0,2.7,1.1,2.7,2.5s-1.1,2.6-2.6,2.6c-1.5,0-2.7-1.1-2.7-2.5
											S141.4,109.2,142.8,109.1z"/>
									</defs>
									<clipPath id="SVGID_89_">
										<use xlink:href="#SVGID_88_"  style="overflow:visible;"/>
									</clipPath>
									<g class="st43">
										<g>
											<g>
												<defs>
													<rect id="SVGID_90_" x="140.2" y="109.1" width="6" height="6"/>
												</defs>
												<clipPath id="SVGID_91_">
													<use xlink:href="#SVGID_90_"  style="overflow:visible;"/>
												</clipPath>
												<g class="st44">
													
														<image style="overflow:visible;enable-background:new    ;" width="8" height="8" xlink:href="A0168DA2.jpg"  transform="matrix(0.75 0 0 0.75 140.2245 109.1236)">
													</image>
												</g>
											</g>
										</g>
									</g>
								</g>
							</g>
						</g>
					</g>
				</g>
				<g>
					<g>
						<defs>
							<rect id="SVGID_92_" x="16" y="4" width="253" height="280.6"/>
						</defs>
						<clipPath id="SVGID_93_">
							<use xlink:href="#SVGID_92_"  style="overflow:visible;"/>
						</clipPath>
						<path class="st45" d="M142.8,109.1c1.5,0,2.7,1.1,2.7,2.5s-1.1,2.6-2.6,2.6c-1.5,0-2.7-1.1-2.7-2.5S141.4,109.2,142.8,109.1z"
							/>
					</g>
				</g>
				<g>
					<g>
						<defs>
							<rect id="SVGID_94_" x="16" y="4" width="253" height="280.6"/>
						</defs>
						<clipPath id="SVGID_95_">
							<use xlink:href="#SVGID_94_"  style="overflow:visible;"/>
						</clipPath>
						<path class="st46" d="M140.4,159.6c0,0-0.1,2.9,3,3c0,0,2.5,0,2.7-2.9c0,0-0.8,2.6-2.8,2.4c0,0-0.9,0.1-1.8-0.6
							C141.1,161.1,140.5,160.7,140.4,159.6z"/>
					</g>
				</g>
				<g>
					<g>
						<defs>
							<rect id="SVGID_96_" x="16" y="4" width="253" height="280.6"/>
						</defs>
						<clipPath id="SVGID_97_">
							<use xlink:href="#SVGID_96_"  style="overflow:visible;"/>
						</clipPath>
						<path class="st47" d="M140.4,159.6c0,0-0.1,2.9,3,3c0,0,2.5,0,2.7-2.9c0,0-0.8,2.6-2.8,2.4c0,0-0.9,0.1-1.8-0.6
							C141.1,161.1,140.5,160.7,140.4,159.6z"/>
					</g>
				</g>
				<g>
					<g>
						<defs>
							<rect id="SVGID_98_" x="16" y="4" width="253" height="280.6"/>
						</defs>
						<clipPath id="SVGID_99_">
							<use xlink:href="#SVGID_98_"  style="overflow:visible;"/>
						</clipPath>
						<g class="st48">
							<g>
								<g>
									<defs>
										<path id="SVGID_100_" d="M143.2,157c1.5,0,2.7,1.1,2.7,2.5c0,1.4-1.1,2.6-2.6,2.6c-1.5,0-2.7-1.1-2.7-2.5
											S141.7,157.1,143.2,157z"/>
									</defs>
									<clipPath id="SVGID_101_">
										<use xlink:href="#SVGID_100_"  style="overflow:visible;"/>
									</clipPath>
									<g class="st49">
										<g>
											<g>
												<defs>
													<rect id="SVGID_102_" x="140.6" y="157" width="6" height="6"/>
												</defs>
												<clipPath id="SVGID_103_">
													<use xlink:href="#SVGID_102_"  style="overflow:visible;"/>
												</clipPath>
												<g class="st50">
													
														<image style="overflow:visible;enable-background:new    ;" width="8" height="8" xlink:href="2342785A.jpg"  transform="matrix(0.75 0 0 0.75 140.5975 157.0206)">
													</image>
												</g>
											</g>
										</g>
									</g>
								</g>
							</g>
						</g>
					</g>
				</g>
				<g>
					<g>
						<defs>
							<rect id="SVGID_104_" x="16" y="4" width="253" height="280.6"/>
						</defs>
						<clipPath id="SVGID_105_">
							<use xlink:href="#SVGID_104_"  style="overflow:visible;"/>
						</clipPath>
						<path class="st51" d="M143.2,157c1.5,0,2.7,1.1,2.7,2.5c0,1.4-1.1,2.6-2.6,2.6c-1.5,0-2.7-1.1-2.7-2.5S141.7,157.1,143.2,157z
							"/>
					</g>
				</g>
				<g>
					<g>
						<defs>
							<rect id="SVGID_106_" x="16" y="4" width="253" height="280.6"/>
						</defs>
						<clipPath id="SVGID_107_">
							<use xlink:href="#SVGID_106_"  style="overflow:visible;"/>
						</clipPath>
						<path class="st52" d="M140.4,202.9c0,0-0.1,2.9,3,3c0,0,2.5,0,2.7-2.9c0,0-0.8,2.6-2.8,2.4c0,0-0.9,0.1-1.8-0.6
							C141.1,204.4,140.5,203.9,140.4,202.9z"/>
					</g>
				</g>
				<g>
					<g>
						<defs>
							<rect id="SVGID_108_" x="16" y="4" width="253" height="280.6"/>
						</defs>
						<clipPath id="SVGID_109_">
							<use xlink:href="#SVGID_108_"  style="overflow:visible;"/>
						</clipPath>
						<path class="st53" d="M140.4,202.9c0,0-0.1,2.9,3,3c0,0,2.5,0,2.7-2.9c0,0-0.8,2.6-2.8,2.4c0,0-0.9,0.1-1.8-0.6
							C141.1,204.4,140.5,203.9,140.4,202.9z"/>
					</g>
				</g>
				<g>
					<g>
						<defs>
							<rect id="SVGID_110_" x="16" y="4" width="253" height="280.6"/>
						</defs>
						<clipPath id="SVGID_111_">
							<use xlink:href="#SVGID_110_"  style="overflow:visible;"/>
						</clipPath>
						<g class="st54">
							<g>
								<g>
									<defs>
										<path id="SVGID_112_" d="M143.2,200.3c1.5,0,2.7,1.1,2.7,2.5c0,1.4-1.1,2.6-2.6,2.6c-1.5,0-2.7-1.1-2.7-2.5
											C140.6,201.5,141.7,200.3,143.2,200.3z"/>
									</defs>
									<clipPath id="SVGID_113_">
										<use xlink:href="#SVGID_112_"  style="overflow:visible;"/>
									</clipPath>
									<g class="st55">
										<g>
											<g>
												<defs>
													<rect id="SVGID_114_" x="140.6" y="200.3" width="6" height="6"/>
												</defs>
												<clipPath id="SVGID_115_">
													<use xlink:href="#SVGID_114_"  style="overflow:visible;"/>
												</clipPath>
												<g class="st56">
													
														<image style="overflow:visible;enable-background:new    ;" width="8" height="8" xlink:href="2342785D.jpg"  transform="matrix(0.75 0 0 0.75 140.5975 200.279)">
													</image>
												</g>
											</g>
										</g>
									</g>
								</g>
							</g>
						</g>
					</g>
				</g>
				<g>
					<g>
						<defs>
							<rect id="SVGID_116_" x="16" y="4" width="253" height="280.6"/>
						</defs>
						<clipPath id="SVGID_117_">
							<use xlink:href="#SVGID_116_"  style="overflow:visible;"/>
						</clipPath>
						<path class="st57" d="M143.2,200.3c1.5,0,2.7,1.1,2.7,2.5c0,1.4-1.1,2.6-2.6,2.6c-1.5,0-2.7-1.1-2.7-2.5
							C140.6,201.5,141.7,200.3,143.2,200.3z"/>
					</g>
				</g>
				<g>
					<g>
						<defs>
							<rect id="SVGID_118_" x="16" y="4" width="253" height="280.6"/>
						</defs>
						<clipPath id="SVGID_119_">
							<use xlink:href="#SVGID_118_"  style="overflow:visible;"/>
						</clipPath>
						<path class="st58" d="M140.4,246.8c0,0-0.1,2.9,3,3c0,0,2.5,0,2.7-2.9c0,0-0.8,2.6-2.8,2.4c0,0-0.9,0.1-1.8-0.6
							C141.1,248.3,140.5,247.8,140.4,246.8z"/>
					</g>
				</g>
				<g>
					<g>
						<defs>
							<rect id="SVGID_120_" x="16" y="4" width="253" height="280.6"/>
						</defs>
						<clipPath id="SVGID_121_">
							<use xlink:href="#SVGID_120_"  style="overflow:visible;"/>
						</clipPath>
						<path class="st59" d="M140.4,246.8c0,0-0.1,2.9,3,3c0,0,2.5,0,2.7-2.9c0,0-0.8,2.6-2.8,2.4c0,0-0.9,0.1-1.8-0.6
							C141.1,248.3,140.5,247.8,140.4,246.8z"/>
					</g>
				</g>
				<g>
					<g>
						<defs>
							<rect id="SVGID_122_" x="16" y="4" width="253" height="280.6"/>
						</defs>
						<clipPath id="SVGID_123_">
							<use xlink:href="#SVGID_122_"  style="overflow:visible;"/>
						</clipPath>
						<g class="st60">
							<g>
								<g>
									<defs>
										<path id="SVGID_124_" d="M143.2,244.1c1.5,0,2.7,1.1,2.7,2.5c0,1.4-1.1,2.6-2.6,2.6c-1.5,0-2.7-1.1-2.7-2.5
											S141.7,244.2,143.2,244.1z"/>
									</defs>
									<clipPath id="SVGID_125_">
										<use xlink:href="#SVGID_124_"  style="overflow:visible;"/>
									</clipPath>
									<g class="st61">
										<g>
											<g>
												<defs>
													<rect id="SVGID_126_" x="140.6" y="244.1" width="6" height="6"/>
												</defs>
												<clipPath id="SVGID_127_">
													<use xlink:href="#SVGID_126_"  style="overflow:visible;"/>
												</clipPath>
												<g class="st62">
													
														<image style="overflow:visible;enable-background:new    ;" width="8" height="8" xlink:href="2342785E.jpg"  transform="matrix(0.75 0 0 0.75 140.5975 244.1427)">
													</image>
												</g>
											</g>
										</g>
									</g>
								</g>
							</g>
						</g>
					</g>
				</g>
				<g>
					<g>
						<defs>
							<rect id="SVGID_128_" x="16" y="4" width="253" height="280.6"/>
						</defs>
						<clipPath id="SVGID_129_">
							<use xlink:href="#SVGID_128_"  style="overflow:visible;"/>
						</clipPath>
						<path class="st63" d="M143.2,244.1c1.5,0,2.7,1.1,2.7,2.5c0,1.4-1.1,2.6-2.6,2.6c-1.5,0-2.7-1.1-2.7-2.5
							S141.7,244.2,143.2,244.1z"/>
					</g>
				</g>
				<g>
					<g>
						<defs>
							<rect id="SVGID_130_" x="16" y="4" width="253" height="280.6"/>
						</defs>
						<clipPath id="SVGID_131_">
							<use xlink:href="#SVGID_130_"  style="overflow:visible;"/>
						</clipPath>
						<path class="st64" d="M76.4,117.1c0,0,2.3-32-10.5-73.2"/>
					</g>
				</g>
				<g>
					<g>
						<defs>
							<rect id="SVGID_132_" x="16" y="4" width="253" height="280.6"/>
						</defs>
						<clipPath id="SVGID_133_">
							<use xlink:href="#SVGID_132_"  style="overflow:visible;"/>
						</clipPath>
						<path class="st65" d="M209.6,113.2c0,0-1.6-29,11.2-67.3"/>
					</g>
				</g>
				<g>
					<g>
						<defs>
							<rect id="SVGID_134_" x="16" y="4" width="253" height="280.6"/>
						</defs>
						<clipPath id="SVGID_135_">
							<use xlink:href="#SVGID_134_"  style="overflow:visible;"/>
						</clipPath>
						<path class="st66" d="M41.3,247.9c-5.1-4.3-19.4-5.1-22.6-2.1"/>
					</g>
				</g>
				<g>
					<g>
						<defs>
							<rect id="SVGID_136_" x="16" y="4" width="253" height="280.6"/>
						</defs>
						<clipPath id="SVGID_137_">
							<use xlink:href="#SVGID_136_"  style="overflow:visible;"/>
						</clipPath>
						<path class="st67" d="M243.8,254c2.9-2.9,6.8-5.2,14.2-5.1c2.9,0.1,6.9,0.9,7.9,2.5"/>
					</g>
				</g>
			</g>
		</g>
	</g>
</g>
</svg>
