<?xml version="1.0" encoding="utf-8"?>
<!-- Generator: Adobe Illustrator 24.3.0, SVG Export Plug-In . SVG Version: 6.00 Build 0)  -->
<svg version="1.1" id="Layer_1" xmlns="http://www.w3.org/2000/svg" xmlns:xlink="http://www.w3.org/1999/xlink" x="0px" y="0px"
	 viewBox="0 0 285.9 219.2" style="enable-background:new 0 0 285.9 219.2;" xml:space="preserve">
<style type="text/css">
	.st0{clip-path:url(#SVGID_2_);}
	.st1{clip-path:url(#SVGID_4_);}
	.st2{clip-path:url(#SVGID_6_);fill:url(#SVGID_7_);}
	.st3{clip-path:url(#SVGID_9_);}
	.st4{clip-path:url(#SVGID_9_);fill-rule:evenodd;clip-rule:evenodd;fill:#8F8F8F;}
	.st5{clip-path:url(#SVGID_13_);}
	.st6{clip-path:url(#SVGID_17_);}
	.st7{clip-path:url(#SVGID_21_);}
	
		.st8{clip-path:url(#SVGID_4_);fill:none;stroke:#000000;stroke-width:2.0826;stroke-linecap:round;stroke-linejoin:round;stroke-miterlimit:10;}
	
		.st9{clip-path:url(#SVGID_4_);fill:none;stroke:#000000;stroke-width:2.0812;stroke-linecap:round;stroke-linejoin:round;stroke-miterlimit:10;}
	.st10{clip-path:url(#SVGID_4_);fill-rule:evenodd;clip-rule:evenodd;fill:#FFFFFF;}
	.st11{clip-path:url(#SVGID_29_);}
	.st12{clip-path:url(#SVGID_31_);}
	.st13{clip-path:url(#SVGID_4_);fill-rule:evenodd;clip-rule:evenodd;fill:#FEFEFE;}
	.st14{clip-path:url(#SVGID_4_);fill-rule:evenodd;clip-rule:evenodd;fill:#9D9D9D;}
	
		.st15{clip-path:url(#SVGID_4_);fill:none;stroke:#000000;stroke-width:0.9979;stroke-linecap:round;stroke-linejoin:round;stroke-miterlimit:10;stroke-dasharray:0.9979,0.9979;}
	
		.st16{clip-path:url(#SVGID_4_);fill:none;stroke:#000000;stroke-width:2.0832;stroke-linecap:round;stroke-linejoin:round;stroke-miterlimit:10;}
</style>
<g>
	<defs>
		<rect id="SVGID_1_" x="16" y="4.8" width="253" height="280.6"/>
	</defs>
	<clipPath id="SVGID_2_">
		<use xlink:href="#SVGID_1_"  style="overflow:visible;"/>
	</clipPath>
	<g class="st0">
		<defs>
			<rect id="SVGID_3_" x="16" y="4.8" width="253" height="280.6"/>
		</defs>
		<clipPath id="SVGID_4_">
			<use xlink:href="#SVGID_3_"  style="overflow:visible;"/>
		</clipPath>
		<g class="st1">
			<defs>
				<path id="SVGID_5_" d="M107.9,24c0,0-41.4,19.9-43.2,22.1c0,0-7.6,7-22.9,65.4c-6,23-8.7,44.3-10.7,50.6
					c-6.5,20.2-12.7,71.5-13.6,82.2c-0.1,1.3,1.6,2.2,1.6,2.2l-1.9,13.3c0,0,9.4,8.7,22.9,3.5l1.4-14.3c0,0,1.4,0.8,1.9-0.8
					c2-7,8.2-27.2,12.7-46.6c2.7-11.6,3.6-26.7,5-31.3c2.6-8.7,5.5-16,8-25.3c2.6-9.6,6.2-21.5,7.3-28.2c0,0,2,33.6,3.8,55.2
					c1.3,15.2-6,35.9-8,50.6c-3,22.4-6.5,36.9-6.3,40.5c0,0,18.1,5.1,29.7,12.6c0,0,13.2,9.5,47.2,8.9c0,0,22.2,0.8,41.3-6.2
					c0,0,24.1-12.7,35.2-14.4c2.1-0.3,0.1-14.6-4.5-36.1c-3.6-16.6-11.2-32.7-8.6-57.9c1.6-15.2,2.8-36.8,3.5-55.3
					c0,0,6.6,22.5,9.2,30.5c2.9,8.8,4.4,15.1,5.9,22.8c1.7,8.5,3.4,25.2,4.1,28.1c7.1,31.5,13.4,57.6,13.4,57.6l2.3,1.8l1,9.6
					c2.6,1.8,6.4,2.5,10.5,1.9c3.7-0.5,7.7-2,11.3-4.5l-1.2-10.3l1.8-2.2c0,0-4.9-57.2-13.2-89.2c-2-7.6-4.7-25.9-10.8-52.9
					c-8.6-37.3-16.2-49.9-22.2-59.5l-1-1.8L177.3,24l-15.9-0.4L107.9,24z"/>
			</defs>
			<clipPath id="SVGID_6_">
				<use xlink:href="#SVGID_5_"  style="overflow:visible;"/>
			</clipPath>
			
				<linearGradient id="SVGID_7_" gradientUnits="userSpaceOnUse" x1="-154.4651" y1="530.2028" x2="-153.4651" y2="530.2028" gradientTransform="matrix(-367.285 1.2352 1.2352 367.285 -57072.7578 -194390.9219)">
				<stop  offset="0" style="stop-color:#B3B3B3"/>
				<stop  offset="0.2" style="stop-color:#F1F1F1"/>
				<stop  offset="0.48" style="stop-color:#FFFFFF"/>
				<stop  offset="1" style="stop-color:#B3B3B3"/>
			</linearGradient>
			<polygon class="st2" points="268.9,285.2 17.1,286.1 16.2,23.6 268,22.7 			"/>
		</g>
		<g class="st1">
			<defs>
				<path id="SVGID_8_" d="M107.9,24c0,0-41.4,19.9-43.2,22.1c0,0-7.6,7-22.9,65.4c-6,23-8.7,44.3-10.7,50.6
					c-6.5,20.2-12.7,71.5-13.6,82.2c-0.1,1.3,1.6,2.2,1.6,2.2l-1.9,13.3c0,0,9.4,8.7,22.9,3.5l1.4-14.3c0,0,1.4,0.8,1.9-0.8
					c2-7,8.2-27.2,12.7-46.6c2.7-11.6,3.6-26.7,5-31.3c2.6-8.7,5.5-16,8-25.3c2.6-9.6,6.2-21.5,7.3-28.2c0,0,2,33.6,3.8,55.2
					c1.3,15.2-6,35.9-8,50.6c-3,22.4-6.5,36.9-6.3,40.5c0,0,18.1,5.1,29.7,12.6c0,0,13.2,9.5,47.2,8.9c0,0,22.2,0.8,41.3-6.2
					c0,0,24.1-12.7,35.2-14.4c2.1-0.3,0.1-14.6-4.5-36.1c-3.6-16.6-11.2-32.7-8.6-57.9c1.6-15.2,2.8-36.8,3.5-55.3
					c0,0,6.6,22.5,9.2,30.5c2.9,8.8,4.4,15.1,5.9,22.8c1.7,8.5,3.4,25.2,4.1,28.1c7.1,31.5,13.4,57.6,13.4,57.6l2.3,1.8l1,9.6
					c2.6,1.8,6.4,2.5,10.5,1.9c3.7-0.5,7.7-2,11.3-4.5l-1.2-10.3l1.8-2.2c0,0-4.9-57.2-13.2-89.2c-2-7.6-4.7-25.9-10.8-52.9
					c-8.6-37.3-16.2-49.9-22.2-59.5l-1-1.8L177.3,24l-15.9-0.4L107.9,24z"/>
			</defs>
			<clipPath id="SVGID_9_">
				<use xlink:href="#SVGID_8_"  style="overflow:visible;"/>
			</clipPath>
			<g class="st3">
				<defs>
					<rect id="SVGID_10_" x="65.6" y="262" width="155" height="23"/>
				</defs>
				<clipPath id="SVGID_11_">
					<use xlink:href="#SVGID_10_"  style="overflow:visible;"/>
				</clipPath>
				<g style="clip-path:url(#SVGID_11_);">
					
						<image style="overflow:visible;" width="155" height="23" xlink:href="C008EC97.png"  transform="matrix(1 0 0 1 65.561 261.9675)">
					</image>
				</g>
			</g>
			<path class="st4" d="M15.9,263.5c0.2-0.4-2-3.7,2.1-4.8c4-1.1,11.4-1.6,19,1.2c0.7,0.3,6,5.7,3.2,6.7c0,0,1.4,7.5-6.7,6.9
				C25.5,272.8,17,267.3,15.9,263.5z"/>
			<g class="st3">
				<defs>
					<path id="SVGID_12_" d="M243.7,254.9c0,0,9.7-10.8,23.8-2.1l2.3,9.7c0,0-8.4-6.8-28.2,2.8L243.7,254.9z"/>
				</defs>
				<clipPath id="SVGID_13_">
					<use xlink:href="#SVGID_12_"  style="overflow:visible;"/>
				</clipPath>
				<g class="st5">
					<defs>
						<rect id="SVGID_14_" x="242.6" y="249.5" width="26" height="16"/>
					</defs>
					<clipPath id="SVGID_15_">
						<use xlink:href="#SVGID_14_"  style="overflow:visible;"/>
					</clipPath>
					<g style="clip-path:url(#SVGID_15_);">
						
							<image style="overflow:visible;" width="26" height="16" xlink:href="C008EC95.png"  transform="matrix(1 0 0 1 242.6197 249.4566)">
						</image>
					</g>
				</g>
			</g>
			<path class="st4" d="M245.3,271.4c0.1-0.4-2.5-6.3,1.4-8.2c3.7-1.9,10.9-3.7,18.9-2.5c0.8,0.1,7.5,1.6,4.9,3.1
				c0,0,2.1,13.1-5.9,14C256.5,278.7,247,275,245.3,271.4z"/>
			<g class="st3">
				<defs>
					<path id="SVGID_16_" d="M73.3,72.4c0,0-0.8,34-2.1,38.8c-0.9,3.3-6.4,23.3-10.9,36.8c-0.3,0.9-1.1,1.8-1,2.7
						c1,6-1.7,7.9-4.2,8.9c0,0,2.7,1.8,0.1,2.8c-1.2,0.5-12.9,0.2-14.7,1.8c-1.2,1.1,19.2,0,6,2.9c1.9,1.2,4.9,1.3,8.5,1
						c0,0-11.1,7.9-3.7,8.6c0,0-3.8,8-4.8,10c-3.2,6.2-11.7,53-12.5,56.7c-0.2,0.7-1.7,1.4-1.8,2.3c-0.9,4.5-0.4,10.1-0.4,10.1
						l8.8,9.7c0,0,3.9-8,4.7-8.6c0.8-0.6,20.1-67.3,20.1-67.3l5.9-49.6l5-27.3l-0.7-17.9L73.3,72.4z"/>
				</defs>
				<clipPath id="SVGID_17_">
					<use xlink:href="#SVGID_16_"  style="overflow:visible;"/>
				</clipPath>
				<g class="st6">
					<defs>
						<rect id="SVGID_18_" x="31.7" y="72.4" width="45" height="193"/>
					</defs>
					<clipPath id="SVGID_19_">
						<use xlink:href="#SVGID_18_"  style="overflow:visible;"/>
					</clipPath>
					<g style="clip-path:url(#SVGID_19_);">
						
							<image style="overflow:visible;" width="45" height="193" xlink:href="C008EC9B.png"  transform="matrix(1 0 0 1 31.6631 72.4295)">
						</image>
					</g>
				</g>
			</g>
			<g class="st3">
				<defs>
					<path id="SVGID_20_" d="M213.2,72.4c0,0,0.8,34,2.1,38.8c0.9,3.3,6.4,23.3,10.9,36.8c0.3,0.9,1.1,1.8,1,2.7
						c-1,6,1.7,7.9,4.2,8.9c0,0-2.7,1.8-0.1,2.8c1.2,0.5,12.9,0.2,14.7,1.8c1.2,1.1-19.2,0-6,2.9c-1.9,1.2-4.9,1.3-8.5,1
						c0,0,11.1,7.9,3.7,8.6c0,0,3.8,8,4.8,10c3.2,6.2,11.7,53,12.5,56.7c0.2,0.7,1.7,1.4,1.8,2.3c0.9,4.5,0.4,10.1,0.4,10.1
						l-8.8,9.7c0,0-3.9-8-4.7-8.6c-0.8-0.6-20.1-67.3-20.1-67.3l-5.9-49.6l-5.5-26.5l1.2-18.6L213.2,72.4z"/>
				</defs>
				<clipPath id="SVGID_21_">
					<use xlink:href="#SVGID_20_"  style="overflow:visible;"/>
				</clipPath>
				<g class="st7">
					<defs>
						<rect id="SVGID_22_" x="209.7" y="72.4" width="46" height="193"/>
					</defs>
					<clipPath id="SVGID_23_">
						<use xlink:href="#SVGID_22_"  style="overflow:visible;"/>
					</clipPath>
					<g style="clip-path:url(#SVGID_23_);">
						
							<image style="overflow:visible;" width="46" height="193" xlink:href="C008EC9D.png"  transform="matrix(1 0 0 1 209.6877 72.4295)">
						</image>
					</g>
				</g>
			</g>
			<g class="st3">
				<defs>
					<rect id="SVGID_24_" x="64.9" y="98.8" width="19.7" height="168.2"/>
				</defs>
				<clipPath id="SVGID_25_">
					<use xlink:href="#SVGID_24_"  style="overflow:visible;"/>
				</clipPath>
				<g transform="matrix(1 0 0 1 0 0)" style="clip-path:url(#SVGID_25_);">
					
						<image style="overflow:visible;" width="20" height="169" xlink:href="C008EC9F.png"  transform="matrix(0.9872 0 0 0.9954 64.8926 98.7526)">
					</image>
				</g>
			</g>
			<g class="st3">
				<defs>
					<rect id="SVGID_26_" x="201.2" y="99.7" width="18.8" height="167.2"/>
				</defs>
				<clipPath id="SVGID_27_">
					<use xlink:href="#SVGID_26_"  style="overflow:visible;"/>
				</clipPath>
				<g style="clip-path:url(#SVGID_27_);">
					
						<image style="overflow:visible;" width="19" height="168" xlink:href="C008EC9C.png"  transform="matrix(0.9872 0 0 0.9954 201.2237 99.7476)">
					</image>
				</g>
			</g>
		</g>
		<path class="st8" d="M107.9,24c0,0-41.4,19.9-43.2,22.1c0,0-7.6,7-22.9,65.4c-6,23-8.7,44.3-10.7,50.6
			c-6.5,20.2-12.7,71.5-13.6,82.2c-0.1,1.3,1.6,2.2,1.6,2.2l-1.9,13.3c0,0,9.4,8.7,22.9,3.5l1.4-14.3c0,0,1.4,0.8,1.9-0.8
			c2-7,8.2-27.2,12.7-46.6c2.7-11.6,3.6-26.7,5-31.3c2.6-8.7,5.5-16,8-25.3c2.6-9.6,6.2-21.5,7.3-28.2c0,0,2,33.6,3.8,55.2
			c1.3,15.2-6,35.9-8,50.6c-3,22.4-6.5,36.9-6.3,40.5c0,0,18.1,5.1,29.7,12.6c0,0,13.2,9.5,47.2,8.9c0,0,22.2,0.8,41.3-6.2
			c0,0,24.1-12.7,35.2-14.4c2.1-0.3,0.1-14.6-4.5-36.1c-3.6-16.6-11.2-32.7-8.6-57.9c1.6-15.2,2.8-36.8,3.5-55.3
			c0,0,6.6,22.5,9.2,30.5c2.9,8.8,4.4,15.1,5.9,22.8c1.7,8.5,3.4,25.2,4.1,28.1c7.1,31.5,13.4,57.6,13.4,57.6l2.3,1.8l1,9.6
			c2.6,1.8,6.4,2.5,10.5,1.9c3.7-0.5,7.7-2,11.3-4.5l-1.2-10.3l1.8-2.2c0,0-4.9-57.2-13.2-89.2c-2-7.6-4.7-25.9-10.8-52.9
			c-8.6-37.3-16.2-49.9-22.2-59.5l-1-1.8L177.3,24l-15.9-0.4L107.9,24z"/>
		<path class="st9" d="M17,259.5c0,0,3.7-3.4,12.8-1.5c7.5,1.6,9.8,4.1,10.4,5.5"/>
		<path class="st9" d="M245.7,264.6c0,0,1.7-3.7,10.9-4.5c7.7-0.7,10.1,0.3,10.9,1.6"/>
		<path class="st10" d="M119.1,7.7c0,0-0.1-1.8,11.1-1.5l30.4-0.3c0,0,4.2,0.4,5.9,1.6c1.7,1.2,2.6,1.9,4.7,6.2
			c2.1,4.3,3.9,8.8,6.2,9.3c0,0-7.2,22.6-16.9,32.1c0,0-6.8-12.8-9.1-15.4c0,0-2.2-4-4.2-3.8c0,0-1.2,0.4-2.1,2.1
			c0,0-2.9,0.5-4.3,0.1c-1.4-0.4,0.1-2-2.7-2.4c0,0-5.7,4.4-13.3,19.7c0,0-14.6-16.6-16.7-32.9c0,0,2.9-1.3,5.1-6.3
			C115.3,11.2,116.8,8.4,119.1,7.7z"/>
		<g class="st1">
			<defs>
				<path id="SVGID_28_" d="M119.1,7.7c0,0-0.1-1.8,11.1-1.5l30.4-0.3c0,0,4.2,0.4,5.9,1.6c1.7,1.2,2.6,1.9,4.7,6.2
					c2.1,4.3,3.9,8.8,6.2,9.3c0,0-7.2,22.6-16.9,32.1c0,0-6.8-12.8-9.1-15.4c0,0-2.2-4-4.2-3.8c0,0-1.2,0.4-2.1,2.1
					c0,0-2.9,0.5-4.3,0.1c-1.4-0.4,0.1-2-2.7-2.4c0,0-5.7,4.4-13.3,19.7c0,0-14.6-16.6-16.7-32.9c0,0,2.9-1.3,5.1-6.3
					C115.3,11.2,116.8,8.4,119.1,7.7z"/>
			</defs>
			<clipPath id="SVGID_29_">
				<use xlink:href="#SVGID_28_"  style="overflow:visible;"/>
			</clipPath>
			<g class="st11">
				<defs>
					<path id="SVGID_30_" d="M138,35.7c0,0-18.7-11-18.9-28c0,0,11.4-15,21.4-12.6s23,5.5,24.3,6.6c1.3,1,1.4,5.9,1.4,5.9
						s1.8,10.5-10.8,21.6c0,0-5.6,5.3-8.6,7c0,0-1.3,1.4-1.6,1.8c-0.3,0.3-4.2,0.5-4.4,0.5c-0.2,0-0.9-1.4-1.3-1.8
						C139,36.3,138,35.7,138,35.7z"/>
				</defs>
				<clipPath id="SVGID_31_">
					<use xlink:href="#SVGID_30_"  style="overflow:visible;"/>
				</clipPath>
				<g class="st12">
					<g>
						<defs>
							<rect id="SVGID_32_" x="119.1" y="-7.3" width="48.9" height="45.7"/>
						</defs>
						<clipPath id="SVGID_33_">
							<use xlink:href="#SVGID_32_"  style="overflow:visible;"/>
						</clipPath>
						<g style="clip-path:url(#SVGID_33_);">
							
								<image style="overflow:visible;" width="204" height="191" xlink:href="C008EC9B.jpg"  transform="matrix(0.24 0 0 0.24 119.04 -7.36)">
							</image>
						</g>
					</g>
				</g>
			</g>
		</g>
		<path class="st8" d="M119.1,7.7c0,0-0.1-1.8,11.1-1.5l30.4-0.3c0,0,4.2,0.4,5.9,1.6c1.7,1.2,2.6,1.9,4.7,6.2
			c2.1,4.3,3.9,8.8,6.2,9.3c0,0-7.2,22.6-16.9,32.1c0,0-6.8-12.8-9.1-15.4c0,0-2.2-4-4.2-3.8c0,0-1.2,0.4-2.1,2.1
			c0,0-2.9,0.5-4.3,0.1c-1.4-0.4,0.1-2-2.7-2.4c0,0-5.7,4.4-13.3,19.7c0,0-14.6-16.6-16.7-32.9c0,0,2.9-1.3,5.1-6.3
			C115.3,11.2,116.8,8.4,119.1,7.7z"/>
		<path class="st8" d="M138,35.7c0,0-18.7-10.9-18.9-28"/>
		<path class="st8" d="M147.5,35.7c0,0,20.4-13.8,18.6-28"/>
		<path class="st13" d="M143.1,38.6c0,0-4.9,2.4-6.5,8.5l-0.4,228.4l13.9,0.1l-0.7-227.2l-0.1-11.8c0,0-2.1-2.3-4.1,1.6L143.1,38.6z
			"/>
		<path class="st8" d="M143.1,38.6c0,0-4.9,2.4-6.5,8.5l-0.4,228.4l13.9,0.1l-0.7-227.2l-0.1-11.8c0,0-2.1-2.3-4.1,1.6L143.1,38.6z"
			/>
		<polygon class="st14" points="160.2,87 198.7,86.8 198.8,127.1 180.6,132.7 161.2,127.4 		"/>
		<polygon class="st8" points="160.2,87 198.7,86.8 198.8,127.1 180.6,132.7 161.2,127.4 		"/>
		<path class="st15" d="M160.4,95.1c0,0,14.2,2.9,19.1,3.7l19.3-3.4"/>
		<path class="st9" d="M76.4,118c0,0,2.3-32-10.5-73.2"/>
		<path class="st8" d="M209.6,114c0,0-1.6-29,11.2-67.4"/>
		<path class="st16" d="M41.3,248.8c-5.1-4.3-19.4-5.1-22.6-2.1"/>
		<path class="st16" d="M243.8,254.8c2.9-2.9,6.8-5.2,14.2-5.1c2.9,0.1,6.9,0.9,7.9,2.5"/>
	</g>
</g>
</svg>
