<?xml version="1.0" encoding="utf-8"?>
<!-- Generator: Adobe Illustrator 24.3.0, SVG Export Plug-In . SVG Version: 6.00 Build 0)  -->
<svg version="1.1" id="Layer_1" xmlns="http://www.w3.org/2000/svg" xmlns:xlink="http://www.w3.org/1999/xlink" x="0px" y="0px"
	 viewBox="0 0 253 280.6" style="enable-background:new 0 0 253 280.6;" xml:space="preserve">
<path d="M244.8,85.3c-3.8-11.5-10-20.9-20.9-27.1c-24.8-14.5-49.5-28.6-74.3-43.1c-6.8-3.8-13.9-5.9-21.5-6.2
	c-8.6-0.3-16.5,1.2-23.9,5.6C79.1,28.9,54,43.1,29.3,57.8C14.5,66.7,6.5,80,6.5,97.4c-0.3,28.6,0,57.5,0,86.1c0,4.4,0.6,8.8,2.1,13
	c3.8,11.2,10.3,20.3,20.6,26.2c24.5,14.2,49.3,28.3,73.7,42.5c6.5,3.8,13.3,5.9,20.6,6.5c9.1,0.6,17.7-0.9,25.7-5.6
	c24.8-14.5,49.5-28.9,74.3-43.1c7.1-3.8,12.4-9.4,16.2-16.2c3.8-6.5,6.8-13.6,6.8-21.2c0-15,0-30.4,0-45.4c0-13.9,0-28.3,0-42.8
	C246.6,93.2,246,89.1,244.8,85.3z M174.1,144.8H131v43.1c0,2.4-2.1,4.4-4.4,4.4c-2.4,0-4.4-2.1-4.4-4.4v-43.1H79.1
	c-2.4,0-4.4-2.1-4.4-4.4s2.1-4.4,4.4-4.4h43.1V92.9c0-2.4,2.1-4.4,4.4-4.4c2.4,0,4.4,2.1,4.4,4.4V136h43.1c2.4,0,4.4,2.1,4.4,4.4
	S176.4,144.8,174.1,144.8z"/>
</svg>
