<?xml version="1.0" encoding="utf-8"?>
<!-- Generator: Adobe Illustrator 24.3.0, SVG Export Plug-In . SVG Version: 6.00 Build 0)  -->
<svg version="1.1" id="Layer_1" xmlns="http://www.w3.org/2000/svg" xmlns:xlink="http://www.w3.org/1999/xlink" x="0px" y="0px"
	 viewBox="0 0 285.9 219.2" style="enable-background:new 0 0 285.9 219.2;" xml:space="preserve">
<g>
	<g>
		<g>
			<path d="M225.1,21C214.2,10,198.6,2.3,191.4,9.5l-6.6,6.6c-12.2-6-22.2-6.4-27.7-0.9c0,0,0,0,0,0l-32.3,32.3l43.9,12.1
				c2.5,3.1,5.3,6.2,8.4,9.3c0.2,0.2,0.5,0.5,0.7,0.7l-58.9-16.2L98,74.3l33.2,65.3l23.9,6.7l-10.5-19.1l-0.1,0l0-0.1l-14-25.6
				l-0.4-0.1l0.1-0.4l-13.8-25.2l-0.5-0.1l0.1-0.6l-5.4-9.8l6.3-3.5l4.2,7.6l79.9,17.8c7,3.7,13.6,5.7,19,5.7c0,0,0,0,0,0l-1.3,5.6
				l-93.1-20.7l9.5,17.4l71.5,17.7l24-24c0,0,0,0,0,0c5.5-5.5,5.1-15.5-0.9-27.7l6.6-6.6C243.8,47.4,236.1,31.9,225.1,21z
				 M179.6,31.6l9.7-9.7c0,0.1,0.1,0.3,0.1,0.4c0.2,0.5,0.3,1.1,0.5,1.6c0.1,0.3,0.2,0.6,0.3,0.8c0.3,0.7,0.6,1.5,0.9,2.3
				c0,0.1,0.1,0.2,0.1,0.3c0.4,0.9,0.8,1.7,1.3,2.6c0.1,0.3,0.3,0.5,0.4,0.8c0.4,0.6,0.7,1.2,1.1,1.8c0.2,0.3,0.4,0.6,0.6,0.9
				c0.4,0.5,0.7,1.1,1.1,1.6c0.2,0.3,0.5,0.7,0.7,1c0.4,0.5,0.8,1.1,1.2,1.6c0.2,0.3,0.5,0.6,0.8,0.9c0.5,0.6,0.9,1.1,1.4,1.6
				c0.2,0.3,0.5,0.5,0.7,0.8c0.7,0.8,1.4,1.6,2.2,2.3c0.9,0.9,1.9,1.8,2.8,2.7c0.3,0.3,0.6,0.5,0.9,0.8c0.7,0.6,1.4,1.1,2.1,1.7
				c0.4,0.3,0.7,0.6,1.1,0.8c0.7,0.5,1.4,1,2.1,1.5c0.3,0.2,0.7,0.5,1,0.7c0.9,0.6,1.9,1.2,2.8,1.7c0.1,0.1,0.2,0.1,0.3,0.2
				c1,0.6,2.1,1.1,3.1,1.6c0.3,0.2,0.7,0.3,1,0.4c0.7,0.3,1.4,0.6,2.1,0.8c0.4,0.1,0.7,0.2,1.1,0.4c0.3,0.1,0.6,0.2,0.8,0.3
				l-9.7,9.7c-2.3,0.3-10.9-4.1-20.9-14.1C183.7,42.5,179.4,33.9,179.6,31.6z M225.7,83.9c-0.3,0.3-0.7,0.6-1.2,0.9
				c-0.2,0.1-0.5,0.2-0.7,0.3c-0.3,0.1-0.5,0.2-0.8,0.3c-0.3,0.1-0.6,0.1-0.9,0.2c-0.3,0.1-0.5,0.1-0.8,0.1c-0.3,0-0.5,0-0.8,0
				c-0.4,0-0.8,0-1.3,0c-0.1,0-0.3,0-0.4,0c-8.8-0.8-23.1-8.3-36.6-21.7c-13.5-13.5-21-27.8-21.7-36.6c0-0.1,0-0.3,0-0.4
				c0-0.4,0-0.8,0-1.2c0-0.3,0-0.6,0-0.9c0-0.3,0.1-0.5,0.1-0.7c0.1-0.4,0.1-0.7,0.2-1c0.1-0.2,0.2-0.4,0.2-0.6
				c0.1-0.3,0.2-0.6,0.4-0.9c0.2-0.4,0.5-0.8,0.9-1.2c1.2-1.2,3.1-1.8,5.5-1.8c3.2,0,7.2,1,11.7,3l-5.2,5.2c-8,8,12,28.5,14.3,30.8
				c0.1,0.1,0.3,0.3,0.6,0.6c0.1,0.1,0.2,0.2,0.3,0.3c0.2,0.2,0.4,0.4,0.6,0.6c0.2,0.1,0.3,0.3,0.5,0.5c0.2,0.2,0.5,0.4,0.7,0.7
				c0.2,0.2,0.4,0.4,0.6,0.6c0.3,0.3,0.6,0.5,0.9,0.8c0.2,0.2,0.4,0.4,0.7,0.6c0.5,0.4,0.9,0.8,1.4,1.2c0.2,0.1,0.3,0.3,0.5,0.4
				c0.6,0.5,1.1,0.9,1.7,1.4c0.2,0.2,0.5,0.4,0.7,0.6c0.4,0.3,0.9,0.7,1.3,1c0.3,0.2,0.6,0.4,0.9,0.6c0.4,0.3,0.9,0.6,1.3,0.9
				c0.3,0.2,0.6,0.4,0.9,0.6c0.5,0.3,1,0.6,1.4,0.9c0.3,0.2,0.5,0.3,0.8,0.5c0.7,0.4,1.3,0.8,2,1.1c0.1,0,0.2,0.1,0.3,0.2
				c0.8,0.4,1.5,0.7,2.2,1c0.2,0.1,0.5,0.2,0.7,0.2c0.5,0.2,1,0.4,1.5,0.5c0.3,0.1,0.5,0.1,0.8,0.2c0.5,0.1,0.9,0.2,1.3,0.2
				c0.3,0,0.5,0.1,0.8,0.1c0.2,0,0.3,0,0.5,0c0.4,0,0.9,0,1.3-0.1c0,0,0,0,0,0c0.6-0.1,1.1-0.3,1.7-0.5c0.1-0.1,0.3-0.1,0.4-0.2
				c0.5-0.3,1-0.6,1.5-1.1l5.2-5.2C228,74.6,228.5,81.1,225.7,83.9z M231.5,49.6c-2.4,2.4-13-0.9-23.5-11.4
				c-1.3-1.3-2.4-2.6-3.5-3.8c-2.1-2.5-4-5.1-5.4-7.7c-0.3-0.5-0.5-0.9-0.7-1.4c-0.4-0.7-0.8-1.5-1.1-2.2c-0.2-0.5-0.4-1-0.5-1.4
				c-0.2-0.6-0.4-1.2-0.5-1.7c-0.1-0.3-0.1-0.6-0.2-0.9c-0.1-0.6-0.2-1.1-0.2-1.6c0-0.2,0-0.4,0-0.6c0-0.4,0-0.8,0.1-1.1
				c0.1-0.4,0.3-0.8,0.5-1.1c0.5-0.5,1.3-0.7,2.4-0.7c4.3,0,12.7,3.8,21.1,12.2c4.9,4.9,8.9,10.6,10.8,15.5
				C232.7,46.1,232.3,48.7,231.5,49.6z"/>
			<polygon points="169.5,150.3 183.9,135.9 154,129.2 164.8,149 			"/>
			<polygon points="200.9,118.9 140.1,103.8 149.4,120.8 190,129.8 			"/>
			<polygon points="75.4,97 54.3,118.1 91,128.3 			"/>
			<polygon points="121.8,136.9 92.7,79.7 80.8,91.6 100.3,130.9 			"/>
			<path d="M200.5,161.9c-2,0-3.6,1.6-3.6,3.6c0,2,1.6,3.6,3.6,3.6c10,0,18.1,8.1,18.1,18.1c0,10-8.1,18.1-18.1,18.1
				c-10,0-18.1-8.1-18.1-18.1c0-10-8.1-18.1-18.1-18.1c-3.8,0-6.8-2.9-7.2-6.6l6.4-6.4l-113-31.6c-1.1,4.7-0.3,10.8,2.6,17.7
				c0.5,1.2,1.1,2.4,1.7,3.7l-6.5,6.5c-8,8,12,28.5,14.3,30.8c1.9,1.9,16.5,16.2,26,16.2c1.9,0,3.5-0.6,4.9-1.9l6.6-6.6
				c6.3,3.1,12.1,4.8,17.1,4.8c4.4,0,8.1-1.3,10.7-3.9l15.2-15.2l-74-21.6c-2.2-2.9-4.1-5.9-5.8-8.9l0.1-0.3l85.5,25l2.6-2.6
				c2.4,4.8,7.2,8.1,12.9,8.1c6,0,10.8,4.9,10.8,10.8c0,13.9,11.3,25.3,25.3,25.3c13.9,0,25.3-11.3,25.3-25.3
				C225.8,173.3,214.5,161.9,200.5,161.9z M65.3,162c0.3,0.4,0.6,0.7,0.9,1.1c0.9,1.1,1.9,2.3,2.9,3.4c0.4,0.4,0.7,0.8,1.1,1.2
				c1.3,1.4,2.7,2.9,4.1,4.3c1.7,1.7,3.4,3.3,5.1,4.8c1,0.9,2,1.7,2.9,2.5c0.7,0.5,1.3,1.1,2,1.6c1.4,1.1,2.7,2.1,4,3
				c0.2,0.2,0.4,0.3,0.6,0.5c1.6,1.1,3.1,2.1,4.7,3.1l-4.9,4.9c-2.3,0.2-10.9-4.1-20.9-14.1c-9.9-9.9-14.3-18.5-14.1-20.9l4.9-4.9
				C60.6,155.7,62.8,158.8,65.3,162z"/>
		</g>
	</g>
</g>
</svg>
